<svg xmlns="http://www.w3.org/2000/svg" xmlns:xlink="http://www.w3.org/1999/xlink" width="500" zoomAndPan="magnify" viewBox="0 0 375 374.999991" height="500" preserveAspectRatio="xMidYMid meet" version="1.0"><path fill="#ffcc00" d="M 283.066406 187.617188 C 283.066406 189.179688 283.027344 190.738281 282.949219 192.300781 C 282.875 193.859375 282.757812 195.417969 282.605469 196.972656 C 282.453125 198.527344 282.261719 200.078125 282.03125 201.621094 C 281.804688 203.167969 281.535156 204.707031 281.230469 206.238281 C 280.925781 207.769531 280.585938 209.292969 280.207031 210.808594 C 279.824219 212.324219 279.410156 213.828125 278.957031 215.324219 C 278.503906 216.816406 278.011719 218.300781 277.484375 219.769531 C 276.960938 221.242188 276.398438 222.699219 275.800781 224.140625 C 275.203125 225.585938 274.570312 227.011719 273.902344 228.425781 C 273.234375 229.835938 272.53125 231.230469 271.796875 232.609375 C 271.058594 233.988281 270.289062 235.347656 269.488281 236.6875 C 268.683594 238.027344 267.847656 239.34375 266.980469 240.644531 C 266.113281 241.941406 265.214844 243.21875 264.28125 244.472656 C 263.351562 245.726562 262.390625 246.960938 261.402344 248.167969 C 260.410156 249.375 259.390625 250.558594 258.339844 251.714844 C 257.292969 252.871094 256.214844 254.003906 255.109375 255.105469 C 254.003906 256.210938 252.875 257.289062 251.71875 258.335938 C 250.558594 259.386719 249.378906 260.40625 248.171875 261.398438 C 246.960938 262.386719 245.730469 263.347656 244.476562 264.28125 C 243.222656 265.210938 241.945312 266.109375 240.648438 266.976562 C 239.347656 267.84375 238.027344 268.679688 236.6875 269.484375 C 235.347656 270.285156 233.988281 271.054688 232.613281 271.792969 C 231.234375 272.527344 229.839844 273.230469 228.429688 273.898438 C 227.015625 274.566406 225.589844 275.199219 224.144531 275.796875 C 222.703125 276.394531 221.246094 276.957031 219.773438 277.484375 C 218.304688 278.007812 216.820312 278.5 215.328125 278.953125 C 213.832031 279.40625 212.328125 279.824219 210.8125 280.203125 C 209.296875 280.582031 207.773438 280.925781 206.238281 281.230469 C 204.707031 281.535156 203.167969 281.800781 201.625 282.03125 C 200.078125 282.257812 198.53125 282.449219 196.976562 282.601562 C 195.421875 282.757812 193.863281 282.871094 192.304688 282.949219 C 190.742188 283.023438 189.183594 283.0625 187.621094 283.0625 C 186.058594 283.0625 184.496094 283.023438 182.9375 282.949219 C 181.375 282.871094 179.820312 282.757812 178.265625 282.601562 C 176.710938 282.449219 175.160156 282.257812 173.613281 282.03125 C 172.070312 281.800781 170.53125 281.535156 169 281.230469 C 167.46875 280.925781 165.941406 280.582031 164.429688 280.203125 C 162.914062 279.824219 161.40625 279.40625 159.914062 278.953125 C 158.417969 278.5 156.933594 278.007812 155.464844 277.484375 C 153.992188 276.957031 152.539062 276.394531 151.09375 275.796875 C 149.652344 275.199219 148.222656 274.566406 146.8125 273.898438 C 145.398438 273.230469 144.003906 272.527344 142.625 271.792969 C 141.25 271.054688 139.890625 270.285156 138.550781 269.484375 C 137.210938 268.679688 135.890625 267.84375 134.59375 266.976562 C 133.292969 266.109375 132.015625 265.210938 130.761719 264.28125 C 129.507812 263.347656 128.277344 262.386719 127.070312 261.398438 C 125.863281 260.40625 124.679688 259.386719 123.523438 258.335938 C 122.363281 257.289062 121.234375 256.210938 120.128906 255.105469 C 119.023438 254.003906 117.949219 252.871094 116.898438 251.714844 C 115.851562 250.558594 114.828125 249.375 113.839844 248.167969 C 112.847656 246.960938 111.886719 245.726562 110.957031 244.472656 C 110.027344 243.21875 109.125 241.941406 108.257812 240.644531 C 107.390625 239.34375 106.554688 238.027344 105.753906 236.6875 C 104.949219 235.347656 104.179688 233.988281 103.445312 232.609375 C 102.707031 231.230469 102.003906 229.835938 101.335938 228.425781 C 100.667969 227.011719 100.035156 225.585938 99.4375 224.140625 C 98.839844 222.699219 98.277344 221.242188 97.753906 219.769531 C 97.226562 218.300781 96.738281 216.816406 96.285156 215.324219 C 95.828125 213.828125 95.414062 212.324219 95.035156 210.808594 C 94.65625 209.292969 94.3125 207.769531 94.007812 206.238281 C 93.703125 204.707031 93.4375 203.167969 93.207031 201.621094 C 92.976562 200.078125 92.785156 198.527344 92.632812 196.972656 C 92.480469 195.417969 92.363281 193.859375 92.289062 192.300781 C 92.210938 190.738281 92.171875 189.179688 92.171875 187.617188 C 92.171875 186.054688 92.210938 184.492188 92.289062 182.933594 C 92.363281 181.375 92.480469 179.816406 92.632812 178.261719 C 92.785156 176.707031 92.976562 175.15625 93.207031 173.613281 C 93.4375 172.066406 93.703125 170.527344 94.007812 168.996094 C 94.3125 167.464844 94.65625 165.941406 95.035156 164.425781 C 95.414062 162.910156 95.828125 161.40625 96.285156 159.910156 C 96.738281 158.414062 97.226562 156.933594 97.753906 155.460938 C 98.277344 153.992188 98.839844 152.535156 99.4375 151.089844 C 100.035156 149.648438 100.667969 148.21875 101.335938 146.808594 C 102.003906 145.394531 102.707031 144 103.445312 142.625 C 104.179688 141.246094 104.949219 139.886719 105.753906 138.546875 C 106.554688 137.207031 107.390625 135.886719 108.257812 134.589844 C 109.125 133.289062 110.027344 132.015625 110.957031 130.757812 C 111.886719 129.503906 112.847656 128.273438 113.839844 127.066406 C 114.828125 125.859375 115.851562 124.675781 116.898438 123.519531 C 117.949219 122.363281 119.023438 121.230469 120.128906 120.125 C 121.234375 119.019531 122.363281 117.945312 123.523438 116.894531 C 124.679688 115.847656 125.863281 114.828125 127.070312 113.835938 C 128.277344 112.84375 129.507812 111.882812 130.761719 110.953125 C 132.015625 110.023438 133.292969 109.125 134.59375 108.257812 C 135.890625 107.386719 137.210938 106.554688 138.550781 105.75 C 139.890625 104.945312 141.25 104.175781 142.625 103.441406 C 144.003906 102.703125 145.398438 102.003906 146.8125 101.335938 C 148.222656 100.667969 149.652344 100.035156 151.09375 99.4375 C 152.539062 98.839844 153.992188 98.277344 155.464844 97.75 C 156.933594 97.222656 158.417969 96.734375 159.914062 96.28125 C 161.40625 95.828125 162.914062 95.410156 164.429688 95.03125 C 165.941406 94.652344 167.46875 94.308594 169 94.003906 C 170.53125 93.699219 172.070312 93.433594 173.613281 93.203125 C 175.160156 92.972656 176.710938 92.78125 178.265625 92.628906 C 179.820312 92.476562 181.375 92.363281 182.9375 92.285156 C 184.496094 92.207031 186.058594 92.171875 187.621094 92.171875 C 189.183594 92.171875 190.742188 92.207031 192.304688 92.285156 C 193.863281 92.363281 195.421875 92.476562 196.976562 92.628906 C 198.53125 92.78125 200.078125 92.972656 201.625 93.203125 C 203.167969 93.433594 204.707031 93.699219 206.238281 94.003906 C 207.773438 94.308594 209.296875 94.652344 210.8125 95.03125 C 212.328125 95.410156 213.832031 95.828125 215.324219 96.28125 C 216.820312 96.734375 218.304688 97.222656 219.773438 97.75 C 221.246094 98.277344 222.703125 98.839844 224.144531 99.4375 C 225.589844 100.035156 227.015625 100.667969 228.429688 101.335938 C 229.839844 102.003906 231.234375 102.703125 232.613281 103.441406 C 233.988281 104.175781 235.347656 104.945312 236.6875 105.75 C 238.027344 106.554688 239.347656 107.386719 240.648438 108.257812 C 241.945312 109.125 243.222656 110.023438 244.476562 110.953125 C 245.730469 111.882812 246.960938 112.84375 248.171875 113.835938 C 249.378906 114.828125 250.558594 115.847656 251.71875 116.894531 C 252.875 117.945312 254.003906 119.019531 255.109375 120.125 C 256.214844 121.230469 257.292969 122.363281 258.339844 123.519531 C 259.390625 124.675781 260.410156 125.859375 261.402344 127.066406 C 262.390625 128.273438 263.351562 129.503906 264.28125 130.757812 C 265.214844 132.015625 266.113281 133.289062 266.980469 134.589844 C 267.847656 135.886719 268.683594 137.207031 269.488281 138.546875 C 270.289062 139.886719 271.058594 141.246094 271.796875 142.625 C 272.53125 144 273.234375 145.394531 273.902344 146.808594 C 274.570312 148.21875 275.203125 149.648438 275.800781 151.089844 C 276.398438 152.535156 276.960938 153.992188 277.488281 155.460938 C 278.011719 156.933594 278.503906 158.414062 278.957031 159.910156 C 279.410156 161.40625 279.824219 162.910156 280.207031 164.425781 C 280.585938 165.941406 280.925781 167.464844 281.230469 168.996094 C 281.535156 170.527344 281.804688 172.066406 282.03125 173.613281 C 282.261719 175.15625 282.453125 176.707031 282.605469 178.261719 C 282.757812 179.816406 282.875 181.375 282.949219 182.933594 C 283.027344 184.492188 283.066406 186.054688 283.066406 187.617188 Z M 283.066406 187.617188 " fill-opacity="1" fill-rule="nonzero"/><path fill="#ffcc00" d="M 187.617188 0.128906 C 180.695312 0.128906 175.121094 6.820312 175.121094 15.128906 L 175.121094 47.628906 C 175.121094 55.9375 180.695312 62.625 187.617188 62.625 C 194.542969 62.625 200.117188 55.9375 200.117188 47.628906 L 200.117188 15.128906 C 200.117188 6.820312 194.542969 0.128906 187.617188 0.128906 Z M 187.617188 0.128906 " fill-opacity="1" fill-rule="nonzero"/><path fill="#ffcc00" d="M 320.191406 55.042969 C 315.296875 50.148438 306.625 50.9375 300.75 56.8125 L 277.769531 79.792969 C 271.894531 85.667969 271.105469 94.339844 276 99.234375 C 280.898438 104.132812 289.570312 103.34375 295.445312 97.46875 L 318.425781 74.488281 C 324.300781 68.613281 325.089844 59.941406 320.191406 55.042969 Z M 320.191406 55.042969 " fill-opacity="1" fill-rule="nonzero"/><path fill="#ffcc00" d="M 375.105469 187.617188 C 375.105469 180.695312 368.417969 175.121094 360.109375 175.121094 L 327.609375 175.121094 C 319.300781 175.121094 312.609375 180.695312 312.609375 187.617188 C 312.609375 194.542969 319.300781 200.117188 327.609375 200.117188 L 360.109375 200.117188 C 368.417969 200.117188 375.105469 194.542969 375.105469 187.617188 Z M 375.105469 187.617188 " fill-opacity="1" fill-rule="nonzero"/><path fill="#ffcc00" d="M 320.191406 320.191406 C 325.089844 315.296875 324.300781 306.625 318.425781 300.75 L 295.445312 277.769531 C 289.570312 271.894531 280.898438 271.105469 276 276 C 271.105469 280.898438 271.894531 289.570312 277.769531 295.445312 L 300.75 318.425781 C 306.625 324.300781 315.296875 325.089844 320.191406 320.191406 Z M 320.191406 320.191406 " fill-opacity="1" fill-rule="nonzero"/><path fill="#ffcc00" d="M 187.617188 375.105469 C 194.542969 375.105469 200.117188 368.417969 200.117188 360.109375 L 200.117188 327.609375 C 200.117188 319.300781 194.542969 312.609375 187.617188 312.609375 C 180.695312 312.609375 175.121094 319.300781 175.121094 327.609375 L 175.121094 360.109375 C 175.121094 368.417969 180.695312 375.105469 187.617188 375.105469 Z M 187.617188 375.105469 " fill-opacity="1" fill-rule="nonzero"/><path fill="#ffcc00" d="M 55.042969 320.191406 C 59.941406 325.089844 68.613281 324.300781 74.488281 318.425781 L 97.46875 295.445312 C 103.34375 289.570312 104.132812 280.898438 99.234375 276 C 94.339844 271.105469 85.667969 271.894531 79.792969 277.769531 L 56.8125 300.75 C 50.9375 306.625 50.148438 315.296875 55.042969 320.191406 Z M 55.042969 320.191406 " fill-opacity="1" fill-rule="nonzero"/><path fill="#ffcc00" d="M 0.128906 187.617188 C 0.128906 194.542969 6.820312 200.117188 15.128906 200.117188 L 47.628906 200.117188 C 55.9375 200.117188 62.625 194.542969 62.625 187.617188 C 62.625 180.695312 55.9375 175.121094 47.628906 175.121094 L 15.128906 175.121094 C 6.820312 175.121094 0.128906 180.695312 0.128906 187.617188 Z M 0.128906 187.617188 " fill-opacity="1" fill-rule="nonzero"/><path fill="#ffcc00" d="M 55.042969 55.042969 C 50.148438 59.941406 50.9375 68.613281 56.8125 74.488281 L 79.792969 97.46875 C 85.667969 103.34375 94.339844 104.132812 99.234375 99.234375 C 104.132812 94.339844 103.34375 85.667969 97.46875 79.792969 L 74.488281 56.8125 C 68.613281 50.9375 59.941406 50.148438 55.042969 55.042969 Z M 55.042969 55.042969 " fill-opacity="1" fill-rule="nonzero"/></svg>