<svg xmlns="http://www.w3.org/2000/svg" xmlns:xlink="http://www.w3.org/1999/xlink" width="500" zoomAndPan="magnify" viewBox="0 0 375 374.999991" height="500" preserveAspectRatio="xMidYMid meet" version="1.0"><defs><clipPath id="94093325d6"><path d="M 3.75 0 L 371.25 0 L 371.25 375 L 3.75 375 Z M 3.75 0 " clip-rule="nonzero"/></clipPath></defs><g clip-path="url(#94093325d6)"><path fill="#f5df00" d="M 191 0.195312 C 187.9375 0.195312 184.878906 0.269531 181.820312 0.417969 C 178.761719 0.570312 175.710938 0.792969 172.664062 1.09375 C 169.617188 1.394531 166.578125 1.769531 163.550781 2.21875 C 160.519531 2.667969 157.503906 3.191406 154.503906 3.789062 C 151.5 4.386719 148.511719 5.054688 145.542969 5.800781 C 142.574219 6.542969 139.621094 7.359375 136.691406 8.25 C 133.761719 9.136719 130.855469 10.097656 127.972656 11.128906 C 125.089844 12.160156 122.234375 13.261719 119.40625 14.433594 C 116.578125 15.605469 113.777344 16.847656 111.011719 18.15625 C 108.242188 19.464844 105.507812 20.839844 102.808594 22.285156 C 100.109375 23.726562 97.445312 25.238281 94.820312 26.808594 C 92.191406 28.382812 89.605469 30.023438 87.0625 31.722656 C 84.515625 33.425781 82.011719 35.1875 79.554688 37.011719 C 77.09375 38.835938 74.679688 40.71875 72.3125 42.660156 C 69.949219 44.601562 67.628906 46.601562 65.359375 48.660156 C 63.09375 50.714844 60.875 52.824219 58.710938 54.988281 C 56.546875 57.15625 54.433594 59.371094 52.378906 61.640625 C 50.324219 63.910156 48.324219 66.226562 46.382812 68.59375 C 44.4375 70.960938 42.554688 73.375 40.730469 75.832031 C 38.90625 78.292969 37.144531 80.796875 35.445312 83.339844 C 33.742188 85.886719 32.105469 88.472656 30.53125 91.097656 C 28.957031 93.726562 27.449219 96.386719 26.003906 99.089844 C 24.5625 101.789062 23.1875 104.523438 21.875 107.292969 C 20.566406 110.058594 19.328125 112.855469 18.15625 115.6875 C 16.984375 118.515625 15.882812 121.371094 14.851562 124.253906 C 13.820312 127.136719 12.859375 130.042969 11.96875 132.972656 C 11.082031 135.902344 10.265625 138.851562 9.519531 141.824219 C 8.777344 144.792969 8.105469 147.78125 7.507812 150.78125 C 6.910156 153.785156 6.386719 156.800781 5.9375 159.832031 C 5.488281 162.859375 5.117188 165.898438 4.816406 168.945312 C 4.515625 171.992188 4.289062 175.042969 4.140625 178.101562 C 3.988281 181.160156 3.914062 184.21875 3.914062 187.28125 C 3.914062 190.34375 3.988281 193.402344 4.140625 196.460938 C 4.289062 199.519531 4.515625 202.574219 4.816406 205.621094 C 5.117188 208.667969 5.488281 211.703125 5.9375 214.734375 C 6.386719 217.761719 6.910156 220.777344 7.507812 223.78125 C 8.105469 226.785156 8.777344 229.769531 9.519531 232.742188 C 10.265625 235.710938 11.082031 238.660156 11.96875 241.589844 C 12.859375 244.519531 13.820312 247.425781 14.851562 250.308594 C 15.882812 253.191406 16.984375 256.046875 18.15625 258.878906 C 19.328125 261.707031 20.566406 264.503906 21.875 267.273438 C 23.1875 270.039062 24.5625 272.773438 26.003906 275.472656 C 27.449219 278.175781 28.957031 280.835938 30.53125 283.464844 C 32.105469 286.089844 33.742188 288.675781 35.445312 291.222656 C 37.144531 293.769531 38.90625 296.269531 40.730469 298.730469 C 42.554688 301.1875 44.4375 303.601562 46.382812 305.96875 C 48.324219 308.335938 50.324219 310.652344 52.378906 312.921875 C 54.433594 315.191406 56.546875 317.40625 58.710938 319.570312 C 60.875 321.738281 63.09375 323.847656 65.363281 325.902344 C 67.628906 327.960938 69.949219 329.960938 72.316406 331.902344 C 74.679688 333.84375 77.09375 335.726562 79.554688 337.550781 C 82.011719 339.375 84.515625 341.136719 87.0625 342.839844 C 89.605469 344.539062 92.191406 346.175781 94.820312 347.75 C 97.445312 349.324219 100.109375 350.835938 102.808594 352.277344 C 105.507812 353.722656 108.242188 355.097656 111.011719 356.40625 C 113.777344 357.714844 116.578125 358.957031 119.40625 360.128906 C 122.234375 361.300781 125.089844 362.402344 127.972656 363.433594 C 130.855469 364.464844 133.761719 365.425781 136.691406 366.3125 C 139.621094 367.203125 142.574219 368.019531 145.542969 368.761719 C 148.511719 369.507812 151.5 370.175781 154.503906 370.773438 C 157.503906 371.371094 160.519531 371.894531 163.550781 372.34375 C 166.578125 372.792969 169.617188 373.167969 172.664062 373.46875 C 175.710938 373.769531 178.761719 373.992188 181.820312 374.144531 C 184.878906 374.292969 187.9375 374.367188 191 374.367188 C 193.542969 374.367188 196.085938 374.3125 198.625 374.207031 C 201.167969 374.101562 203.703125 373.945312 206.238281 373.734375 C 208.773438 373.527344 211.300781 373.265625 213.824219 372.953125 C 216.347656 372.640625 218.863281 372.277344 221.375 371.863281 C 223.882812 371.449219 226.382812 370.984375 228.871094 370.46875 C 231.359375 369.953125 233.839844 369.382812 236.304688 368.765625 C 238.773438 368.148438 241.226562 367.480469 243.664062 366.765625 C 246.105469 366.046875 248.527344 365.277344 250.9375 364.460938 C 253.34375 363.644531 255.734375 362.78125 258.105469 361.867188 C 260.480469 360.953125 262.832031 359.992188 265.167969 358.980469 C 267.5 357.972656 269.8125 356.914062 272.101562 355.8125 C 274.394531 354.707031 276.660156 353.554688 278.90625 352.359375 C 281.148438 351.164062 283.367188 349.921875 285.558594 348.632812 C 287.753906 347.347656 289.917969 346.015625 292.058594 344.640625 C 294.195312 343.265625 296.304688 341.847656 298.386719 340.386719 C 300.46875 338.925781 302.519531 337.421875 304.539062 335.875 C 306.558594 334.332031 308.542969 332.746094 310.5 331.121094 C 312.453125 329.492188 314.375 327.828125 316.261719 326.125 C 318.148438 324.421875 320 322.679688 321.816406 320.898438 C 323.632812 319.117188 325.410156 317.300781 327.152344 315.449219 C 328.894531 313.597656 330.597656 311.710938 332.265625 309.789062 C 333.929688 307.867188 335.554688 305.910156 337.140625 303.921875 C 338.726562 301.9375 340.269531 299.917969 341.773438 297.863281 C 343.277344 295.8125 344.734375 293.734375 346.15625 291.621094 C 347.574219 289.511719 348.945312 287.375 350.277344 285.207031 C 351.609375 283.039062 352.894531 280.847656 354.136719 278.628906 C 355.378906 276.410156 356.574219 274.164062 357.722656 271.898438 C 358.875 269.628906 359.976562 267.339844 361.035156 265.027344 C 362.089844 262.714844 363.101562 260.378906 364.0625 258.027344 C 365.023438 255.671875 365.9375 253.300781 366.800781 250.910156 C 367.664062 248.519531 368.480469 246.109375 369.246094 243.683594 C 370.015625 241.261719 370.730469 238.820312 371.398438 236.367188 C 365.046875 237.210938 358.667969 237.644531 352.257812 237.675781 C 349.785156 237.675781 347.3125 237.613281 344.839844 237.492188 C 342.371094 237.371094 339.902344 237.191406 337.441406 236.945312 C 334.980469 236.703125 332.523438 236.402344 330.078125 236.039062 C 327.628906 235.675781 325.191406 235.253906 322.765625 234.769531 C 320.339844 234.289062 317.925781 233.746094 315.527344 233.144531 C 313.125 232.542969 310.742188 231.882812 308.375 231.164062 C 306.007812 230.445312 303.65625 229.671875 301.328125 228.835938 C 299 228.003906 296.691406 227.113281 294.40625 226.167969 C 292.121094 225.21875 289.859375 224.21875 287.621094 223.160156 C 285.386719 222.101562 283.175781 220.992188 280.992188 219.824219 C 278.8125 218.65625 276.660156 217.4375 274.539062 216.167969 C 272.414062 214.894531 270.324219 213.570312 268.269531 212.195312 C 266.210938 210.820312 264.1875 209.398438 262.203125 207.925781 C 260.214844 206.449219 258.265625 204.929688 256.351562 203.359375 C 254.4375 201.789062 252.566406 200.171875 250.734375 198.511719 C 248.898438 196.851562 247.109375 195.144531 245.359375 193.394531 C 243.609375 191.644531 241.902344 189.855469 240.242188 188.023438 C 238.582031 186.1875 236.964844 184.316406 235.394531 182.402344 C 233.824219 180.492188 232.304688 178.539062 230.832031 176.554688 C 229.355469 174.566406 227.933594 172.542969 226.558594 170.488281 C 225.183594 168.429688 223.859375 166.339844 222.589844 164.21875 C 221.316406 162.09375 220.097656 159.941406 218.929688 157.761719 C 217.765625 155.578125 216.652344 153.371094 215.59375 151.132812 C 214.535156 148.898438 213.535156 146.636719 212.585938 144.347656 C 211.640625 142.0625 210.75 139.757812 209.917969 137.425781 C 209.082031 135.097656 208.308594 132.75 207.589844 130.378906 C 206.871094 128.011719 206.210938 125.628906 205.609375 123.230469 C 205.007812 120.828125 204.46875 118.414062 203.984375 115.988281 C 203.5 113.5625 203.078125 111.125 202.714844 108.679688 C 202.351562 106.230469 202.050781 103.777344 201.808594 101.3125 C 201.566406 98.851562 201.382812 96.386719 201.261719 93.914062 C 201.140625 91.441406 201.078125 88.96875 201.078125 86.496094 C 201.085938 79.160156 201.625 71.863281 202.691406 64.605469 C 203.761719 57.347656 205.351562 50.207031 207.457031 43.179688 C 209.566406 36.152344 212.171875 29.316406 215.277344 22.667969 C 218.378906 16.019531 221.949219 9.632812 225.984375 3.507812 C 214.425781 1.300781 202.765625 0.199219 191 0.195312 Z M 191 0.195312 " fill-opacity="1" fill-rule="nonzero"/></g></svg>