<svg id="Layer_1" data-name="Layer 1" xmlns="http://www.w3.org/2000/svg" viewBox="0 0 402.59 233.25"><defs><style>.cls-1{fill:#c6e0f7;}</style></defs><path class="cls-1" d="M196.78,133.37c-1.46,0-2.93,0-4.39.11s-2.93.18-4.39.33-2.91.32-4.36.53-2.89.47-4.33.75-2.87.61-4.29,1-2.84.75-4.24,1.17-2.79.88-4.17,1.38-2.75,1-4.1,1.58-2.69,1.15-4,1.78-2.63,1.29-3.93,2-2.57,1.41-3.82,2.16-2.5,1.54-3.72,2.35-2.41,1.66-3.59,2.53-2.33,1.78-3.47,2.71-2.24,1.89-3.33,2.87-2.14,2-3.18,3-2,2.1-3,3.18-1.94,2.2-2.87,3.33-1.83,2.29-2.71,3.47-1.71,2.37-2.53,3.59-1.59,2.45-2.35,3.71-1.47,2.53-2.17,3.83-1.34,2.6-2,3.92-1.22,2.67-1.79,4-1.08,2.72-1.57,4.1-1,2.77-1.38,4.17-.82,2.81-1.18,4.24-.67,2.85-1,4.29-.54,2.88-.76,4.33-.39,2.9-.53,4.36-.25,2.92-.32,4.38-.11,2.93-.11,4.39a88.61,88.61,0,0,0,.61,9.91c-33.78,6.07-59.12,33.34-59.12,66.27,0,37.42,32.7,67.54,73.34,67.54H383.74c37.42,0,67.55-28,67.55-62.78,0-34.55-29.75-62.4-66.85-62.75-.3-2.32-.69-4.62-1.19-6.9s-1.11-4.53-1.82-6.76-1.5-4.41-2.41-6.57-1.9-4.26-3-6.32-2.28-4.08-3.55-6-2.64-3.86-4.09-5.69-3-3.6-4.57-5.29-3.29-3.32-5.05-4.86-3.56-3-5.45-4.39-3.83-2.67-5.83-3.87-4.06-2.32-6.15-3.34-4.25-1.94-6.44-2.77-4.4-1.55-6.65-2.17-4.53-1.15-6.83-1.57-4.6-.73-6.93-.95-4.66-.31-7-.31a77.61,77.61,0,0,0-32,6.95,89.32,89.32,0,0,0-14.14-19.36,89.49,89.49,0,0,0-8.88-8.09,91.5,91.5,0,0,0-9.89-6.83,89.11,89.11,0,0,0-10.72-5.44,89.75,89.75,0,0,0-35.11-7.17Z" transform="translate(-48.71 -133.37)"/></svg>