<svg xmlns="http://www.w3.org/2000/svg" xmlns:xlink="http://www.w3.org/1999/xlink" width="500" zoomAndPan="magnify" viewBox="0 0 375 374.999991" height="500" preserveAspectRatio="xMidYMid meet" version="1.0"><path fill="#86a3bf" d="M 184.113281 87.425781 C 183.011719 87.425781 181.914062 87.453125 180.816406 87.507812 C 179.71875 87.5625 178.621094 87.644531 177.527344 87.75 C 176.433594 87.859375 175.34375 87.992188 174.253906 88.15625 C 173.167969 88.316406 172.085938 88.503906 171.007812 88.71875 C 169.929688 88.933594 168.855469 89.171875 167.789062 89.441406 C 166.722656 89.707031 165.664062 90 164.613281 90.320312 C 163.5625 90.640625 162.515625 90.984375 161.480469 91.355469 C 160.445312 91.722656 159.421875 92.121094 158.40625 92.539062 C 157.390625 92.960938 156.386719 93.40625 155.390625 93.875 C 154.398438 94.34375 153.417969 94.839844 152.445312 95.359375 C 151.476562 95.875 150.519531 96.417969 149.578125 96.980469 C 148.636719 97.546875 147.707031 98.136719 146.792969 98.746094 C 145.878906 99.355469 144.980469 99.988281 144.097656 100.644531 C 143.214844 101.296875 142.347656 101.972656 141.496094 102.671875 C 140.648438 103.367188 139.816406 104.085938 139 104.824219 C 138.1875 105.5625 137.390625 106.320312 136.613281 107.097656 C 135.835938 107.875 135.078125 108.671875 134.339844 109.484375 C 133.601562 110.296875 132.882812 111.128906 132.1875 111.980469 C 131.488281 112.828125 130.8125 113.695312 130.15625 114.578125 C 129.503906 115.460938 128.871094 116.359375 128.257812 117.273438 C 127.648438 118.1875 127.0625 119.117188 126.496094 120.058594 C 125.929688 121 125.386719 121.957031 124.871094 122.925781 C 124.351562 123.894531 123.859375 124.875 123.386719 125.871094 C 122.917969 126.863281 122.472656 127.867188 122.050781 128.882812 C 121.632812 129.898438 121.234375 130.921875 120.867188 131.957031 C 120.496094 132.992188 120.148438 134.035156 119.832031 135.089844 C 119.511719 136.140625 119.21875 137.199219 118.953125 138.265625 C 118.683594 139.332031 118.445312 140.402344 118.230469 141.480469 C 118.015625 142.558594 117.828125 143.640625 117.664062 144.726562 C 117.503906 145.816406 117.371094 146.90625 117.261719 148 C 117.15625 149.09375 117.074219 150.1875 117.019531 151.285156 C 116.964844 152.382812 116.9375 153.484375 116.9375 154.582031 C 116.953125 157.066406 117.105469 159.546875 117.398438 162.015625 C 92.0625 166.5625 73.054688 187.019531 73.054688 211.714844 C 73.054688 239.777344 97.585938 262.363281 128.0625 262.363281 L 324.332031 262.363281 C 352.398438 262.363281 374.996094 241.367188 374.996094 215.285156 C 374.996094 189.367188 352.679688 168.480469 324.855469 168.222656 C 324.632812 166.484375 324.335938 164.761719 323.960938 163.050781 C 323.585938 161.339844 323.132812 159.648438 322.601562 157.976562 C 322.074219 156.308594 321.46875 154.667969 320.792969 153.050781 C 320.117188 151.433594 319.367188 149.855469 318.546875 148.304688 C 317.726562 146.757812 316.839844 145.25 315.882812 143.785156 C 314.925781 142.316406 313.90625 140.894531 312.820312 139.519531 C 311.734375 138.144531 310.589844 136.820312 309.386719 135.546875 C 308.179688 134.277344 306.921875 133.0625 305.605469 131.902344 C 304.292969 130.746094 302.929688 129.648438 301.515625 128.613281 C 300.101562 127.578125 298.644531 126.609375 297.140625 125.707031 C 295.640625 124.804688 294.101562 123.96875 292.527344 123.207031 C 290.949219 122.441406 289.339844 121.75 287.703125 121.132812 C 286.0625 120.511719 284.398438 119.96875 282.710938 119.5 C 281.023438 119.03125 279.316406 118.640625 277.59375 118.324219 C 275.871094 118.011719 274.136719 117.773438 272.390625 117.617188 C 270.648438 117.457031 268.898438 117.378906 267.144531 117.378906 C 263.011719 117.382812 258.921875 117.828125 254.878906 118.703125 C 250.839844 119.582031 246.933594 120.878906 243.167969 122.585938 C 241.734375 119.941406 240.128906 117.402344 238.351562 114.972656 C 236.578125 112.539062 234.648438 110.238281 232.5625 108.070312 C 230.476562 105.898438 228.253906 103.875 225.898438 102.003906 C 223.539062 100.128906 221.066406 98.425781 218.480469 96.882812 C 215.894531 95.34375 213.214844 93.984375 210.445312 92.804688 C 207.675781 91.625 204.839844 90.632812 201.933594 89.835938 C 199.03125 89.035156 196.089844 88.4375 193.105469 88.03125 C 190.121094 87.628906 187.125 87.429688 184.113281 87.425781 Z M 184.113281 87.425781 " fill-opacity="1" fill-rule="nonzero"/><path fill="#c6e0f7" d="M 111.085938 112.699219 C 109.984375 112.699219 108.886719 112.726562 107.789062 112.78125 C 106.691406 112.832031 105.59375 112.914062 104.5 113.023438 C 103.40625 113.128906 102.316406 113.265625 101.226562 113.425781 C 100.140625 113.585938 99.058594 113.773438 97.980469 113.988281 C 96.902344 114.203125 95.828125 114.445312 94.761719 114.710938 C 93.695312 114.980469 92.636719 115.273438 91.585938 115.589844 C 90.535156 115.910156 89.488281 116.253906 88.453125 116.625 C 87.417969 116.996094 86.394531 117.390625 85.378906 117.8125 C 84.363281 118.230469 83.359375 118.675781 82.363281 119.148438 C 81.371094 119.617188 80.390625 120.109375 79.417969 120.628906 C 78.449219 121.148438 77.492188 121.6875 76.550781 122.253906 C 75.609375 122.820312 74.679688 123.40625 73.765625 124.015625 C 72.851562 124.628906 71.953125 125.261719 71.070312 125.914062 C 70.1875 126.570312 69.320312 127.246094 68.46875 127.941406 C 67.621094 128.640625 66.789062 129.359375 65.972656 130.097656 C 65.160156 130.832031 64.363281 131.589844 63.585938 132.367188 C 62.808594 133.144531 62.050781 133.941406 61.3125 134.753906 C 60.574219 135.570312 59.855469 136.402344 59.160156 137.25 C 58.460938 138.101562 57.785156 138.96875 57.128906 139.851562 C 56.476562 140.734375 55.84375 141.632812 55.230469 142.542969 C 54.621094 143.457031 54.035156 144.386719 53.46875 145.328125 C 52.902344 146.273438 52.363281 147.226562 51.84375 148.199219 C 51.324219 149.167969 50.832031 150.148438 50.359375 151.140625 C 49.890625 152.136719 49.445312 153.140625 49.023438 154.15625 C 48.605469 155.171875 48.207031 156.195312 47.839844 157.230469 C 47.46875 158.265625 47.121094 159.308594 46.804688 160.359375 C 46.484375 161.410156 46.191406 162.46875 45.925781 163.535156 C 45.65625 164.601562 45.417969 165.675781 45.203125 166.753906 C 44.988281 167.828125 44.800781 168.914062 44.636719 170 C 44.476562 171.085938 44.34375 172.175781 44.234375 173.269531 C 44.128906 174.363281 44.046875 175.460938 43.992188 176.558594 C 43.9375 177.65625 43.910156 178.753906 43.910156 179.851562 C 43.925781 182.339844 44.078125 184.816406 44.371094 187.285156 C 19.035156 191.835938 0.0273438 212.289062 0.0273438 236.988281 C 0.0273438 265.046875 24.558594 287.636719 55.035156 287.636719 L 251.304688 287.636719 C 279.371094 287.636719 301.96875 266.640625 301.96875 240.558594 C 301.96875 214.640625 279.652344 193.753906 251.828125 193.492188 C 251.605469 191.753906 251.308594 190.03125 250.933594 188.320312 C 250.558594 186.609375 250.105469 184.917969 249.574219 183.25 C 249.046875 181.578125 248.445312 179.9375 247.765625 178.320312 C 247.089844 176.707031 246.339844 175.125 245.519531 173.578125 C 244.699219 172.03125 243.8125 170.523438 242.855469 169.054688 C 241.898438 167.585938 240.878906 166.164062 239.792969 164.789062 C 238.707031 163.414062 237.5625 162.09375 236.359375 160.820312 C 235.152344 159.546875 233.894531 158.332031 232.578125 157.175781 C 231.265625 156.015625 229.902344 154.921875 228.488281 153.886719 C 227.074219 152.851562 225.617188 151.882812 224.113281 150.980469 C 222.613281 150.074219 221.074219 149.242188 219.5 148.476562 C 217.921875 147.714844 216.3125 147.023438 214.675781 146.402344 C 213.035156 145.785156 211.371094 145.238281 209.683594 144.769531 C 207.996094 144.300781 206.289062 143.910156 204.566406 143.597656 C 202.84375 143.28125 201.109375 143.046875 199.363281 142.886719 C 197.621094 142.730469 195.871094 142.648438 194.117188 142.648438 C 189.984375 142.65625 185.894531 143.097656 181.851562 143.976562 C 177.8125 144.855469 173.90625 146.148438 170.140625 147.859375 C 168.707031 145.210938 167.101562 142.671875 165.324219 140.242188 C 163.550781 137.8125 161.621094 135.511719 159.535156 133.339844 C 157.449219 131.167969 155.226562 129.148438 152.871094 127.273438 C 150.511719 125.402344 148.039062 123.695312 145.453125 122.15625 C 142.867188 120.617188 140.1875 119.253906 137.417969 118.074219 C 134.648438 116.894531 131.8125 115.90625 128.90625 115.105469 C 126.003906 114.308594 123.0625 113.707031 120.078125 113.304688 C 117.09375 112.902344 114.097656 112.699219 111.085938 112.699219 Z M 111.085938 112.699219 " fill-opacity="1" fill-rule="nonzero"/></svg>