<svg xmlns="http://www.w3.org/2000/svg" xmlns:xlink="http://www.w3.org/1999/xlink" width="500" zoomAndPan="magnify" viewBox="0 0 375 374.999991" height="500" preserveAspectRatio="xMidYMid meet" version="1.0"><path fill="#86a3bf" d="M 184.113281 48.816406 C 183.011719 48.816406 181.914062 48.84375 180.816406 48.898438 C 179.71875 48.949219 178.621094 49.03125 177.527344 49.140625 C 176.433594 49.246094 175.34375 49.382812 174.253906 49.542969 C 173.167969 49.703125 172.085938 49.894531 171.007812 50.109375 C 169.929688 50.320312 168.855469 50.5625 167.789062 50.832031 C 166.722656 51.097656 165.664062 51.390625 164.613281 51.710938 C 163.5625 52.03125 162.515625 52.375 161.480469 52.746094 C 160.445312 53.117188 159.421875 53.511719 158.40625 53.933594 C 157.390625 54.355469 156.386719 54.800781 155.390625 55.269531 C 154.398438 55.742188 153.417969 56.234375 152.445312 56.753906 C 151.476562 57.273438 150.519531 57.816406 149.578125 58.378906 C 148.636719 58.945312 147.707031 59.535156 146.792969 60.144531 C 145.878906 60.757812 144.980469 61.390625 144.097656 62.046875 C 143.214844 62.699219 142.347656 63.378906 141.496094 64.074219 C 140.648438 64.773438 139.816406 65.492188 139 66.230469 C 138.1875 66.96875 137.390625 67.726562 136.613281 68.503906 C 135.835938 69.285156 135.078125 70.082031 134.339844 70.894531 C 133.601562 71.710938 132.882812 72.542969 132.1875 73.394531 C 131.488281 74.246094 130.8125 75.109375 130.15625 75.996094 C 129.503906 76.878906 128.871094 77.777344 128.257812 78.691406 C 127.648438 79.605469 127.0625 80.535156 126.496094 81.480469 C 125.929688 82.421875 125.386719 83.378906 124.871094 84.351562 C 124.351562 85.320312 123.859375 86.304688 123.386719 87.296875 C 122.917969 88.292969 122.472656 89.296875 122.050781 90.316406 C 121.632812 91.332031 121.234375 92.355469 120.867188 93.394531 C 120.496094 94.429688 120.148438 95.472656 119.832031 96.527344 C 119.511719 97.578125 119.21875 98.640625 118.953125 99.707031 C 118.683594 100.773438 118.445312 101.847656 118.230469 102.925781 C 118.015625 104.003906 117.828125 105.089844 117.664062 106.175781 C 117.503906 107.265625 117.371094 108.355469 117.261719 109.449219 C 117.15625 110.546875 117.074219 111.640625 117.019531 112.742188 C 116.964844 113.839844 116.9375 114.941406 116.9375 116.039062 C 116.953125 118.527344 117.105469 121.007812 117.398438 123.480469 C 92.0625 128.035156 73.054688 148.511719 73.054688 173.234375 C 73.054688 201.324219 97.585938 223.9375 128.0625 223.9375 L 324.332031 223.9375 C 352.398438 223.9375 374.996094 202.917969 374.996094 176.808594 C 374.996094 150.863281 352.679688 129.953125 324.855469 129.695312 C 324.632812 127.953125 324.335938 126.230469 323.960938 124.515625 C 323.585938 122.804688 323.132812 121.113281 322.601562 119.441406 C 322.074219 117.769531 321.46875 116.125 320.792969 114.507812 C 320.117188 112.890625 319.367188 111.308594 318.546875 109.757812 C 317.726562 108.207031 316.839844 106.699219 315.882812 105.230469 C 314.925781 103.761719 313.90625 102.339844 312.820312 100.960938 C 311.734375 99.585938 310.589844 98.261719 309.386719 96.988281 C 308.179688 95.714844 306.921875 94.496094 305.605469 93.339844 C 304.292969 92.179688 302.929688 91.082031 301.515625 90.046875 C 300.101562 89.007812 298.644531 88.039062 297.140625 87.136719 C 295.640625 86.230469 294.101562 85.394531 292.527344 84.632812 C 290.949219 83.867188 289.339844 83.175781 287.703125 82.554688 C 286.0625 81.933594 284.398438 81.390625 282.710938 80.921875 C 281.023438 80.453125 279.316406 80.058594 277.59375 79.746094 C 275.871094 79.429688 274.136719 79.191406 272.390625 79.035156 C 270.648438 78.878906 268.898438 78.796875 267.144531 78.796875 C 263.011719 78.804688 258.921875 79.246094 254.878906 80.125 C 250.839844 81.003906 246.933594 82.300781 243.167969 84.011719 C 241.734375 81.363281 240.128906 78.820312 238.351562 76.386719 C 236.578125 73.957031 234.648438 71.652344 232.5625 69.476562 C 230.476562 67.304688 228.253906 65.28125 225.898438 63.40625 C 223.539062 61.53125 221.066406 59.824219 218.480469 58.28125 C 215.894531 56.738281 213.214844 55.378906 210.445312 54.199219 C 207.675781 53.015625 204.839844 52.027344 201.933594 51.226562 C 199.03125 50.425781 196.089844 49.824219 193.105469 49.421875 C 190.121094 49.015625 187.125 48.816406 184.113281 48.816406 Z M 184.113281 48.816406 " fill-opacity="1" fill-rule="nonzero"/><path fill="#c6e0f7" d="M 111.085938 74.113281 C 109.984375 74.113281 108.886719 74.140625 107.789062 74.195312 C 106.691406 74.25 105.59375 74.328125 104.5 74.4375 C 103.40625 74.546875 102.316406 74.679688 101.226562 74.839844 C 100.140625 75.003906 99.058594 75.191406 97.980469 75.40625 C 96.902344 75.621094 95.828125 75.859375 94.761719 76.128906 C 93.695312 76.394531 92.636719 76.6875 91.585938 77.007812 C 90.535156 77.328125 89.488281 77.671875 88.453125 78.042969 C 87.417969 78.414062 86.394531 78.808594 85.378906 79.230469 C 84.363281 79.652344 83.359375 80.097656 82.363281 80.566406 C 81.371094 81.039062 80.390625 81.53125 79.417969 82.050781 C 78.449219 82.570312 77.492188 83.113281 76.550781 83.679688 C 75.609375 84.242188 74.679688 84.832031 73.765625 85.441406 C 72.851562 86.054688 71.953125 86.6875 71.070312 87.34375 C 70.1875 88 69.320312 88.675781 68.46875 89.375 C 67.621094 90.070312 66.789062 90.789062 65.972656 91.527344 C 65.160156 92.265625 64.363281 93.027344 63.585938 93.804688 C 62.808594 94.582031 62.050781 95.378906 61.3125 96.191406 C 60.574219 97.007812 59.855469 97.839844 59.160156 98.691406 C 58.460938 99.542969 57.785156 100.410156 57.128906 101.292969 C 56.476562 102.175781 55.84375 103.074219 55.230469 103.992188 C 54.621094 104.90625 54.035156 105.835938 53.46875 106.777344 C 52.902344 107.722656 52.363281 108.679688 51.84375 109.648438 C 51.324219 110.617188 50.832031 111.601562 50.359375 112.597656 C 49.890625 113.589844 49.445312 114.597656 49.023438 115.613281 C 48.605469 116.628906 48.207031 117.65625 47.839844 118.691406 C 47.46875 119.726562 47.121094 120.769531 46.804688 121.824219 C 46.484375 122.875 46.191406 123.9375 45.925781 125.003906 C 45.65625 126.070312 45.417969 127.144531 45.203125 128.222656 C 44.988281 129.300781 44.800781 130.386719 44.636719 131.472656 C 44.476562 132.5625 44.34375 133.652344 44.234375 134.75 C 44.128906 135.84375 44.046875 136.941406 43.992188 138.039062 C 43.9375 139.136719 43.910156 140.238281 43.910156 141.335938 C 43.925781 143.828125 44.078125 146.308594 44.371094 148.777344 C 19.035156 153.332031 0.0273438 173.808594 0.0273438 198.53125 C 0.0273438 226.621094 24.558594 249.234375 55.035156 249.234375 L 251.304688 249.234375 C 279.371094 249.234375 301.96875 228.214844 301.96875 202.105469 C 301.96875 176.160156 279.652344 155.253906 251.828125 154.992188 C 251.605469 153.253906 251.308594 151.527344 250.933594 149.8125 C 250.558594 148.101562 250.105469 146.410156 249.574219 144.738281 C 249.046875 143.066406 248.445312 141.421875 247.765625 139.804688 C 247.089844 138.1875 246.339844 136.605469 245.519531 135.054688 C 244.699219 133.507812 243.8125 131.996094 242.855469 130.527344 C 241.898438 129.058594 240.878906 127.636719 239.792969 126.257812 C 238.707031 124.882812 237.5625 123.558594 236.359375 122.285156 C 235.152344 121.011719 233.894531 119.796875 232.578125 118.636719 C 231.265625 117.476562 229.902344 116.378906 228.488281 115.34375 C 227.074219 114.308594 225.617188 113.335938 224.113281 112.433594 C 222.613281 111.527344 221.074219 110.695312 219.5 109.929688 C 217.921875 109.164062 216.3125 108.472656 214.675781 107.851562 C 213.035156 107.234375 211.371094 106.6875 209.683594 106.21875 C 207.996094 105.75 206.289062 105.359375 204.566406 105.042969 C 202.84375 104.726562 201.109375 104.492188 199.363281 104.332031 C 197.621094 104.175781 195.871094 104.09375 194.117188 104.09375 C 189.984375 104.101562 185.894531 104.542969 181.851562 105.421875 C 177.8125 106.300781 173.90625 107.597656 170.140625 109.308594 C 168.707031 106.660156 167.101562 104.121094 165.324219 101.6875 C 163.550781 99.253906 161.621094 96.949219 159.535156 94.777344 C 157.449219 92.601562 155.226562 90.578125 152.871094 88.703125 C 150.511719 86.828125 148.039062 85.121094 145.453125 83.578125 C 142.867188 82.039062 140.1875 80.675781 137.417969 79.496094 C 134.648438 78.3125 131.8125 77.324219 128.90625 76.523438 C 126.003906 75.722656 123.0625 75.121094 120.078125 74.71875 C 117.09375 74.316406 114.097656 74.113281 111.085938 74.113281 Z M 111.085938 74.113281 " fill-opacity="1" fill-rule="nonzero"/><path fill="#3981bf" d="M 78.664062 217.335938 C 73.558594 223.097656 59.75 234.636719 55.582031 250.347656 C 55.347656 251.21875 55.203125 252.105469 55.144531 253.007812 C 55.082031 253.910156 55.113281 254.808594 55.230469 255.707031 C 55.347656 256.601562 55.554688 257.480469 55.84375 258.335938 C 56.132812 259.191406 56.503906 260.011719 56.957031 260.792969 C 57.40625 261.578125 57.933594 262.308594 58.527344 262.988281 C 59.121094 263.667969 59.777344 264.28125 60.496094 264.832031 C 61.210938 265.382812 61.976562 265.859375 62.785156 266.257812 C 63.597656 266.65625 64.4375 266.976562 65.308594 267.207031 C 66.183594 267.441406 67.070312 267.589844 67.972656 267.648438 C 68.871094 267.707031 69.769531 267.679688 70.667969 267.558594 C 71.5625 267.441406 72.4375 267.238281 73.292969 266.945312 C 74.148438 266.65625 74.96875 266.285156 75.75 265.832031 C 76.53125 265.382812 77.261719 264.855469 77.941406 264.261719 C 78.621094 263.664062 79.234375 263.007812 79.785156 262.292969 C 80.335938 261.574219 80.808594 260.808594 81.210938 260 C 81.609375 259.1875 81.925781 258.347656 82.160156 257.472656 C 82.191406 257.359375 82.21875 257.246094 82.246094 257.128906 C 86.519531 240.628906 80.195312 224.824219 78.664062 217.335938 Z M 78.664062 217.335938 " fill-opacity="1" fill-rule="nonzero"/><path fill="#3981bf" d="M 141.554688 217.335938 C 136.453125 223.097656 122.640625 234.636719 118.476562 250.347656 C 118.242188 251.21875 118.09375 252.105469 118.035156 253.007812 C 117.976562 253.910156 118.003906 254.808594 118.125 255.707031 C 118.242188 256.601562 118.445312 257.480469 118.734375 258.335938 C 119.027344 259.191406 119.398438 260.011719 119.847656 260.792969 C 120.300781 261.578125 120.824219 262.308594 121.421875 262.988281 C 122.015625 263.667969 122.671875 264.28125 123.386719 264.832031 C 124.105469 265.382812 124.867188 265.859375 125.679688 266.257812 C 126.488281 266.65625 127.332031 266.976562 128.203125 267.207031 C 129.074219 267.441406 129.960938 267.589844 130.863281 267.648438 C 131.765625 267.707031 132.664062 267.679688 133.558594 267.558594 C 134.453125 267.441406 135.332031 267.238281 136.1875 266.945312 C 137.042969 266.65625 137.859375 266.285156 138.640625 265.832031 C 139.425781 265.382812 140.15625 264.855469 140.835938 264.261719 C 141.515625 263.664062 142.128906 263.007812 142.679688 262.292969 C 143.226562 261.574219 143.703125 260.808594 144.101562 260 C 144.503906 259.1875 144.820312 258.347656 145.050781 257.472656 C 145.082031 257.359375 145.113281 257.246094 145.140625 257.128906 C 149.414062 240.628906 143.085938 224.824219 141.554688 217.335938 Z M 141.554688 217.335938 " fill-opacity="1" fill-rule="nonzero"/><path fill="#3981bf" d="M 204.550781 219.019531 C 199.449219 224.777344 185.636719 236.316406 181.46875 252.027344 C 181.238281 252.902344 181.089844 253.789062 181.03125 254.691406 C 180.972656 255.59375 181 256.492188 181.121094 257.386719 C 181.238281 258.285156 181.441406 259.160156 181.730469 260.015625 C 182.023438 260.871094 182.394531 261.691406 182.84375 262.476562 C 183.296875 263.257812 183.820312 263.988281 184.414062 264.667969 C 185.011719 265.347656 185.667969 265.964844 186.382812 266.515625 C 187.101562 267.0625 187.863281 267.539062 188.675781 267.9375 C 189.484375 268.339844 190.324219 268.65625 191.199219 268.890625 C 192.070312 269.125 192.957031 269.269531 193.859375 269.328125 C 194.761719 269.386719 195.660156 269.359375 196.554688 269.242188 C 197.449219 269.125 198.324219 268.917969 199.179688 268.628906 C 200.035156 268.335938 200.855469 267.964844 201.636719 267.515625 C 202.421875 267.0625 203.152344 266.539062 203.832031 265.941406 C 204.507812 265.347656 205.125 264.6875 205.675781 263.972656 C 206.222656 263.253906 206.699219 262.492188 207.097656 261.679688 C 207.496094 260.871094 207.8125 260.027344 208.046875 259.152344 C 208.078125 259.039062 208.109375 258.925781 208.136719 258.808594 C 212.40625 242.3125 206.082031 226.507812 204.550781 219.019531 Z M 204.550781 219.019531 " fill-opacity="1" fill-rule="nonzero"/><path fill="#3981bf" d="M 110.160156 274.65625 C 105.058594 280.414062 91.246094 291.957031 87.078125 307.664062 C 86.847656 308.539062 86.699219 309.425781 86.640625 310.328125 C 86.582031 311.230469 86.609375 312.128906 86.730469 313.023438 C 86.847656 313.921875 87.050781 314.796875 87.339844 315.652344 C 87.632812 316.507812 88.003906 317.328125 88.453125 318.113281 C 88.90625 318.894531 89.429688 319.625 90.023438 320.304688 C 90.621094 320.984375 91.277344 321.601562 91.992188 322.152344 C 92.710938 322.703125 93.472656 323.175781 94.285156 323.578125 C 95.09375 323.976562 95.933594 324.292969 96.808594 324.527344 C 97.679688 324.761719 98.566406 324.90625 99.46875 324.964844 C 100.371094 325.027344 101.269531 324.996094 102.164062 324.878906 C 103.058594 324.761719 103.9375 324.554688 104.792969 324.265625 C 105.644531 323.976562 106.464844 323.601562 107.246094 323.152344 C 108.03125 322.699219 108.761719 322.175781 109.441406 321.578125 C 110.117188 320.984375 110.734375 320.328125 111.285156 319.609375 C 111.832031 318.890625 112.308594 318.128906 112.707031 317.316406 C 113.105469 316.507812 113.425781 315.664062 113.65625 314.792969 C 113.6875 314.675781 113.71875 314.5625 113.746094 314.449219 C 118.015625 297.949219 111.691406 282.144531 110.160156 274.65625 Z M 110.160156 274.65625 " fill-opacity="1" fill-rule="nonzero"/><path fill="#3981bf" d="M 173.054688 274.65625 C 167.949219 280.414062 154.140625 291.957031 149.972656 307.664062 C 149.738281 308.539062 149.59375 309.425781 149.535156 310.328125 C 149.472656 311.230469 149.503906 312.128906 149.621094 313.023438 C 149.738281 313.921875 149.945312 314.796875 150.234375 315.652344 C 150.523438 316.507812 150.894531 317.328125 151.347656 318.113281 C 151.796875 318.894531 152.324219 319.625 152.917969 320.304688 C 153.511719 320.984375 154.167969 321.601562 154.886719 322.152344 C 155.601562 322.703125 156.367188 323.175781 157.175781 323.578125 C 157.988281 323.976562 158.828125 324.292969 159.699219 324.527344 C 160.574219 324.761719 161.460938 324.90625 162.363281 324.964844 C 163.261719 325.027344 164.160156 324.996094 165.058594 324.878906 C 165.953125 324.761719 166.828125 324.554688 167.683594 324.265625 C 168.539062 323.976562 169.359375 323.605469 170.140625 323.152344 C 170.921875 322.699219 171.652344 322.175781 172.332031 321.578125 C 173.011719 320.984375 173.625 320.328125 174.175781 319.609375 C 174.726562 318.890625 175.199219 318.128906 175.601562 317.316406 C 176 316.507812 176.316406 315.664062 176.550781 314.792969 C 176.582031 314.675781 176.609375 314.5625 176.636719 314.449219 C 180.910156 297.949219 174.585938 282.144531 173.054688 274.65625 Z M 173.054688 274.65625 " fill-opacity="1" fill-rule="nonzero"/></svg>