<svg xmlns="http://www.w3.org/2000/svg" xmlns:xlink="http://www.w3.org/1999/xlink" width="500" zoomAndPan="magnify" viewBox="0 0 375 374.999991" height="500" preserveAspectRatio="xMidYMid meet" version="1.0"><defs><clipPath id="c6876200e9"><path d="M 250 14.660156 L 267 14.660156 L 267 54 L 250 54 Z M 250 14.660156 " clip-rule="nonzero"/></clipPath></defs><path fill="#ffcc00" d="M 317.613281 130.65625 C 317.613281 132.589844 317.515625 134.519531 317.328125 136.445312 C 317.136719 138.371094 316.855469 140.28125 316.476562 142.179688 C 316.101562 144.074219 315.628906 145.949219 315.070312 147.800781 C 314.507812 149.652344 313.855469 151.472656 313.117188 153.257812 C 312.375 155.046875 311.550781 156.792969 310.640625 158.496094 C 309.726562 160.203125 308.734375 161.859375 307.660156 163.46875 C 306.585938 165.078125 305.433594 166.628906 304.207031 168.125 C 302.980469 169.621094 301.683594 171.050781 300.316406 172.417969 C 298.949219 173.789062 297.515625 175.085938 296.023438 176.3125 C 294.527344 177.539062 292.976562 178.691406 291.367188 179.765625 C 289.757812 180.839844 288.101562 181.832031 286.398438 182.746094 C 284.691406 183.65625 282.945312 184.484375 281.160156 185.222656 C 279.371094 185.964844 277.550781 186.613281 275.703125 187.175781 C 273.851562 187.738281 271.976562 188.207031 270.082031 188.585938 C 268.183594 188.960938 266.273438 189.246094 264.347656 189.433594 C 262.421875 189.625 260.496094 189.71875 258.558594 189.71875 C 256.625 189.71875 254.695312 189.625 252.773438 189.433594 C 250.847656 189.246094 248.9375 188.960938 247.039062 188.585938 C 245.144531 188.207031 243.269531 187.738281 241.417969 187.175781 C 239.566406 186.613281 237.75 185.964844 235.960938 185.222656 C 234.175781 184.484375 232.429688 183.65625 230.722656 182.746094 C 229.019531 181.832031 227.359375 180.839844 225.753906 179.765625 C 224.144531 178.691406 222.59375 177.539062 221.097656 176.3125 C 219.601562 175.085938 218.171875 173.789062 216.804688 172.417969 C 215.4375 171.050781 214.140625 169.621094 212.914062 168.125 C 211.6875 166.628906 210.535156 165.078125 209.460938 163.46875 C 208.386719 161.859375 207.394531 160.203125 206.480469 158.496094 C 205.570312 156.792969 204.742188 155.046875 204.003906 153.257812 C 203.261719 151.472656 202.613281 149.652344 202.050781 147.800781 C 201.488281 145.949219 201.019531 144.074219 200.644531 142.179688 C 200.265625 140.28125 199.980469 138.371094 199.792969 136.445312 C 199.601562 134.519531 199.507812 132.589844 199.507812 130.65625 C 199.507812 128.722656 199.601562 126.792969 199.792969 124.867188 C 199.980469 122.941406 200.265625 121.03125 200.644531 119.132812 C 201.019531 117.234375 201.488281 115.359375 202.050781 113.511719 C 202.613281 111.660156 203.261719 109.839844 204.003906 108.050781 C 204.742188 106.265625 205.570312 104.519531 206.480469 102.8125 C 207.394531 101.105469 208.386719 99.449219 209.460938 97.839844 C 210.535156 96.234375 211.6875 94.679688 212.914062 93.183594 C 214.140625 91.691406 215.4375 90.257812 216.804688 88.890625 C 218.171875 87.523438 219.601562 86.226562 221.097656 85 C 222.59375 83.769531 224.144531 82.621094 225.753906 81.546875 C 227.359375 80.46875 229.019531 79.476562 230.722656 78.566406 C 232.429688 77.652344 234.175781 76.828125 235.960938 76.085938 C 237.75 75.347656 239.566406 74.695312 241.417969 74.132812 C 243.269531 73.574219 245.144531 73.105469 247.039062 72.726562 C 248.9375 72.347656 250.847656 72.066406 252.773438 71.875 C 254.695312 71.6875 256.625 71.589844 258.558594 71.589844 C 260.496094 71.589844 262.421875 71.6875 264.347656 71.875 C 266.273438 72.066406 268.183594 72.347656 270.082031 72.726562 C 271.976562 73.105469 273.851562 73.574219 275.703125 74.132812 C 277.554688 74.695312 279.371094 75.347656 281.160156 76.085938 C 282.945312 76.828125 284.691406 77.652344 286.398438 78.566406 C 288.101562 79.476562 289.757812 80.472656 291.367188 81.546875 C 292.976562 82.621094 294.527344 83.769531 296.023438 85 C 297.515625 86.226562 298.949219 87.523438 300.316406 88.890625 C 301.683594 90.257812 302.980469 91.691406 304.207031 93.183594 C 305.433594 94.679688 306.585938 96.234375 307.660156 97.839844 C 308.734375 99.449219 309.726562 101.105469 310.640625 102.8125 C 311.550781 104.519531 312.375 106.265625 313.117188 108.050781 C 313.855469 109.839844 314.507812 111.660156 315.070312 113.511719 C 315.628906 115.359375 316.101562 117.234375 316.476562 119.132812 C 316.855469 121.03125 317.136719 122.941406 317.328125 124.867188 C 317.515625 126.792969 317.613281 128.722656 317.613281 130.65625 Z M 317.613281 130.65625 " fill-opacity="1" fill-rule="nonzero"/><g clip-path="url(#c6876200e9)"><path fill="#ffcc00" d="M 258.558594 14.636719 C 254.277344 14.636719 250.828125 18.773438 250.828125 23.917969 L 250.828125 44.027344 C 250.828125 49.167969 254.277344 53.308594 258.558594 53.308594 C 262.84375 53.308594 266.292969 49.167969 266.292969 44.027344 L 266.292969 23.917969 C 266.292969 18.773438 262.84375 14.636719 258.558594 14.636719 Z M 258.558594 14.636719 " fill-opacity="1" fill-rule="nonzero"/></g><path fill="#ffcc00" d="M 340.582031 48.617188 C 337.550781 45.585938 332.1875 46.074219 328.550781 49.710938 L 314.335938 63.929688 C 310.699219 67.566406 310.210938 72.933594 313.242188 75.964844 C 316.269531 78.992188 321.636719 78.503906 325.269531 74.871094 L 339.488281 60.648438 C 343.125 57.011719 343.609375 51.648438 340.582031 48.617188 Z M 340.582031 48.617188 " fill-opacity="1" fill-rule="nonzero"/><path fill="#ffcc00" d="M 374.554688 130.65625 C 374.554688 126.371094 370.417969 122.921875 365.277344 122.921875 L 345.171875 122.921875 C 340.03125 122.921875 335.890625 126.371094 335.890625 130.65625 C 335.890625 134.941406 340.03125 138.390625 345.171875 138.390625 L 365.277344 138.390625 C 370.417969 138.390625 374.554688 134.941406 374.554688 130.65625 Z M 374.554688 130.65625 " fill-opacity="1" fill-rule="nonzero"/><path fill="#ffcc00" d="M 340.582031 212.695312 C 343.609375 209.664062 343.125 204.296875 339.488281 200.660156 L 325.269531 186.441406 C 321.636719 182.804688 316.269531 182.316406 313.242188 185.347656 C 310.210938 188.378906 310.699219 193.742188 314.335938 197.378906 L 328.550781 211.597656 C 332.1875 215.234375 337.550781 215.722656 340.582031 212.695312 Z M 340.582031 212.695312 " fill-opacity="1" fill-rule="nonzero"/><path fill="#ffcc00" d="M 258.558594 246.675781 C 262.84375 246.675781 266.292969 242.535156 266.292969 237.394531 L 266.292969 217.28125 C 266.292969 212.140625 262.84375 208 258.558594 208 C 254.277344 208 250.828125 212.140625 250.828125 217.28125 L 250.828125 237.394531 C 250.828125 242.535156 254.277344 246.675781 258.558594 246.675781 Z M 258.558594 246.675781 " fill-opacity="1" fill-rule="nonzero"/><path fill="#ffcc00" d="M 176.539062 212.695312 C 179.566406 215.722656 184.933594 215.234375 188.570312 211.597656 L 202.785156 197.378906 C 206.421875 193.742188 206.910156 188.378906 203.878906 185.347656 C 200.851562 182.316406 195.484375 182.804688 191.847656 186.441406 L 177.632812 200.660156 C 173.996094 204.296875 173.507812 209.664062 176.539062 212.695312 Z M 176.539062 212.695312 " fill-opacity="1" fill-rule="nonzero"/><path fill="#ffcc00" d="M 142.5625 130.65625 C 142.5625 134.941406 146.703125 138.390625 151.84375 138.390625 L 171.949219 138.390625 C 177.089844 138.390625 181.230469 134.941406 181.230469 130.65625 C 181.230469 126.371094 177.089844 122.921875 171.949219 122.921875 L 151.84375 122.921875 C 146.703125 122.921875 142.5625 126.371094 142.5625 130.65625 Z M 142.5625 130.65625 " fill-opacity="1" fill-rule="nonzero"/><path fill="#ffcc00" d="M 176.539062 48.617188 C 173.507812 51.648438 173.996094 57.011719 177.632812 60.648438 L 191.847656 74.871094 C 195.484375 78.503906 200.851562 78.992188 203.878906 75.964844 C 206.910156 72.933594 206.421875 67.566406 202.785156 63.929688 L 188.570312 49.710938 C 184.933594 46.074219 179.566406 45.585938 176.539062 48.617188 Z M 176.539062 48.617188 " fill-opacity="1" fill-rule="nonzero"/><path fill="#c6e0f7" d="M 111.792969 107.859375 C 110.691406 107.859375 109.59375 107.886719 108.492188 107.941406 C 107.394531 107.996094 106.296875 108.074219 105.199219 108.183594 C 104.105469 108.292969 103.011719 108.425781 101.925781 108.585938 C 100.835938 108.75 99.75 108.9375 98.671875 109.152344 C 97.59375 109.367188 96.519531 109.609375 95.453125 109.875 C 94.382812 110.144531 93.324219 110.4375 92.269531 110.757812 C 91.21875 111.074219 90.171875 111.421875 89.136719 111.792969 C 88.101562 112.164062 87.074219 112.558594 86.054688 112.980469 C 85.039062 113.402344 84.035156 113.847656 83.039062 114.316406 C 82.042969 114.789062 81.0625 115.285156 80.089844 115.800781 C 79.121094 116.320312 78.164062 116.863281 77.21875 117.429688 C 76.273438 117.996094 75.34375 118.585938 74.429688 119.195312 C 73.515625 119.808594 72.613281 120.441406 71.730469 121.097656 C 70.847656 121.753906 69.980469 122.429688 69.128906 123.128906 C 68.277344 123.828125 67.445312 124.546875 66.628906 125.285156 C 65.8125 126.023438 65.015625 126.78125 64.238281 127.5625 C 63.460938 128.339844 62.703125 129.136719 61.960938 129.953125 C 61.222656 130.769531 60.503906 131.601562 59.804688 132.453125 C 59.109375 133.304688 58.429688 134.171875 57.773438 135.054688 C 57.121094 135.941406 56.484375 136.839844 55.875 137.753906 C 55.261719 138.667969 54.675781 139.601562 54.109375 140.542969 C 53.542969 141.488281 53 142.445312 52.480469 143.417969 C 51.960938 144.386719 51.46875 145.371094 50.996094 146.367188 C 50.527344 147.359375 50.082031 148.367188 49.660156 149.382812 C 49.238281 150.402344 48.84375 151.425781 48.472656 152.464844 C 48.101562 153.5 47.757812 154.546875 47.4375 155.597656 C 47.117188 156.652344 46.824219 157.714844 46.554688 158.78125 C 46.289062 159.847656 46.046875 160.921875 45.832031 162.003906 C 45.617188 163.082031 45.429688 164.167969 45.269531 165.253906 C 45.105469 166.34375 44.972656 167.4375 44.863281 168.53125 C 44.757812 169.628906 44.675781 170.726562 44.621094 171.824219 C 44.566406 172.925781 44.539062 174.023438 44.539062 175.125 C 44.554688 177.617188 44.707031 180.097656 45 182.570312 C 19.636719 187.125 0.605469 207.617188 0.605469 232.355469 C 0.605469 260.460938 25.167969 283.085938 55.675781 283.085938 L 252.175781 283.085938 C 280.277344 283.085938 302.898438 262.054688 302.898438 235.929688 C 302.898438 209.96875 280.554688 189.046875 252.699219 188.789062 C 252.480469 187.046875 252.179688 185.320312 251.804688 183.605469 C 251.425781 181.894531 250.972656 180.199219 250.445312 178.527344 C 249.914062 176.855469 249.3125 175.210938 248.632812 173.589844 C 247.957031 171.972656 247.207031 170.390625 246.382812 168.839844 C 245.5625 167.289062 244.671875 165.777344 243.714844 164.308594 C 242.757812 162.839844 241.738281 161.414062 240.648438 160.039062 C 239.5625 158.660156 238.417969 157.335938 237.210938 156.058594 C 236.003906 154.785156 234.746094 153.570312 233.429688 152.410156 C 232.113281 151.25 230.746094 150.152344 229.332031 149.113281 C 227.917969 148.078125 226.457031 147.105469 224.953125 146.203125 C 223.453125 145.296875 221.910156 144.460938 220.332031 143.695312 C 218.753906 142.929688 217.144531 142.238281 215.503906 141.617188 C 213.863281 141 212.199219 140.453125 210.507812 139.984375 C 208.816406 139.515625 207.109375 139.121094 205.382812 138.808594 C 203.660156 138.492188 201.921875 138.253906 200.175781 138.097656 C 198.429688 137.9375 196.679688 137.859375 194.925781 137.859375 C 190.78125 137.867188 186.691406 138.308594 182.644531 139.1875 C 178.597656 140.066406 174.6875 141.363281 170.917969 143.078125 C 169.484375 140.425781 167.875 137.882812 166.097656 135.449219 C 164.320312 133.015625 162.386719 130.710938 160.296875 128.535156 C 158.210938 126.359375 155.984375 124.335938 153.625 122.457031 C 151.265625 120.582031 148.789062 118.875 146.199219 117.332031 C 143.609375 115.789062 140.929688 114.425781 138.15625 113.242188 C 135.382812 112.0625 132.542969 111.070312 129.636719 110.269531 C 126.730469 109.46875 123.78125 108.867188 120.796875 108.464844 C 117.808594 108.0625 114.808594 107.859375 111.792969 107.859375 Z M 111.792969 107.859375 " fill-opacity="1" fill-rule="nonzero"/><path fill="#3981bf" d="M 79.332031 251.171875 C 74.222656 256.933594 60.398438 268.480469 56.226562 284.199219 C 55.992188 285.074219 55.84375 285.964844 55.785156 286.867188 C 55.726562 287.769531 55.753906 288.667969 55.875 289.566406 C 55.992188 290.460938 56.195312 291.339844 56.488281 292.195312 C 56.777344 293.050781 57.148438 293.871094 57.601562 294.65625 C 58.054688 295.4375 58.578125 296.171875 59.171875 296.851562 C 59.769531 297.53125 60.425781 298.144531 61.144531 298.695312 C 61.863281 299.246094 62.625 299.722656 63.4375 300.121094 C 64.25 300.523438 65.089844 300.839844 65.964844 301.074219 C 66.839844 301.308594 67.726562 301.453125 68.628906 301.511719 C 69.53125 301.574219 70.429688 301.542969 71.328125 301.425781 C 72.222656 301.308594 73.101562 301.101562 73.957031 300.8125 C 74.8125 300.519531 75.632812 300.148438 76.417969 299.699219 C 77.199219 299.246094 77.929688 298.722656 78.609375 298.125 C 79.289062 297.527344 79.90625 296.871094 80.457031 296.152344 C 81.007812 295.433594 81.484375 294.671875 81.882812 293.859375 C 82.28125 293.046875 82.601562 292.207031 82.832031 291.332031 C 82.863281 291.21875 82.894531 291.101562 82.921875 290.988281 C 87.199219 274.476562 80.867188 258.664062 79.332031 251.171875 Z M 79.332031 251.171875 " fill-opacity="1" fill-rule="nonzero"/><path fill="#3981bf" d="M 142.300781 251.171875 C 137.191406 256.933594 123.363281 268.480469 119.191406 284.199219 C 118.957031 285.074219 118.808594 285.964844 118.75 286.867188 C 118.691406 287.769531 118.722656 288.667969 118.839844 289.566406 C 118.957031 290.460938 119.160156 291.339844 119.453125 292.195312 C 119.742188 293.050781 120.113281 293.871094 120.566406 294.65625 C 121.019531 295.4375 121.542969 296.171875 122.140625 296.851562 C 122.734375 297.53125 123.394531 298.144531 124.109375 298.695312 C 124.828125 299.246094 125.59375 299.722656 126.402344 300.121094 C 127.214844 300.523438 128.058594 300.839844 128.929688 301.074219 C 129.804688 301.308594 130.691406 301.453125 131.59375 301.511719 C 132.496094 301.574219 133.398438 301.542969 134.292969 301.425781 C 135.191406 301.308594 136.066406 301.101562 136.921875 300.8125 C 137.78125 300.519531 138.597656 300.148438 139.382812 299.699219 C 140.164062 299.246094 140.898438 298.722656 141.578125 298.125 C 142.257812 297.527344 142.871094 296.871094 143.421875 296.152344 C 143.972656 295.4375 144.449219 294.671875 144.847656 293.859375 C 145.25 293.046875 145.566406 292.207031 145.800781 291.332031 C 145.832031 291.21875 145.859375 291.101562 145.886719 290.988281 C 150.164062 274.476562 143.832031 258.664062 142.296875 251.171875 Z M 142.300781 251.171875 " fill-opacity="1" fill-rule="nonzero"/><path fill="#3981bf" d="M 205.367188 252.855469 C 200.261719 258.617188 186.433594 270.164062 182.261719 285.882812 C 182.027344 286.757812 181.878906 287.644531 181.820312 288.546875 C 181.761719 289.449219 181.789062 290.351562 181.910156 291.246094 C 182.027344 292.144531 182.230469 293.019531 182.523438 293.878906 C 182.8125 294.734375 183.183594 295.554688 183.636719 296.335938 C 184.089844 297.121094 184.613281 297.851562 185.210938 298.53125 C 185.804688 299.210938 186.460938 299.828125 187.179688 300.378906 C 187.898438 300.929688 188.660156 301.40625 189.472656 301.804688 C 190.285156 302.203125 191.125 302.523438 192 302.753906 C 192.875 302.988281 193.761719 303.136719 194.664062 303.195312 C 195.566406 303.253906 196.464844 303.226562 197.363281 303.105469 C 198.257812 302.988281 199.136719 302.785156 199.992188 302.492188 C 200.847656 302.203125 201.667969 301.832031 202.453125 301.378906 C 203.234375 300.925781 203.964844 300.402344 204.648438 299.804688 C 205.328125 299.210938 205.941406 298.554688 206.492188 297.835938 C 207.042969 297.117188 207.519531 296.351562 207.917969 295.542969 C 208.316406 294.730469 208.636719 293.886719 208.871094 293.015625 C 208.898438 292.898438 208.929688 292.785156 208.957031 292.671875 C 213.234375 276.160156 206.902344 260.347656 205.367188 252.855469 Z M 205.367188 252.855469 " fill-opacity="1" fill-rule="nonzero"/><path fill="#3981bf" d="M 110.867188 308.527344 C 105.757812 314.289062 91.933594 325.835938 87.757812 341.554688 C 87.527344 342.429688 87.378906 343.316406 87.320312 344.21875 C 87.261719 345.121094 87.289062 346.023438 87.40625 346.917969 C 87.527344 347.816406 87.730469 348.691406 88.019531 349.546875 C 88.3125 350.40625 88.683594 351.226562 89.136719 352.007812 C 89.585938 352.792969 90.113281 353.523438 90.707031 354.203125 C 91.304688 354.882812 91.960938 355.5 92.679688 356.050781 C 93.398438 356.601562 94.160156 357.074219 94.972656 357.476562 C 95.785156 357.875 96.625 358.191406 97.5 358.425781 C 98.371094 358.660156 99.261719 358.808594 100.164062 358.867188 C 101.066406 358.925781 101.964844 358.898438 102.863281 358.777344 C 103.757812 358.660156 104.636719 358.457031 105.492188 358.164062 C 106.347656 357.875 107.167969 357.503906 107.949219 357.050781 C 108.734375 356.597656 109.464844 356.074219 110.144531 355.476562 C 110.824219 354.882812 111.441406 354.222656 111.992188 353.507812 C 112.542969 352.789062 113.015625 352.023438 113.417969 351.214844 C 113.816406 350.402344 114.132812 349.558594 114.367188 348.6875 C 114.398438 348.570312 114.429688 348.457031 114.457031 348.339844 C 118.734375 331.832031 112.398438 316.019531 110.867188 308.527344 Z M 110.867188 308.527344 " fill-opacity="1" fill-rule="nonzero"/><path fill="#3981bf" d="M 173.832031 308.527344 C 168.726562 314.289062 154.898438 325.835938 150.726562 341.554688 C 150.492188 342.429688 150.34375 343.316406 150.285156 344.21875 C 150.226562 345.121094 150.257812 346.023438 150.375 346.917969 C 150.492188 347.816406 150.695312 348.691406 150.988281 349.546875 C 151.277344 350.40625 151.648438 351.226562 152.101562 352.007812 C 152.554688 352.792969 153.078125 353.523438 153.675781 354.203125 C 154.269531 354.882812 154.929688 355.5 155.644531 356.050781 C 156.363281 356.601562 157.128906 357.074219 157.9375 357.476562 C 158.75 357.875 159.589844 358.191406 160.464844 358.425781 C 161.339844 358.660156 162.226562 358.808594 163.128906 358.867188 C 164.03125 358.925781 164.929688 358.898438 165.828125 358.777344 C 166.726562 358.660156 167.601562 358.457031 168.457031 358.164062 C 169.3125 357.875 170.132812 357.503906 170.917969 357.050781 C 171.699219 356.597656 172.433594 356.074219 173.113281 355.476562 C 173.792969 354.882812 174.40625 354.226562 174.957031 353.507812 C 175.507812 352.789062 175.984375 352.023438 176.382812 351.214844 C 176.785156 350.402344 177.101562 349.558594 177.335938 348.6875 C 177.367188 348.570312 177.394531 348.457031 177.421875 348.339844 C 181.699219 331.832031 175.367188 316.019531 173.832031 308.527344 Z M 173.832031 308.527344 " fill-opacity="1" fill-rule="nonzero"/></svg>