<svg xmlns="http://www.w3.org/2000/svg" xmlns:xlink="http://www.w3.org/1999/xlink" width="500" zoomAndPan="magnify" viewBox="0 0 375 374.999991" height="500" preserveAspectRatio="xMidYMid meet" version="1.0"><defs><clipPath id="0f7b54e558"><path d="M 218 13.296875 L 375 13.296875 L 375 173 L 218 173 Z M 218 13.296875 " clip-rule="nonzero"/></clipPath></defs><g clip-path="url(#0f7b54e558)"><path fill="#f5df00" d="M 297.8125 13.363281 C 296.511719 13.363281 295.210938 13.394531 293.910156 13.460938 C 292.609375 13.523438 291.3125 13.621094 290.015625 13.746094 C 288.71875 13.875 287.429688 14.035156 286.140625 14.226562 C 284.851562 14.417969 283.570312 14.640625 282.292969 14.894531 C 281.019531 15.148438 279.746094 15.433594 278.484375 15.75 C 277.222656 16.066406 275.96875 16.414062 274.722656 16.792969 C 273.476562 17.171875 272.242188 17.578125 271.015625 18.019531 C 269.789062 18.457031 268.574219 18.925781 267.371094 19.425781 C 266.171875 19.921875 264.980469 20.453125 263.804688 21.007812 C 262.628906 21.566406 261.464844 22.152344 260.316406 22.765625 C 259.167969 23.378906 258.035156 24.023438 256.917969 24.691406 C 255.804688 25.363281 254.703125 26.058594 253.621094 26.78125 C 252.539062 27.507812 251.476562 28.257812 250.429688 29.03125 C 249.382812 29.808594 248.359375 30.609375 247.351562 31.4375 C 246.34375 32.265625 245.359375 33.113281 244.394531 33.988281 C 243.429688 34.863281 242.488281 35.761719 241.566406 36.683594 C 240.648438 37.605469 239.75 38.550781 238.875 39.515625 C 238 40.480469 237.152344 41.46875 236.324219 42.472656 C 235.5 43.480469 234.699219 44.507812 233.925781 45.554688 C 233.148438 46.601562 232.398438 47.667969 231.675781 48.75 C 230.953125 49.832031 230.257812 50.933594 229.585938 52.050781 C 228.917969 53.167969 228.277344 54.304688 227.664062 55.453125 C 227.050781 56.601562 226.464844 57.765625 225.90625 58.941406 C 225.351562 60.121094 224.824219 61.3125 224.324219 62.515625 C 223.828125 63.71875 223.359375 64.933594 222.921875 66.164062 C 222.480469 67.390625 222.074219 68.625 221.695312 69.875 C 221.316406 71.121094 220.972656 72.375 220.65625 73.640625 C 220.339844 74.902344 220.054688 76.175781 219.800781 77.453125 C 219.546875 78.730469 219.324219 80.015625 219.132812 81.304688 C 218.941406 82.59375 218.78125 83.886719 218.652344 85.183594 C 218.527344 86.480469 218.429688 87.777344 218.367188 89.078125 C 218.304688 90.378906 218.269531 91.683594 218.269531 92.984375 C 218.269531 94.289062 218.304688 95.589844 218.367188 96.894531 C 218.429688 98.195312 218.527344 99.492188 218.652344 100.789062 C 218.78125 102.085938 218.941406 103.378906 219.132812 104.667969 C 219.324219 105.957031 219.546875 107.242188 219.800781 108.519531 C 220.054688 109.796875 220.339844 111.070312 220.65625 112.332031 C 220.972656 113.597656 221.316406 114.851562 221.695312 116.097656 C 222.074219 117.347656 222.480469 118.582031 222.921875 119.808594 C 223.359375 121.035156 223.828125 122.253906 224.324219 123.457031 C 224.824219 124.660156 225.351562 125.851562 225.90625 127.027344 C 226.464844 128.207031 227.050781 129.371094 227.664062 130.519531 C 228.277344 131.667969 228.917969 132.800781 229.585938 133.917969 C 230.257812 135.039062 230.953125 136.136719 231.675781 137.222656 C 232.398438 138.304688 233.148438 139.371094 233.925781 140.417969 C 234.699219 141.464844 235.5 142.488281 236.324219 143.496094 C 237.152344 144.503906 238 145.492188 238.875 146.457031 C 239.75 147.421875 240.648438 148.367188 241.566406 149.285156 C 242.488281 150.207031 243.429688 151.105469 244.394531 151.980469 C 245.359375 152.855469 246.34375 153.707031 247.351562 154.535156 C 248.359375 155.359375 249.382812 156.164062 250.429688 156.9375 C 251.476562 157.714844 252.539062 158.464844 253.621094 159.1875 C 254.703125 159.914062 255.804688 160.609375 256.917969 161.28125 C 258.035156 161.949219 259.167969 162.589844 260.316406 163.207031 C 261.464844 163.820312 262.628906 164.40625 263.804688 164.960938 C 264.980469 165.519531 266.171875 166.046875 267.371094 166.546875 C 268.574219 167.046875 269.789062 167.515625 271.015625 167.953125 C 272.242188 168.390625 273.476562 168.800781 274.722656 169.179688 C 275.96875 169.558594 277.222656 169.90625 278.484375 170.222656 C 279.746094 170.539062 281.015625 170.824219 282.292969 171.078125 C 283.570312 171.332031 284.851562 171.554688 286.140625 171.746094 C 287.429688 171.9375 288.71875 172.097656 290.015625 172.222656 C 291.3125 172.351562 292.609375 172.449219 293.910156 172.511719 C 295.210938 172.574219 296.511719 172.605469 297.8125 172.605469 C 299.976562 172.605469 302.132812 172.515625 304.289062 172.339844 C 306.445312 172.160156 308.589844 171.894531 310.726562 171.542969 C 312.859375 171.1875 314.976562 170.75 317.074219 170.222656 C 319.171875 169.695312 321.246094 169.085938 323.292969 168.390625 C 325.34375 167.695312 327.359375 166.917969 329.34375 166.058594 C 331.328125 165.199219 333.277344 164.257812 335.183594 163.242188 C 337.09375 162.222656 338.957031 161.125 340.777344 159.957031 C 342.597656 158.785156 344.363281 157.542969 346.082031 156.226562 C 347.800781 154.910156 349.460938 153.527344 351.066406 152.074219 C 352.671875 150.625 354.214844 149.109375 355.699219 147.53125 C 357.179688 145.953125 358.59375 144.320312 359.945312 142.628906 C 361.292969 140.933594 362.570312 139.1875 363.777344 137.390625 C 364.984375 135.59375 366.113281 133.75 367.171875 131.863281 C 368.226562 129.972656 369.203125 128.042969 370.101562 126.074219 C 371 124.105469 371.820312 122.101562 372.554688 120.066406 C 373.289062 118.027344 373.941406 115.964844 374.507812 113.875 C 371.808594 114.234375 369.097656 114.417969 366.371094 114.433594 C 365.320312 114.433594 364.269531 114.40625 363.21875 114.355469 C 362.167969 114.304688 361.117188 114.226562 360.070312 114.121094 C 359.023438 114.019531 357.980469 113.890625 356.941406 113.734375 C 355.898438 113.582031 354.863281 113.402344 353.832031 113.195312 C 352.800781 112.992188 351.773438 112.761719 350.753906 112.503906 C 349.734375 112.25 348.71875 111.96875 347.714844 111.664062 C 346.707031 111.355469 345.707031 111.027344 344.71875 110.671875 C 343.726562 110.316406 342.746094 109.9375 341.773438 109.535156 C 340.804688 109.132812 339.839844 108.707031 338.890625 108.253906 C 337.941406 107.804688 337 107.332031 336.074219 106.835938 C 335.144531 106.339844 334.230469 105.820312 333.328125 105.277344 C 332.425781 104.738281 331.535156 104.175781 330.664062 103.589844 C 329.789062 103.003906 328.929688 102.398438 328.082031 101.769531 C 327.238281 101.144531 326.410156 100.496094 325.597656 99.828125 C 324.78125 99.160156 323.988281 98.472656 323.207031 97.765625 C 322.429688 97.058594 321.667969 96.332031 320.921875 95.589844 C 320.179688 94.84375 319.453125 94.082031 318.746094 93.300781 C 318.039062 92.519531 317.355469 91.722656 316.6875 90.910156 C 316.019531 90.09375 315.371094 89.265625 314.746094 88.421875 C 314.117188 87.574219 313.511719 86.714844 312.929688 85.839844 C 312.34375 84.960938 311.78125 84.074219 311.242188 83.171875 C 310.699219 82.265625 310.183594 81.351562 309.6875 80.421875 C 309.191406 79.492188 308.71875 78.554688 308.269531 77.601562 C 307.816406 76.648438 307.390625 75.6875 306.988281 74.714844 C 306.585938 73.742188 306.207031 72.757812 305.855469 71.769531 C 305.5 70.777344 305.167969 69.777344 304.863281 68.769531 C 304.558594 67.761719 304.277344 66.746094 304.023438 65.726562 C 303.765625 64.703125 303.535156 63.679688 303.332031 62.644531 C 303.125 61.613281 302.945312 60.574219 302.792969 59.535156 C 302.636719 58.492188 302.507812 57.445312 302.40625 56.398438 C 302.304688 55.351562 302.226562 54.300781 302.175781 53.25 C 302.121094 52.199219 302.097656 51.144531 302.097656 50.09375 C 302.101562 43.816406 303.007812 37.671875 304.808594 31.65625 C 306.609375 25.644531 309.238281 20.015625 312.683594 14.773438 C 307.769531 13.835938 302.8125 13.367188 297.8125 13.363281 Z M 297.8125 13.363281 " fill-opacity="1" fill-rule="nonzero"/></g><path fill="#c6e0f7" d="M 124.1875 81.183594 C 122.964844 81.183594 121.742188 81.210938 120.519531 81.273438 C 119.300781 81.332031 118.082031 81.421875 116.863281 81.542969 C 115.644531 81.664062 114.433594 81.8125 113.222656 81.992188 C 112.011719 82.171875 110.808594 82.382812 109.609375 82.621094 C 108.410156 82.859375 107.214844 83.128906 106.03125 83.425781 C 104.84375 83.722656 103.664062 84.046875 102.496094 84.402344 C 101.324219 84.757812 100.164062 85.144531 99.011719 85.554688 C 97.859375 85.96875 96.71875 86.410156 95.589844 86.878906 C 94.460938 87.347656 93.34375 87.839844 92.238281 88.363281 C 91.128906 88.890625 90.039062 89.4375 88.960938 90.015625 C 87.882812 90.59375 86.816406 91.195312 85.769531 91.824219 C 84.71875 92.457031 83.6875 93.109375 82.667969 93.789062 C 81.652344 94.46875 80.652344 95.175781 79.671875 95.90625 C 78.6875 96.632812 77.722656 97.386719 76.777344 98.164062 C 75.832031 98.941406 74.90625 99.738281 74 100.5625 C 73.09375 101.382812 72.210938 102.226562 71.34375 103.09375 C 70.480469 103.960938 69.636719 104.84375 68.816406 105.753906 C 67.996094 106.660156 67.195312 107.585938 66.421875 108.53125 C 65.644531 109.480469 64.890625 110.445312 64.164062 111.425781 C 63.433594 112.410156 62.730469 113.410156 62.050781 114.429688 C 61.371094 115.449219 60.71875 116.480469 60.089844 117.53125 C 59.460938 118.582031 58.859375 119.644531 58.28125 120.726562 C 57.703125 121.804688 57.15625 122.898438 56.632812 124.003906 C 56.109375 125.113281 55.613281 126.230469 55.144531 127.363281 C 54.675781 128.492188 54.238281 129.636719 53.824219 130.789062 C 53.414062 131.941406 53.03125 133.101562 52.675781 134.273438 C 52.320312 135.445312 51.992188 136.625 51.695312 137.8125 C 51.398438 139 51.132812 140.195312 50.894531 141.394531 C 50.652344 142.597656 50.445312 143.800781 50.265625 145.011719 C 50.085938 146.222656 49.9375 147.4375 49.816406 148.65625 C 49.695312 149.875 49.605469 151.097656 49.546875 152.320312 C 49.488281 153.542969 49.457031 154.765625 49.457031 155.988281 C 49.472656 158.757812 49.644531 161.519531 49.964844 164.269531 C 21.78125 169.335938 0.636719 192.121094 0.636719 219.636719 C 0.636719 250.890625 27.929688 276.054688 61.832031 276.054688 L 280.183594 276.054688 C 311.410156 276.054688 336.546875 252.664062 336.546875 223.613281 C 336.546875 194.738281 311.71875 171.472656 280.765625 171.183594 C 280.519531 169.246094 280.1875 167.328125 279.769531 165.421875 C 279.351562 163.515625 278.847656 161.632812 278.261719 159.773438 C 277.671875 157.914062 277 156.082031 276.246094 154.285156 C 275.496094 152.484375 274.660156 150.722656 273.75 149 C 272.835938 147.273438 271.847656 145.59375 270.785156 143.960938 C 269.71875 142.324219 268.582031 140.742188 267.375 139.210938 C 266.167969 137.679688 264.894531 136.203125 263.554688 134.789062 C 262.214844 133.371094 260.8125 132.015625 259.351562 130.726562 C 257.890625 129.4375 256.371094 128.214844 254.800781 127.0625 C 253.226562 125.910156 251.605469 124.832031 249.9375 123.824219 C 248.265625 122.816406 246.554688 121.890625 244.800781 121.039062 C 243.046875 120.1875 241.257812 119.417969 239.433594 118.726562 C 237.609375 118.039062 235.761719 117.429688 233.882812 116.910156 C 232.003906 116.386719 230.105469 115.949219 228.1875 115.601562 C 226.269531 115.25 224.339844 114.988281 222.402344 114.8125 C 220.460938 114.632812 218.515625 114.546875 216.566406 114.546875 C 211.964844 114.554688 207.414062 115.046875 202.917969 116.023438 C 198.421875 117.003906 194.078125 118.445312 189.890625 120.347656 C 188.292969 117.402344 186.507812 114.574219 184.53125 111.867188 C 182.554688 109.15625 180.410156 106.59375 178.089844 104.175781 C 175.769531 101.757812 173.296875 99.503906 170.675781 97.417969 C 168.050781 95.332031 165.300781 93.433594 162.421875 91.714844 C 159.542969 90 156.566406 88.484375 153.484375 87.171875 C 150.402344 85.855469 147.246094 84.753906 144.015625 83.863281 C 140.785156 82.976562 137.511719 82.304688 134.191406 81.855469 C 130.871094 81.40625 127.539062 81.183594 124.1875 81.183594 Z M 124.1875 81.183594 " fill-opacity="1" fill-rule="nonzero"/><path fill="#3981bf" d="M 88.117188 240.5625 C 82.441406 246.96875 67.078125 259.8125 62.441406 277.292969 C 62.179688 278.265625 62.019531 279.253906 61.953125 280.257812 C 61.886719 281.261719 61.917969 282.261719 62.050781 283.257812 C 62.179688 284.257812 62.410156 285.230469 62.730469 286.183594 C 63.054688 287.136719 63.46875 288.046875 63.96875 288.917969 C 64.472656 289.789062 65.054688 290.605469 65.71875 291.359375 C 66.378906 292.117188 67.109375 292.800781 67.90625 293.414062 C 68.703125 294.027344 69.554688 294.554688 70.457031 295 C 71.355469 295.445312 72.292969 295.796875 73.261719 296.058594 C 74.234375 296.320312 75.222656 296.480469 76.222656 296.546875 C 77.226562 296.613281 78.226562 296.582031 79.222656 296.449219 C 80.21875 296.316406 81.191406 296.089844 82.144531 295.765625 C 83.097656 295.445312 84.007812 295.03125 84.878906 294.527344 C 85.746094 294.023438 86.5625 293.441406 87.316406 292.777344 C 88.070312 292.113281 88.753906 291.382812 89.367188 290.585938 C 89.980469 289.789062 90.507812 288.9375 90.953125 288.035156 C 91.394531 287.132812 91.75 286.195312 92.007812 285.222656 C 92.042969 285.097656 92.074219 284.96875 92.105469 284.839844 C 96.859375 266.480469 89.820312 248.894531 88.117188 240.5625 Z M 88.117188 240.5625 " fill-opacity="1" fill-rule="nonzero"/><path fill="#3981bf" d="M 158.085938 240.5625 C 152.410156 246.96875 137.046875 259.8125 132.410156 277.292969 C 132.148438 278.265625 131.988281 279.253906 131.921875 280.257812 C 131.855469 281.261719 131.886719 282.261719 132.019531 283.257812 C 132.148438 284.257812 132.378906 285.230469 132.699219 286.183594 C 133.023438 287.136719 133.4375 288.046875 133.9375 288.917969 C 134.441406 289.789062 135.023438 290.605469 135.6875 291.359375 C 136.347656 292.117188 137.078125 292.800781 137.875 293.414062 C 138.671875 294.027344 139.523438 294.554688 140.425781 295 C 141.324219 295.445312 142.261719 295.796875 143.230469 296.058594 C 144.203125 296.320312 145.191406 296.480469 146.191406 296.546875 C 147.195312 296.613281 148.195312 296.582031 149.191406 296.449219 C 150.1875 296.316406 151.160156 296.089844 152.113281 295.765625 C 153.066406 295.445312 153.976562 295.03125 154.847656 294.527344 C 155.714844 294.023438 156.53125 293.441406 157.285156 292.777344 C 158.039062 292.113281 158.722656 291.382812 159.335938 290.585938 C 159.949219 289.789062 160.476562 288.9375 160.921875 288.035156 C 161.367188 287.132812 161.71875 286.195312 161.976562 285.222656 C 162.011719 285.097656 162.042969 284.96875 162.074219 284.839844 C 166.828125 266.480469 159.789062 248.894531 158.085938 240.5625 Z M 158.085938 240.5625 " fill-opacity="1" fill-rule="nonzero"/><path fill="#3981bf" d="M 228.171875 242.433594 C 222.496094 248.839844 207.128906 261.683594 202.492188 279.164062 C 202.234375 280.136719 202.070312 281.125 202.003906 282.128906 C 201.9375 283.132812 201.972656 284.132812 202.101562 285.128906 C 202.234375 286.128906 202.460938 287.101562 202.785156 288.054688 C 203.105469 289.007812 203.519531 289.917969 204.023438 290.789062 C 204.523438 291.660156 205.105469 292.476562 205.769531 293.230469 C 206.433594 293.988281 207.164062 294.671875 207.960938 295.285156 C 208.757812 295.898438 209.605469 296.425781 210.507812 296.871094 C 211.410156 297.316406 212.34375 297.667969 213.316406 297.929688 C 214.285156 298.1875 215.273438 298.351562 216.277344 298.417969 C 217.277344 298.484375 218.277344 298.449219 219.273438 298.320312 C 220.269531 298.1875 221.246094 297.960938 222.195312 297.636719 C 223.148438 297.3125 224.058594 296.902344 224.929688 296.398438 C 225.800781 295.894531 226.613281 295.3125 227.367188 294.648438 C 228.125 293.984375 228.808594 293.253906 229.417969 292.457031 C 230.03125 291.660156 230.558594 290.808594 231.003906 289.90625 C 231.449219 289.003906 231.800781 288.066406 232.0625 287.09375 C 232.09375 286.96875 232.128906 286.839844 232.160156 286.710938 C 236.910156 268.351562 229.875 250.765625 228.171875 242.433594 Z M 228.171875 242.433594 " fill-opacity="1" fill-rule="nonzero"/><path fill="#3981bf" d="M 123.160156 304.34375 C 117.484375 310.753906 102.117188 323.597656 97.484375 341.078125 C 97.222656 342.050781 97.058594 343.035156 96.992188 344.039062 C 96.929688 345.042969 96.960938 346.046875 97.09375 347.042969 C 97.222656 348.039062 97.449219 349.015625 97.773438 349.96875 C 98.097656 350.921875 98.507812 351.832031 99.011719 352.703125 C 99.515625 353.574219 100.097656 354.386719 100.757812 355.144531 C 101.421875 355.902344 102.152344 356.585938 102.949219 357.199219 C 103.746094 357.808594 104.59375 358.339844 105.496094 358.785156 C 106.398438 359.230469 107.335938 359.582031 108.304688 359.839844 C 109.277344 360.101562 110.261719 360.265625 111.265625 360.332031 C 112.269531 360.398438 113.269531 360.363281 114.265625 360.234375 C 115.261719 360.101562 116.234375 359.875 117.1875 359.550781 C 118.136719 359.226562 119.050781 358.8125 119.917969 358.3125 C 120.789062 357.808594 121.601562 357.226562 122.359375 356.5625 C 123.113281 355.898438 123.796875 355.167969 124.410156 354.371094 C 125.019531 353.570312 125.550781 352.722656 125.992188 351.820312 C 126.4375 350.917969 126.789062 349.980469 127.050781 349.007812 C 127.085938 348.882812 127.117188 348.753906 127.148438 348.625 C 131.902344 330.265625 124.863281 312.679688 123.160156 304.34375 Z M 123.160156 304.34375 " fill-opacity="1" fill-rule="nonzero"/><path fill="#3981bf" d="M 193.128906 304.34375 C 187.453125 310.753906 172.085938 323.597656 167.453125 341.078125 C 167.191406 342.050781 167.027344 343.035156 166.960938 344.039062 C 166.898438 345.042969 166.929688 346.046875 167.0625 347.042969 C 167.191406 348.039062 167.417969 349.015625 167.742188 349.96875 C 168.066406 350.921875 168.476562 351.832031 168.980469 352.703125 C 169.484375 353.574219 170.066406 354.386719 170.726562 355.144531 C 171.390625 355.902344 172.121094 356.585938 172.917969 357.199219 C 173.714844 357.808594 174.566406 358.339844 175.464844 358.785156 C 176.367188 359.230469 177.304688 359.582031 178.273438 359.839844 C 179.246094 360.101562 180.230469 360.265625 181.234375 360.332031 C 182.238281 360.398438 183.238281 360.363281 184.234375 360.234375 C 185.230469 360.101562 186.203125 359.875 187.15625 359.550781 C 188.105469 359.226562 189.019531 358.8125 189.886719 358.3125 C 190.757812 357.808594 191.570312 357.226562 192.328125 356.5625 C 193.082031 355.898438 193.765625 355.167969 194.378906 354.371094 C 194.988281 353.570312 195.519531 352.722656 195.960938 351.820312 C 196.40625 350.917969 196.757812 349.980469 197.019531 349.007812 C 197.054688 348.882812 197.085938 348.753906 197.117188 348.625 C 201.871094 330.265625 194.832031 312.679688 193.128906 304.34375 Z M 193.128906 304.34375 " fill-opacity="1" fill-rule="nonzero"/></svg>