<svg xmlns="http://www.w3.org/2000/svg" xmlns:xlink="http://www.w3.org/1999/xlink" width="500" zoomAndPan="magnify" viewBox="0 0 375 374.999991" height="500" preserveAspectRatio="xMidYMid meet" version="1.0"><defs><clipPath id="6bbe9d5ae0"><path d="M 118.765625 137.984375 L 256.015625 137.984375 L 256.015625 374.984375 L 118.765625 374.984375 Z M 118.765625 137.984375 " clip-rule="nonzero"/></clipPath><clipPath id="46510d467d"><path d="M 73 0 L 374.03125 0 L 374.03125 175 L 73 175 Z M 73 0 " clip-rule="nonzero"/></clipPath><clipPath id="4ed02f5070"><path d="M 1.28125 25 L 302 25 L 302 200 L 1.28125 200 Z M 1.28125 25 " clip-rule="nonzero"/></clipPath></defs><g clip-path="url(#6bbe9d5ae0)"><path fill="#fbc646" d="M 159.4375 137.992188 L 247.539062 137.992188 L 210.257812 207.5625 L 256.007812 207.5625 L 145.316406 374.976562 L 174.683594 251.671875 L 118.769531 251.671875 L 159.4375 137.992188 " fill-opacity="1" fill-rule="nonzero"/></g><g clip-path="url(#46510d467d)"><path fill="#86a3bf" d="M 184.289062 0.835938 C 183.195312 0.835938 182.101562 0.863281 181.011719 0.914062 C 179.921875 0.96875 178.832031 1.050781 177.742188 1.15625 C 176.65625 1.261719 175.570312 1.398438 174.492188 1.558594 C 173.410156 1.71875 172.332031 1.902344 171.261719 2.117188 C 170.191406 2.328125 169.125 2.566406 168.0625 2.832031 C 167.003906 3.097656 165.949219 3.390625 164.90625 3.707031 C 163.859375 4.023438 162.824219 4.363281 161.792969 4.730469 C 160.765625 5.097656 159.746094 5.492188 158.734375 5.910156 C 157.726562 6.328125 156.726562 6.769531 155.738281 7.234375 C 154.75 7.703125 153.777344 8.191406 152.8125 8.707031 C 151.847656 9.21875 150.898438 9.757812 149.960938 10.320312 C 149.023438 10.878906 148.101562 11.460938 147.191406 12.070312 C 146.285156 12.675781 145.390625 13.300781 144.511719 13.953125 C 143.636719 14.601562 142.773438 15.273438 141.929688 15.964844 C 141.085938 16.65625 140.257812 17.371094 139.449219 18.101562 C 138.636719 18.835938 137.847656 19.585938 137.074219 20.359375 C 136.300781 21.128906 135.546875 21.917969 134.8125 22.726562 C 134.082031 23.535156 133.367188 24.359375 132.671875 25.203125 C 131.980469 26.046875 131.308594 26.90625 130.65625 27.785156 C 130.007812 28.660156 129.378906 29.550781 128.769531 30.457031 C 128.164062 31.363281 127.578125 32.285156 127.015625 33.222656 C 126.453125 34.15625 125.917969 35.105469 125.402344 36.066406 C 124.886719 37.03125 124.394531 38.003906 123.929688 38.988281 C 123.460938 39.976562 123.019531 40.972656 122.601562 41.980469 C 122.183594 42.988281 121.789062 44.007812 121.421875 45.03125 C 121.050781 46.058594 120.710938 47.09375 120.390625 48.140625 C 120.074219 49.183594 119.785156 50.234375 119.519531 51.292969 C 119.253906 52.351562 119.011719 53.414062 118.800781 54.484375 C 118.585938 55.554688 118.398438 56.628906 118.238281 57.707031 C 118.078125 58.785156 117.945312 59.867188 117.839844 60.953125 C 117.730469 62.039062 117.652344 63.128906 117.597656 64.214844 C 117.542969 65.304688 117.515625 66.394531 117.515625 67.488281 C 117.53125 69.953125 117.683594 72.414062 117.972656 74.863281 C 92.789062 79.378906 73.898438 99.679688 73.898438 124.195312 C 73.898438 152.042969 98.28125 174.464844 128.574219 174.464844 L 323.667969 174.464844 C 351.566406 174.464844 374.023438 153.621094 374.023438 127.738281 C 374.023438 102.011719 351.84375 81.285156 324.1875 81.023438 C 323.96875 79.300781 323.671875 77.589844 323.296875 75.890625 C 322.921875 74.191406 322.472656 72.515625 321.949219 70.859375 C 321.421875 69.199219 320.820312 67.570312 320.148438 65.96875 C 319.476562 64.363281 318.730469 62.792969 317.914062 61.257812 C 317.101562 59.722656 316.21875 58.226562 315.265625 56.769531 C 314.316406 55.3125 313.300781 53.902344 312.222656 52.539062 C 311.144531 51.171875 310.007812 49.859375 308.808594 48.597656 C 307.613281 47.332031 306.359375 46.128906 305.054688 44.980469 C 303.746094 43.828125 302.390625 42.742188 300.984375 41.714844 C 299.582031 40.6875 298.132812 39.726562 296.640625 38.828125 C 295.148438 37.933594 293.617188 37.105469 292.050781 36.347656 C 290.484375 35.585938 288.886719 34.902344 287.257812 34.285156 C 285.628906 33.671875 283.972656 33.132812 282.296875 32.667969 C 280.617188 32.203125 278.921875 31.8125 277.210938 31.5 C 275.496094 31.1875 273.773438 30.953125 272.039062 30.796875 C 270.304688 30.640625 268.566406 30.5625 266.824219 30.5625 C 258.507812 30.574219 250.5625 32.296875 242.992188 35.730469 C 241.566406 33.105469 239.96875 30.585938 238.203125 28.171875 C 236.4375 25.761719 234.519531 23.476562 232.445312 21.320312 C 230.371094 19.167969 228.164062 17.160156 225.820312 15.300781 C 223.476562 13.445312 221.019531 11.75 218.449219 10.222656 C 215.878906 8.691406 213.214844 7.34375 210.460938 6.171875 C 207.707031 5 204.890625 4.019531 202.003906 3.226562 C 199.117188 2.433594 196.191406 1.835938 193.226562 1.4375 C 190.261719 1.035156 187.28125 0.835938 184.289062 0.835938 Z M 184.289062 0.835938 " fill-opacity="1" fill-rule="nonzero"/></g><g clip-path="url(#4ed02f5070)"><path fill="#c6e0f7" d="M 111.699219 25.917969 C 110.605469 25.917969 109.515625 25.945312 108.421875 25.996094 C 107.332031 26.050781 106.242188 26.132812 105.152344 26.238281 C 104.066406 26.34375 102.980469 26.480469 101.902344 26.640625 C 100.820312 26.800781 99.742188 26.984375 98.671875 27.199219 C 97.601562 27.410156 96.535156 27.648438 95.476562 27.914062 C 94.414062 28.179688 93.363281 28.472656 92.316406 28.789062 C 91.269531 29.105469 90.234375 29.445312 89.203125 29.8125 C 88.175781 30.183594 87.15625 30.574219 86.148438 30.992188 C 85.136719 31.410156 84.136719 31.851562 83.152344 32.316406 C 82.164062 32.785156 81.1875 33.273438 80.222656 33.789062 C 79.257812 34.300781 78.308594 34.839844 77.371094 35.402344 C 76.433594 35.960938 75.511719 36.546875 74.601562 37.152344 C 73.695312 37.757812 72.800781 38.386719 71.921875 39.035156 C 71.046875 39.683594 70.183594 40.355469 69.339844 41.046875 C 68.496094 41.738281 67.667969 42.453125 66.859375 43.183594 C 66.046875 43.917969 65.257812 44.667969 64.484375 45.441406 C 63.710938 46.210938 62.957031 47 62.226562 47.808594 C 61.492188 48.617188 60.777344 49.441406 60.085938 50.285156 C 59.390625 51.128906 58.71875 51.988281 58.066406 52.867188 C 57.417969 53.742188 56.789062 54.632812 56.179688 55.539062 C 55.574219 56.445312 54.988281 57.367188 54.425781 58.304688 C 53.867188 59.238281 53.328125 60.1875 52.8125 61.148438 C 52.296875 62.113281 51.804688 63.085938 51.339844 64.074219 C 50.871094 65.058594 50.429688 66.054688 50.011719 67.0625 C 49.59375 68.070312 49.199219 69.089844 48.832031 70.117188 C 48.464844 71.140625 48.121094 72.175781 47.804688 73.222656 C 47.484375 74.265625 47.195312 75.316406 46.929688 76.375 C 46.664062 77.433594 46.425781 78.496094 46.210938 79.566406 C 45.996094 80.636719 45.8125 81.710938 45.652344 82.789062 C 45.492188 83.867188 45.355469 84.949219 45.25 86.035156 C 45.144531 87.121094 45.0625 88.210938 45.007812 89.296875 C 44.953125 90.386719 44.929688 91.476562 44.929688 92.570312 C 44.941406 95.035156 45.09375 97.496094 45.382812 99.945312 C 20.199219 104.460938 1.308594 124.761719 1.308594 149.277344 C 1.308594 177.125 25.691406 199.546875 55.984375 199.546875 L 251.078125 199.546875 C 278.976562 199.546875 301.4375 178.707031 301.4375 152.820312 C 301.4375 127.09375 279.253906 106.367188 251.597656 106.105469 C 251.378906 104.382812 251.082031 102.671875 250.707031 100.972656 C 250.332031 99.273438 249.882812 97.597656 249.359375 95.941406 C 248.832031 94.28125 248.234375 92.652344 247.558594 91.050781 C 246.886719 89.445312 246.140625 87.875 245.328125 86.339844 C 244.511719 84.804688 243.628906 83.308594 242.675781 81.851562 C 241.726562 80.394531 240.710938 78.984375 239.632812 77.621094 C 238.554688 76.253906 237.417969 74.941406 236.21875 73.679688 C 235.023438 72.417969 233.769531 71.210938 232.464844 70.0625 C 231.15625 68.910156 229.800781 67.824219 228.394531 66.796875 C 226.992188 65.769531 225.542969 64.808594 224.050781 63.910156 C 222.558594 63.015625 221.027344 62.1875 219.460938 61.429688 C 217.894531 60.667969 216.296875 59.984375 214.667969 59.367188 C 213.039062 58.753906 211.386719 58.214844 209.707031 57.75 C 208.027344 57.285156 206.332031 56.894531 204.621094 56.582031 C 202.90625 56.269531 201.183594 56.035156 199.449219 55.878906 C 197.714844 55.722656 195.976562 55.644531 194.234375 55.644531 C 185.917969 55.65625 177.972656 57.378906 170.402344 60.8125 C 168.976562 58.1875 167.378906 55.667969 165.613281 53.253906 C 163.847656 50.84375 161.929688 48.558594 159.855469 46.402344 C 157.785156 44.25 155.574219 42.242188 153.230469 40.382812 C 150.890625 38.527344 148.429688 36.832031 145.859375 35.304688 C 143.289062 33.773438 140.625 32.425781 137.871094 31.253906 C 135.121094 30.082031 132.300781 29.101562 129.414062 28.308594 C 126.527344 27.515625 123.601562 26.917969 120.636719 26.519531 C 117.671875 26.117188 114.691406 25.917969 111.699219 25.917969 Z M 111.699219 25.917969 " fill-opacity="1" fill-rule="nonzero"/></g></svg>