<svg xmlns="http://www.w3.org/2000/svg" xmlns:xlink="http://www.w3.org/1999/xlink" width="500" zoomAndPan="magnify" viewBox="0 0 375 374.999991" height="500" preserveAspectRatio="xMidYMid meet" version="1.0"><defs><clipPath id="f4b9542a67"><path d="M 246 14.511719 L 263 14.511719 L 263 55 L 246 55 Z M 246 14.511719 " clip-rule="nonzero"/></clipPath><clipPath id="9a3ee52143"><path d="M 334 126 L 374.761719 126 L 374.761719 143 L 334 143 Z M 334 126 " clip-rule="nonzero"/></clipPath><clipPath id="18b46f501a"><path d="M 246 215 L 263 215 L 263 255.261719 L 246 255.261719 Z M 246 215 " clip-rule="nonzero"/></clipPath><clipPath id="5e6dc9cf50"><path d="M 134.011719 126 L 175 126 L 175 143 L 134.011719 143 Z M 134.011719 126 " clip-rule="nonzero"/></clipPath></defs><path fill="#ffcc00" d="M 315.738281 134.960938 C 315.738281 136.96875 315.640625 138.96875 315.441406 140.964844 C 315.246094 142.964844 314.953125 144.945312 314.5625 146.914062 C 314.167969 148.882812 313.683594 150.828125 313.097656 152.746094 C 312.515625 154.667969 311.839844 156.554688 311.074219 158.410156 C 310.304688 160.265625 309.449219 162.074219 308.503906 163.847656 C 307.554688 165.617188 306.527344 167.335938 305.410156 169.003906 C 304.296875 170.671875 303.101562 172.28125 301.828125 173.832031 C 300.554688 175.386719 299.210938 176.871094 297.789062 178.289062 C 296.371094 179.707031 294.886719 181.054688 293.335938 182.328125 C 291.785156 183.601562 290.171875 184.792969 288.503906 185.910156 C 286.835938 187.023438 285.117188 188.054688 283.347656 189 C 281.578125 189.949219 279.765625 190.804688 277.910156 191.574219 C 276.058594 192.339844 274.167969 193.015625 272.25 193.597656 C 270.328125 194.179688 268.382812 194.667969 266.417969 195.058594 C 264.449219 195.449219 262.464844 195.746094 260.46875 195.941406 C 258.46875 196.136719 256.46875 196.238281 254.460938 196.238281 C 252.453125 196.238281 250.453125 196.136719 248.457031 195.941406 C 246.457031 195.746094 244.476562 195.449219 242.507812 195.058594 C 240.539062 194.667969 238.59375 194.179688 236.675781 193.597656 C 234.753906 193.015625 232.867188 192.339844 231.011719 191.574219 C 229.15625 190.804688 227.347656 189.949219 225.578125 189 C 223.804688 188.054688 222.085938 187.023438 220.417969 185.910156 C 218.75 184.792969 217.140625 183.601562 215.589844 182.328125 C 214.035156 181.054688 212.550781 179.707031 211.132812 178.289062 C 209.714844 176.871094 208.367188 175.386719 207.09375 173.832031 C 205.820312 172.28125 204.628906 170.671875 203.511719 169.003906 C 202.398438 167.335938 201.367188 165.617188 200.421875 163.847656 C 199.476562 162.074219 198.617188 160.265625 197.851562 158.410156 C 197.082031 156.554688 196.40625 154.667969 195.824219 152.746094 C 195.242188 150.828125 194.753906 148.882812 194.363281 146.914062 C 193.972656 144.945312 193.675781 142.964844 193.480469 140.964844 C 193.285156 138.96875 193.183594 136.96875 193.183594 134.960938 C 193.183594 132.953125 193.285156 130.953125 193.480469 128.953125 C 193.675781 126.957031 193.972656 124.972656 194.363281 123.007812 C 194.753906 121.039062 195.242188 119.09375 195.824219 117.171875 C 196.40625 115.253906 197.082031 113.363281 197.851562 111.511719 C 198.617188 109.65625 199.476562 107.84375 200.421875 106.074219 C 201.367188 104.304688 202.398438 102.585938 203.511719 100.917969 C 204.628906 99.25 205.820312 97.636719 207.09375 96.085938 C 208.367188 94.535156 209.714844 93.050781 211.132812 91.632812 C 212.550781 90.210938 214.035156 88.867188 215.589844 87.59375 C 217.140625 86.320312 218.75 85.125 220.417969 84.011719 C 222.085938 82.894531 223.804688 81.867188 225.578125 80.917969 C 227.347656 79.972656 229.15625 79.117188 231.011719 78.347656 C 232.867188 77.582031 234.753906 76.90625 236.675781 76.324219 C 238.59375 75.738281 240.539062 75.253906 242.507812 74.863281 C 244.476562 74.46875 246.457031 74.175781 248.457031 73.980469 C 250.453125 73.78125 252.453125 73.683594 254.460938 73.683594 C 256.46875 73.683594 258.46875 73.78125 260.46875 73.980469 C 262.464844 74.175781 264.449219 74.46875 266.417969 74.863281 C 268.382812 75.253906 270.328125 75.738281 272.25 76.324219 C 274.167969 76.90625 276.058594 77.582031 277.910156 78.347656 C 279.765625 79.117188 281.578125 79.972656 283.347656 80.917969 C 285.117188 81.867188 286.835938 82.894531 288.503906 84.011719 C 290.171875 85.125 291.785156 86.320312 293.335938 87.59375 C 294.886719 88.867188 296.371094 90.210938 297.789062 91.632812 C 299.210938 93.050781 300.554688 94.535156 301.828125 96.085938 C 303.101562 97.636719 304.296875 99.25 305.410156 100.917969 C 306.527344 102.585938 307.554688 104.304688 308.503906 106.074219 C 309.449219 107.84375 310.304688 109.65625 311.074219 111.511719 C 311.839844 113.363281 312.515625 115.253906 313.097656 117.171875 C 313.683594 119.09375 314.167969 121.039062 314.5625 123.007812 C 314.953125 124.972656 315.246094 126.957031 315.441406 128.953125 C 315.640625 130.953125 315.738281 132.953125 315.738281 134.960938 Z M 315.738281 134.960938 " fill-opacity="1" fill-rule="nonzero"/><g clip-path="url(#f4b9542a67)"><path fill="#ffcc00" d="M 254.460938 14.59375 C 250.015625 14.59375 246.4375 18.890625 246.4375 24.222656 L 246.4375 45.085938 C 246.4375 50.421875 250.015625 54.714844 254.460938 54.714844 C 258.90625 54.714844 262.484375 50.421875 262.484375 45.085938 L 262.484375 24.222656 C 262.484375 18.890625 258.90625 14.59375 254.460938 14.59375 Z M 254.460938 14.59375 " fill-opacity="1" fill-rule="nonzero"/></g><path fill="#ffcc00" d="M 339.574219 49.847656 C 336.429688 46.707031 330.863281 47.210938 327.089844 50.984375 L 312.335938 65.738281 C 308.566406 69.507812 308.058594 75.078125 311.203125 78.21875 C 314.347656 81.363281 319.914062 80.855469 323.6875 77.085938 L 338.4375 62.332031 C 342.210938 58.558594 342.71875 52.992188 339.574219 49.847656 Z M 339.574219 49.847656 " fill-opacity="1" fill-rule="nonzero"/><g clip-path="url(#9a3ee52143)"><path fill="#ffcc00" d="M 374.828125 134.960938 C 374.828125 130.515625 370.535156 126.9375 365.199219 126.9375 L 344.335938 126.9375 C 339 126.9375 334.707031 130.515625 334.707031 134.960938 C 334.707031 139.40625 339 142.984375 344.335938 142.984375 L 365.199219 142.984375 C 370.535156 142.984375 374.828125 139.40625 374.828125 134.960938 Z M 374.828125 134.960938 " fill-opacity="1" fill-rule="nonzero"/></g><path fill="#ffcc00" d="M 339.574219 220.074219 C 342.71875 216.929688 342.210938 211.363281 338.4375 207.589844 L 323.6875 192.839844 C 319.914062 189.066406 314.347656 188.558594 311.203125 191.703125 C 308.058594 194.847656 308.566406 200.414062 312.335938 204.1875 L 327.089844 218.941406 C 330.863281 222.710938 336.429688 223.21875 339.574219 220.074219 Z M 339.574219 220.074219 " fill-opacity="1" fill-rule="nonzero"/><g clip-path="url(#18b46f501a)"><path fill="#ffcc00" d="M 254.460938 255.328125 C 258.90625 255.328125 262.484375 251.035156 262.484375 245.699219 L 262.484375 224.835938 C 262.484375 219.5 258.90625 215.207031 254.460938 215.207031 C 250.015625 215.207031 246.4375 219.5 246.4375 224.835938 L 246.4375 245.699219 C 246.4375 251.035156 250.015625 255.328125 254.460938 255.328125 Z M 254.460938 255.328125 " fill-opacity="1" fill-rule="nonzero"/></g><path fill="#ffcc00" d="M 169.347656 220.074219 C 172.492188 223.21875 178.058594 222.710938 181.832031 218.941406 L 196.585938 204.1875 C 200.355469 200.414062 200.863281 194.847656 197.71875 191.703125 C 194.574219 188.558594 189.007812 189.066406 185.234375 192.839844 L 170.484375 207.589844 C 166.710938 211.363281 166.203125 216.929688 169.347656 220.074219 Z M 169.347656 220.074219 " fill-opacity="1" fill-rule="nonzero"/><g clip-path="url(#5e6dc9cf50)"><path fill="#ffcc00" d="M 134.09375 134.960938 C 134.09375 139.40625 138.386719 142.984375 143.722656 142.984375 L 164.585938 142.984375 C 169.921875 142.984375 174.214844 139.40625 174.214844 134.960938 C 174.214844 130.515625 169.921875 126.9375 164.585938 126.9375 L 143.722656 126.9375 C 138.386719 126.9375 134.09375 130.515625 134.09375 134.960938 Z M 134.09375 134.960938 " fill-opacity="1" fill-rule="nonzero"/></g><path fill="#ffcc00" d="M 169.347656 49.847656 C 166.203125 52.992188 166.710938 58.558594 170.484375 62.332031 L 185.234375 77.085938 C 189.007812 80.855469 194.574219 81.363281 197.71875 78.21875 C 200.863281 75.078125 200.355469 69.507812 196.585938 65.738281 L 181.832031 50.984375 C 178.058594 47.210938 172.492188 46.707031 169.347656 49.847656 Z M 169.347656 49.847656 " fill-opacity="1" fill-rule="nonzero"/><path fill="#86a3bf" d="M 184.113281 122.707031 C 183.011719 122.707031 181.914062 122.734375 180.816406 122.789062 C 179.71875 122.84375 178.621094 122.925781 177.527344 123.03125 C 176.433594 123.140625 175.34375 123.273438 174.253906 123.433594 C 173.167969 123.597656 172.085938 123.785156 171.007812 124 C 169.929688 124.214844 168.855469 124.453125 167.789062 124.722656 C 166.722656 124.988281 165.664062 125.28125 164.613281 125.601562 C 163.5625 125.917969 162.515625 126.265625 161.480469 126.632812 C 160.445312 127.003906 159.421875 127.398438 158.40625 127.820312 C 157.390625 128.242188 156.386719 128.6875 155.390625 129.15625 C 154.398438 129.625 153.417969 130.121094 152.445312 130.636719 C 151.476562 131.15625 150.519531 131.699219 149.578125 132.261719 C 148.636719 132.828125 147.707031 133.414062 146.792969 134.027344 C 145.878906 134.636719 144.980469 135.269531 144.097656 135.925781 C 143.214844 136.578125 142.347656 137.253906 141.496094 137.953125 C 140.648438 138.648438 139.816406 139.367188 139 140.105469 C 138.1875 140.84375 137.390625 141.601562 136.613281 142.378906 C 135.835938 143.15625 135.078125 143.949219 134.339844 144.765625 C 133.601562 145.578125 132.882812 146.410156 132.1875 147.261719 C 131.488281 148.109375 130.8125 148.976562 130.15625 149.859375 C 129.503906 150.742188 128.871094 151.640625 128.257812 152.554688 C 127.648438 153.46875 127.0625 154.394531 126.496094 155.339844 C 125.929688 156.28125 125.386719 157.238281 124.871094 158.207031 C 124.351562 159.175781 123.859375 160.15625 123.386719 161.152344 C 122.917969 162.144531 122.472656 163.148438 122.050781 164.164062 C 121.632812 165.179688 121.234375 166.203125 120.867188 167.238281 C 120.496094 168.273438 120.148438 169.316406 119.832031 170.367188 C 119.511719 171.421875 119.21875 172.480469 118.953125 173.546875 C 118.683594 174.613281 118.445312 175.683594 118.230469 176.761719 C 118.015625 177.839844 117.828125 178.921875 117.664062 180.007812 C 117.503906 181.097656 117.371094 182.1875 117.261719 183.28125 C 117.15625 184.375 117.074219 185.46875 117.019531 186.566406 C 116.964844 187.664062 116.9375 188.761719 116.9375 189.863281 C 116.953125 192.347656 117.105469 194.828125 117.398438 197.296875 C 92.0625 201.84375 73.054688 222.300781 73.054688 246.996094 C 73.054688 275.054688 97.585938 297.644531 128.0625 297.644531 L 324.332031 297.644531 C 352.398438 297.644531 374.996094 276.648438 374.996094 250.566406 C 374.996094 224.648438 352.679688 203.761719 324.855469 203.503906 C 324.632812 201.765625 324.335938 200.039062 323.960938 198.328125 C 323.585938 196.621094 323.132812 194.929688 322.601562 193.257812 C 322.074219 191.589844 321.46875 189.945312 320.792969 188.332031 C 320.117188 186.714844 319.367188 185.132812 318.546875 183.585938 C 317.726562 182.039062 316.839844 180.53125 315.882812 179.0625 C 314.925781 177.597656 313.90625 176.175781 312.820312 174.800781 C 311.734375 173.425781 310.589844 172.101562 309.386719 170.828125 C 308.179688 169.558594 306.921875 168.34375 305.605469 167.183594 C 304.292969 166.027344 302.929688 164.929688 301.515625 163.894531 C 300.101562 162.859375 298.644531 161.890625 297.140625 160.988281 C 295.640625 160.085938 294.101562 159.25 292.527344 158.488281 C 290.949219 157.722656 289.339844 157.03125 287.703125 156.410156 C 286.0625 155.792969 284.398438 155.25 282.710938 154.78125 C 281.023438 154.3125 279.316406 153.921875 277.59375 153.605469 C 275.871094 153.289062 274.136719 153.054688 272.390625 152.894531 C 270.648438 152.738281 268.898438 152.660156 267.144531 152.660156 C 263.011719 152.664062 258.921875 153.109375 254.878906 153.984375 C 250.839844 154.863281 246.933594 156.15625 243.167969 157.867188 C 241.734375 155.222656 240.128906 152.683594 238.351562 150.253906 C 236.578125 147.820312 234.648438 145.519531 232.5625 143.347656 C 230.476562 141.179688 228.253906 139.15625 225.898438 137.285156 C 223.539062 135.410156 221.066406 133.707031 218.480469 132.164062 C 215.894531 130.625 213.214844 129.265625 210.445312 128.085938 C 207.675781 126.90625 204.839844 125.914062 201.933594 125.117188 C 199.03125 124.316406 196.089844 123.714844 193.105469 123.3125 C 190.121094 122.910156 187.125 122.707031 184.113281 122.707031 Z M 184.113281 122.707031 " fill-opacity="1" fill-rule="nonzero"/><path fill="#c6e0f7" d="M 111.085938 147.980469 C 109.984375 147.980469 108.886719 148.007812 107.789062 148.0625 C 106.691406 148.113281 105.59375 148.195312 104.5 148.304688 C 103.40625 148.410156 102.316406 148.546875 101.226562 148.707031 C 100.140625 148.867188 99.058594 149.054688 97.980469 149.269531 C 96.902344 149.484375 95.828125 149.726562 94.761719 149.992188 C 93.695312 150.257812 92.636719 150.554688 91.585938 150.871094 C 90.535156 151.191406 89.488281 151.535156 88.453125 151.90625 C 87.417969 152.277344 86.394531 152.671875 85.378906 153.09375 C 84.363281 153.511719 83.359375 153.957031 82.363281 154.429688 C 81.371094 154.898438 80.390625 155.390625 79.417969 155.910156 C 78.449219 156.429688 77.492188 156.96875 76.550781 157.535156 C 75.609375 158.097656 74.679688 158.6875 73.765625 159.296875 C 72.851562 159.910156 71.953125 160.542969 71.070312 161.195312 C 70.1875 161.851562 69.320312 162.527344 68.46875 163.222656 C 67.621094 163.921875 66.789062 164.636719 65.972656 165.375 C 65.160156 166.113281 64.363281 166.871094 63.585938 167.648438 C 62.808594 168.425781 62.050781 169.222656 61.3125 170.035156 C 60.574219 170.851562 59.855469 171.683594 59.160156 172.53125 C 58.460938 173.382812 57.785156 174.25 57.128906 175.128906 C 56.476562 176.011719 55.84375 176.910156 55.230469 177.824219 C 54.621094 178.738281 54.035156 179.667969 53.46875 180.609375 C 52.902344 181.554688 52.363281 182.507812 51.84375 183.476562 C 51.324219 184.449219 50.832031 185.429688 50.359375 186.421875 C 49.890625 187.414062 49.445312 188.421875 49.023438 189.433594 C 48.605469 190.449219 48.207031 191.476562 47.839844 192.511719 C 47.46875 193.546875 47.121094 194.589844 46.804688 195.640625 C 46.484375 196.691406 46.191406 197.75 45.925781 198.816406 C 45.65625 199.882812 45.417969 200.953125 45.203125 202.03125 C 44.988281 203.109375 44.800781 204.191406 44.636719 205.28125 C 44.476562 206.367188 44.34375 207.457031 44.234375 208.550781 C 44.128906 209.644531 44.046875 210.742188 43.992188 211.839844 C 43.9375 212.9375 43.910156 214.035156 43.910156 215.132812 C 43.925781 217.621094 44.078125 220.097656 44.371094 222.566406 C 19.035156 227.113281 0.0273438 247.570312 0.0273438 272.269531 C 0.0273438 300.328125 24.558594 322.917969 55.035156 322.917969 L 251.304688 322.917969 C 279.371094 322.917969 301.96875 301.917969 301.96875 275.839844 C 301.96875 249.921875 279.652344 229.035156 251.828125 228.773438 C 251.605469 227.035156 251.308594 225.3125 250.933594 223.601562 C 250.558594 221.890625 250.105469 220.199219 249.574219 218.53125 C 249.046875 216.859375 248.445312 215.21875 247.765625 213.601562 C 247.089844 211.988281 246.339844 210.40625 245.519531 208.859375 C 244.699219 207.308594 243.8125 205.804688 242.855469 204.335938 C 241.898438 202.867188 240.878906 201.445312 239.792969 200.070312 C 238.707031 198.695312 237.5625 197.371094 236.359375 196.101562 C 235.152344 194.828125 233.894531 193.613281 232.578125 192.457031 C 231.265625 191.296875 229.902344 190.203125 228.488281 189.167969 C 227.074219 188.132812 225.617188 187.164062 224.113281 186.257812 C 222.613281 185.355469 221.074219 184.523438 219.5 183.757812 C 217.921875 182.992188 216.3125 182.300781 214.675781 181.683594 C 213.035156 181.0625 211.371094 180.519531 209.683594 180.050781 C 207.996094 179.582031 206.289062 179.191406 204.566406 178.875 C 202.84375 178.5625 201.109375 178.324219 199.363281 178.167969 C 197.621094 178.007812 195.871094 177.929688 194.117188 177.929688 C 189.984375 177.9375 185.894531 178.378906 181.851562 179.257812 C 177.8125 180.136719 173.90625 181.429688 170.140625 183.140625 C 168.707031 180.492188 167.101562 177.953125 165.324219 175.523438 C 163.550781 173.09375 161.621094 170.792969 159.535156 168.621094 C 157.449219 166.449219 155.226562 164.429688 152.871094 162.554688 C 150.511719 160.683594 148.039062 158.976562 145.453125 157.4375 C 142.867188 155.894531 140.1875 154.535156 137.417969 153.355469 C 134.648438 152.175781 131.8125 151.1875 128.90625 150.386719 C 126.003906 149.589844 123.0625 148.988281 120.078125 148.585938 C 117.09375 148.179688 114.097656 147.980469 111.085938 147.980469 Z M 111.085938 147.980469 " fill-opacity="1" fill-rule="nonzero"/></svg>