<svg xmlns="http://www.w3.org/2000/svg" xmlns:xlink="http://www.w3.org/1999/xlink" width="500" zoomAndPan="magnify" viewBox="0 0 375 374.999991" height="500" preserveAspectRatio="xMidYMid meet" version="1.0"><defs><clipPath id="f9855e71d7"><path d="M 181.292969 44.542969 L 356.042969 44.542969 L 356.042969 223 L 181.292969 223 Z M 181.292969 44.542969 " clip-rule="nonzero"/></clipPath></defs><g clip-path="url(#f9855e71d7)"><path fill="#f5df00" d="M 270.332031 44.632812 C 268.875 44.632812 267.421875 44.667969 265.964844 44.742188 C 264.511719 44.8125 263.0625 44.917969 261.613281 45.0625 C 260.164062 45.207031 258.71875 45.382812 257.277344 45.597656 C 255.835938 45.8125 254.402344 46.058594 252.976562 46.34375 C 251.546875 46.628906 250.128906 46.949219 248.714844 47.300781 C 247.304688 47.65625 245.902344 48.046875 244.507812 48.46875 C 243.113281 48.890625 241.730469 49.347656 240.359375 49.839844 C 238.992188 50.332031 237.632812 50.855469 236.289062 51.414062 C 234.941406 51.96875 233.613281 52.5625 232.296875 53.183594 C 230.980469 53.808594 229.679688 54.460938 228.394531 55.148438 C 227.109375 55.835938 225.84375 56.554688 224.597656 57.304688 C 223.347656 58.054688 222.117188 58.832031 220.90625 59.640625 C 219.695312 60.453125 218.507812 61.289062 217.335938 62.160156 C 216.167969 63.027344 215.019531 63.921875 213.894531 64.847656 C 212.769531 65.773438 211.667969 66.722656 210.589844 67.703125 C 209.507812 68.683594 208.457031 69.6875 207.425781 70.71875 C 206.398438 71.746094 205.394531 72.804688 204.414062 73.882812 C 203.4375 74.960938 202.488281 76.066406 201.5625 77.191406 C 200.640625 78.320312 199.742188 79.46875 198.875 80.640625 C 198.007812 81.808594 197.171875 83 196.363281 84.210938 C 195.554688 85.425781 194.773438 86.65625 194.027344 87.90625 C 193.277344 89.15625 192.5625 90.421875 191.875 91.707031 C 191.1875 92.992188 190.535156 94.296875 189.910156 95.613281 C 189.289062 96.929688 188.699219 98.261719 188.140625 99.609375 C 187.585938 100.957031 187.0625 102.316406 186.570312 103.6875 C 186.078125 105.058594 185.625 106.441406 185.199219 107.835938 C 184.777344 109.230469 184.390625 110.636719 184.035156 112.050781 C 183.683594 113.464844 183.363281 114.886719 183.078125 116.316406 C 182.796875 117.746094 182.546875 119.179688 182.332031 120.621094 C 182.117188 122.0625 181.941406 123.507812 181.796875 124.960938 C 181.65625 126.410156 181.546875 127.863281 181.476562 129.320312 C 181.40625 130.773438 181.371094 132.230469 181.371094 133.6875 C 181.371094 135.144531 181.40625 136.601562 181.476562 138.058594 C 181.546875 139.515625 181.65625 140.96875 181.796875 142.417969 C 181.941406 143.867188 182.117188 145.3125 182.332031 146.757812 C 182.546875 148.199219 182.796875 149.632812 183.078125 151.0625 C 183.363281 152.492188 183.683594 153.914062 184.035156 155.328125 C 184.390625 156.742188 184.777344 158.144531 185.199219 159.539062 C 185.625 160.933594 186.078125 162.316406 186.570312 163.691406 C 187.0625 165.0625 187.585938 166.421875 188.140625 167.769531 C 188.699219 169.113281 189.289062 170.445312 189.910156 171.765625 C 190.535156 173.082031 191.1875 174.382812 191.875 175.667969 C 192.5625 176.953125 193.277344 178.222656 194.027344 179.472656 C 194.773438 180.722656 195.554688 181.953125 196.363281 183.164062 C 197.171875 184.375 198.007812 185.566406 198.875 186.738281 C 199.746094 187.910156 200.640625 189.058594 201.5625 190.183594 C 202.488281 191.3125 203.4375 192.414062 204.414062 193.496094 C 205.394531 194.574219 206.398438 195.628906 207.425781 196.660156 C 208.457031 197.691406 209.511719 198.695312 210.589844 199.671875 C 211.667969 200.652344 212.769531 201.605469 213.894531 202.527344 C 215.019531 203.453125 216.167969 204.351562 217.335938 205.21875 C 218.507812 206.085938 219.695312 206.925781 220.90625 207.734375 C 222.117188 208.542969 223.347656 209.324219 224.597656 210.074219 C 225.84375 210.824219 227.109375 211.539062 228.394531 212.226562 C 229.679688 212.914062 230.980469 213.570312 232.296875 214.191406 C 233.613281 214.816406 234.941406 215.40625 236.289062 215.964844 C 237.632812 216.523438 238.992188 217.046875 240.359375 217.539062 C 241.730469 218.027344 243.113281 218.484375 244.507812 218.910156 C 245.902344 219.332031 247.304688 219.71875 248.714844 220.074219 C 250.128906 220.429688 251.546875 220.746094 252.976562 221.03125 C 254.402344 221.316406 255.839844 221.566406 257.277344 221.78125 C 258.71875 221.992188 260.164062 222.171875 261.613281 222.3125 C 263.0625 222.457031 264.511719 222.566406 265.964844 222.636719 C 267.421875 222.707031 268.875 222.742188 270.332031 222.742188 C 272.75 222.742188 275.164062 222.640625 277.578125 222.441406 C 279.988281 222.242188 282.386719 221.945312 284.773438 221.550781 C 287.160156 221.15625 289.527344 220.664062 291.875 220.078125 C 294.222656 219.488281 296.539062 218.804688 298.832031 218.027344 C 301.121094 217.25 303.378906 216.378906 305.597656 215.417969 C 307.820312 214.457031 309.996094 213.40625 312.128906 212.265625 C 314.265625 211.128906 316.351562 209.902344 318.382812 208.59375 C 320.417969 207.28125 322.398438 205.890625 324.320312 204.421875 C 326.242188 202.949219 328.097656 201.402344 329.894531 199.777344 C 331.691406 198.15625 333.417969 196.460938 335.074219 194.699219 C 336.730469 192.933594 338.3125 191.105469 339.820312 189.210938 C 341.332031 187.316406 342.757812 185.367188 344.109375 183.355469 C 345.457031 181.34375 346.722656 179.285156 347.902344 177.171875 C 349.085938 175.058594 350.179688 172.898438 351.183594 170.695312 C 352.1875 168.492188 353.101562 166.253906 353.925781 163.976562 C 354.75 161.699219 355.476562 159.390625 356.113281 157.054688 C 353.09375 157.453125 350.058594 157.660156 347.011719 157.675781 C 345.835938 157.675781 344.660156 157.648438 343.484375 157.589844 C 342.308594 157.53125 341.136719 157.445312 339.964844 157.328125 C 338.792969 157.214844 337.628906 157.070312 336.464844 156.898438 C 335.300781 156.726562 334.140625 156.523438 332.988281 156.292969 C 331.832031 156.0625 330.683594 155.804688 329.542969 155.519531 C 328.402344 155.234375 327.269531 154.917969 326.144531 154.578125 C 325.019531 154.234375 323.902344 153.867188 322.792969 153.46875 C 321.683594 153.074219 320.589844 152.648438 319.5 152.199219 C 318.414062 151.746094 317.339844 151.269531 316.277344 150.765625 C 315.210938 150.261719 314.160156 149.734375 313.125 149.179688 C 312.085938 148.625 311.0625 148.042969 310.054688 147.4375 C 309.042969 146.832031 308.050781 146.203125 307.074219 145.546875 C 306.09375 144.894531 305.132812 144.214844 304.1875 143.515625 C 303.242188 142.8125 302.316406 142.089844 301.40625 141.339844 C 300.496094 140.59375 299.605469 139.824219 298.734375 139.035156 C 297.863281 138.242188 297.011719 137.433594 296.179688 136.597656 C 295.347656 135.765625 294.535156 134.914062 293.746094 134.039062 C 292.957031 133.167969 292.1875 132.277344 291.441406 131.367188 C 290.695312 130.457031 289.972656 129.527344 289.269531 128.582031 C 288.570312 127.636719 287.894531 126.671875 287.238281 125.695312 C 286.585938 124.714844 285.957031 123.71875 285.351562 122.710938 C 284.746094 121.699219 284.167969 120.675781 283.613281 119.636719 C 283.058594 118.597656 282.527344 117.546875 282.027344 116.480469 C 281.523438 115.417969 281.046875 114.339844 280.597656 113.253906 C 280.144531 112.164062 279.722656 111.066406 279.324219 109.957031 C 278.929688 108.847656 278.5625 107.730469 278.21875 106.605469 C 277.878906 105.476562 277.5625 104.34375 277.277344 103.199219 C 276.992188 102.058594 276.734375 100.910156 276.503906 99.753906 C 276.277344 98.597656 276.074219 97.4375 275.902344 96.273438 C 275.730469 95.109375 275.585938 93.941406 275.46875 92.769531 C 275.355469 91.59375 275.269531 90.421875 275.210938 89.246094 C 275.152344 88.070312 275.125 86.890625 275.125 85.714844 C 275.128906 82.222656 275.382812 78.75 275.890625 75.292969 C 276.398438 71.839844 277.15625 68.441406 278.15625 65.09375 C 279.160156 61.75 280.398438 58.496094 281.875 55.332031 C 283.351562 52.167969 285.046875 49.128906 286.964844 46.210938 C 281.46875 45.160156 275.925781 44.636719 270.332031 44.632812 Z M 270.332031 44.632812 " fill-opacity="1" fill-rule="nonzero"/></g><path fill="#86a3bf" d="M 184.113281 122.707031 C 183.011719 122.707031 181.914062 122.734375 180.816406 122.789062 C 179.71875 122.84375 178.621094 122.925781 177.527344 123.03125 C 176.433594 123.140625 175.34375 123.273438 174.253906 123.433594 C 173.167969 123.597656 172.085938 123.785156 171.007812 124 C 169.929688 124.214844 168.855469 124.453125 167.789062 124.722656 C 166.722656 124.988281 165.664062 125.28125 164.613281 125.601562 C 163.5625 125.917969 162.515625 126.265625 161.480469 126.632812 C 160.445312 127.003906 159.421875 127.398438 158.40625 127.820312 C 157.390625 128.242188 156.386719 128.6875 155.390625 129.15625 C 154.398438 129.625 153.417969 130.121094 152.445312 130.636719 C 151.476562 131.15625 150.519531 131.699219 149.578125 132.261719 C 148.636719 132.828125 147.707031 133.414062 146.792969 134.027344 C 145.878906 134.636719 144.980469 135.269531 144.097656 135.925781 C 143.214844 136.578125 142.347656 137.253906 141.496094 137.953125 C 140.648438 138.648438 139.816406 139.367188 139 140.105469 C 138.1875 140.84375 137.390625 141.601562 136.613281 142.378906 C 135.835938 143.15625 135.078125 143.949219 134.339844 144.765625 C 133.601562 145.578125 132.882812 146.410156 132.1875 147.261719 C 131.488281 148.109375 130.8125 148.976562 130.15625 149.859375 C 129.503906 150.742188 128.871094 151.640625 128.257812 152.554688 C 127.648438 153.46875 127.0625 154.394531 126.496094 155.339844 C 125.929688 156.28125 125.386719 157.238281 124.871094 158.207031 C 124.351562 159.175781 123.859375 160.15625 123.386719 161.152344 C 122.917969 162.144531 122.472656 163.148438 122.050781 164.164062 C 121.632812 165.179688 121.234375 166.203125 120.867188 167.238281 C 120.496094 168.273438 120.148438 169.316406 119.832031 170.367188 C 119.511719 171.421875 119.21875 172.480469 118.953125 173.546875 C 118.683594 174.613281 118.445312 175.683594 118.230469 176.761719 C 118.015625 177.839844 117.828125 178.921875 117.664062 180.007812 C 117.503906 181.097656 117.371094 182.1875 117.261719 183.28125 C 117.15625 184.375 117.074219 185.46875 117.019531 186.566406 C 116.964844 187.664062 116.9375 188.761719 116.9375 189.863281 C 116.953125 192.347656 117.105469 194.828125 117.398438 197.296875 C 92.0625 201.84375 73.054688 222.300781 73.054688 246.996094 C 73.054688 275.054688 97.585938 297.644531 128.0625 297.644531 L 324.332031 297.644531 C 352.398438 297.644531 374.996094 276.648438 374.996094 250.566406 C 374.996094 224.648438 352.679688 203.761719 324.855469 203.503906 C 324.632812 201.765625 324.335938 200.039062 323.960938 198.328125 C 323.585938 196.621094 323.132812 194.929688 322.601562 193.257812 C 322.074219 191.589844 321.46875 189.945312 320.792969 188.332031 C 320.117188 186.714844 319.367188 185.132812 318.546875 183.585938 C 317.726562 182.039062 316.839844 180.53125 315.882812 179.0625 C 314.925781 177.597656 313.90625 176.175781 312.820312 174.800781 C 311.734375 173.425781 310.589844 172.101562 309.386719 170.828125 C 308.179688 169.558594 306.921875 168.34375 305.605469 167.183594 C 304.292969 166.027344 302.929688 164.929688 301.515625 163.894531 C 300.101562 162.859375 298.644531 161.890625 297.140625 160.988281 C 295.640625 160.085938 294.101562 159.25 292.527344 158.488281 C 290.949219 157.722656 289.339844 157.03125 287.703125 156.410156 C 286.0625 155.792969 284.398438 155.25 282.710938 154.78125 C 281.023438 154.3125 279.316406 153.921875 277.59375 153.605469 C 275.871094 153.289062 274.136719 153.054688 272.390625 152.894531 C 270.648438 152.738281 268.898438 152.660156 267.144531 152.660156 C 263.011719 152.664062 258.921875 153.109375 254.878906 153.984375 C 250.839844 154.863281 246.933594 156.15625 243.167969 157.867188 C 241.734375 155.222656 240.128906 152.683594 238.351562 150.253906 C 236.578125 147.820312 234.648438 145.519531 232.5625 143.347656 C 230.476562 141.179688 228.253906 139.15625 225.898438 137.285156 C 223.539062 135.410156 221.066406 133.703125 218.480469 132.164062 C 215.894531 130.625 213.214844 129.265625 210.445312 128.085938 C 207.675781 126.90625 204.839844 125.914062 201.933594 125.117188 C 199.03125 124.316406 196.089844 123.714844 193.105469 123.3125 C 190.121094 122.910156 187.125 122.707031 184.113281 122.707031 Z M 184.113281 122.707031 " fill-opacity="1" fill-rule="nonzero"/><path fill="#c6e0f7" d="M 111.085938 147.980469 C 109.984375 147.980469 108.886719 148.007812 107.789062 148.0625 C 106.691406 148.113281 105.59375 148.195312 104.5 148.304688 C 103.40625 148.410156 102.316406 148.546875 101.226562 148.707031 C 100.140625 148.867188 99.058594 149.054688 97.980469 149.269531 C 96.902344 149.484375 95.828125 149.726562 94.761719 149.992188 C 93.695312 150.257812 92.636719 150.550781 91.585938 150.871094 C 90.535156 151.191406 89.488281 151.535156 88.453125 151.90625 C 87.417969 152.277344 86.394531 152.671875 85.378906 153.09375 C 84.363281 153.511719 83.359375 153.957031 82.363281 154.429688 C 81.371094 154.898438 80.390625 155.390625 79.417969 155.910156 C 78.449219 156.429688 77.492188 156.96875 76.550781 157.535156 C 75.609375 158.097656 74.679688 158.6875 73.765625 159.296875 C 72.851562 159.910156 71.953125 160.542969 71.070312 161.195312 C 70.1875 161.851562 69.320312 162.527344 68.46875 163.222656 C 67.621094 163.921875 66.789062 164.636719 65.972656 165.375 C 65.160156 166.113281 64.363281 166.871094 63.585938 167.648438 C 62.808594 168.425781 62.050781 169.222656 61.3125 170.035156 C 60.574219 170.851562 59.855469 171.683594 59.160156 172.53125 C 58.460938 173.382812 57.785156 174.246094 57.128906 175.128906 C 56.476562 176.011719 55.84375 176.910156 55.230469 177.824219 C 54.621094 178.738281 54.035156 179.667969 53.46875 180.609375 C 52.902344 181.554688 52.363281 182.507812 51.84375 183.476562 C 51.324219 184.449219 50.832031 185.429688 50.359375 186.421875 C 49.890625 187.414062 49.445312 188.421875 49.023438 189.433594 C 48.605469 190.449219 48.207031 191.476562 47.839844 192.511719 C 47.46875 193.546875 47.121094 194.589844 46.804688 195.640625 C 46.484375 196.691406 46.191406 197.75 45.925781 198.816406 C 45.65625 199.882812 45.417969 200.953125 45.203125 202.03125 C 44.988281 203.109375 44.800781 204.191406 44.636719 205.28125 C 44.476562 206.367188 44.34375 207.457031 44.234375 208.550781 C 44.128906 209.644531 44.046875 210.742188 43.992188 211.839844 C 43.9375 212.9375 43.910156 214.035156 43.910156 215.132812 C 43.925781 217.621094 44.078125 220.097656 44.371094 222.566406 C 19.035156 227.113281 0.0273438 247.570312 0.0273438 272.269531 C 0.0273438 300.328125 24.558594 322.917969 55.035156 322.917969 L 251.304688 322.917969 C 279.371094 322.917969 301.96875 301.917969 301.96875 275.839844 C 301.96875 249.921875 279.652344 229.035156 251.828125 228.773438 C 251.605469 227.035156 251.308594 225.3125 250.933594 223.601562 C 250.558594 221.890625 250.105469 220.199219 249.574219 218.53125 C 249.046875 216.859375 248.445312 215.21875 247.765625 213.601562 C 247.089844 211.988281 246.339844 210.40625 245.519531 208.859375 C 244.699219 207.308594 243.8125 205.804688 242.855469 204.335938 C 241.898438 202.867188 240.878906 201.445312 239.792969 200.070312 C 238.707031 198.695312 237.5625 197.371094 236.359375 196.101562 C 235.152344 194.828125 233.894531 193.613281 232.578125 192.457031 C 231.265625 191.296875 229.902344 190.203125 228.488281 189.167969 C 227.074219 188.132812 225.617188 187.164062 224.113281 186.257812 C 222.613281 185.355469 221.074219 184.523438 219.5 183.757812 C 217.921875 182.992188 216.3125 182.300781 214.675781 181.683594 C 213.035156 181.0625 211.371094 180.519531 209.683594 180.050781 C 207.996094 179.582031 206.289062 179.191406 204.566406 178.875 C 202.84375 178.5625 201.109375 178.324219 199.363281 178.167969 C 197.621094 178.007812 195.871094 177.929688 194.117188 177.929688 C 189.984375 177.9375 185.894531 178.378906 181.851562 179.257812 C 177.8125 180.136719 173.90625 181.429688 170.140625 183.140625 C 168.707031 180.492188 167.101562 177.953125 165.324219 175.523438 C 163.550781 173.09375 161.621094 170.792969 159.535156 168.621094 C 157.449219 166.449219 155.226562 164.429688 152.871094 162.554688 C 150.511719 160.683594 148.039062 158.976562 145.453125 157.4375 C 142.867188 155.894531 140.1875 154.535156 137.417969 153.355469 C 134.648438 152.175781 131.8125 151.1875 128.90625 150.386719 C 126.003906 149.589844 123.0625 148.988281 120.078125 148.585938 C 117.09375 148.179688 114.097656 147.980469 111.085938 147.980469 Z M 111.085938 147.980469 " fill-opacity="1" fill-rule="nonzero"/></svg>