<svg xmlns="http://www.w3.org/2000/svg" xmlns:xlink="http://www.w3.org/1999/xlink" width="500" zoomAndPan="magnify" viewBox="0 0 375 374.999991" height="500" preserveAspectRatio="xMidYMid meet" version="1.0"><defs><clipPath id="223b35ced5"><path d="M 156.25 141.066406 L 280.75 141.066406 L 280.75 355.566406 L 156.25 355.566406 Z M 156.25 141.066406 " clip-rule="nonzero"/></clipPath><clipPath id="f021f0781a"><path d="M 110 19.648438 L 375 19.648438 L 375 173 L 110 173 Z M 110 19.648438 " clip-rule="nonzero"/></clipPath><clipPath id="d0c5b196c4"><path d="M 14 163 L 174 163 L 174 215.398438 L 14 215.398438 Z M 14 163 " clip-rule="nonzero"/></clipPath></defs><g clip-path="url(#223b35ced5)"><path fill="#fbc646" d="M 193.140625 141.070312 L 273.058594 141.070312 L 239.242188 204.035156 L 280.742188 204.035156 L 180.332031 355.558594 L 206.972656 243.960938 L 156.253906 243.960938 L 193.140625 141.070312 " fill-opacity="1" fill-rule="nonzero"/></g><g clip-path="url(#f021f0781a)"><path fill="#86a3bf" d="M 207.261719 19.753906 C 205.339844 19.753906 203.421875 19.847656 201.507812 20.035156 C 199.597656 20.222656 197.699219 20.507812 195.8125 20.882812 C 193.929688 21.257812 192.066406 21.722656 190.226562 22.28125 C 188.386719 22.839844 186.578125 23.484375 184.804688 24.222656 C 183.027344 24.957031 181.292969 25.777344 179.597656 26.683594 C 177.902344 27.589844 176.257812 28.578125 174.660156 29.648438 C 173.0625 30.714844 171.519531 31.859375 170.035156 33.078125 C 168.546875 34.296875 167.125 35.589844 165.765625 36.949219 C 164.40625 38.308594 163.117188 39.730469 161.898438 41.214844 C 160.679688 42.703125 159.535156 44.246094 158.46875 45.84375 C 157.402344 47.441406 156.414062 49.089844 155.507812 50.785156 C 154.601562 52.480469 153.78125 54.214844 153.046875 55.992188 C 152.308594 57.769531 151.664062 59.578125 151.105469 61.417969 C 150.546875 63.257812 150.082031 65.117188 149.707031 67.003906 C 149.332031 68.890625 149.050781 70.789062 148.859375 72.703125 C 148.671875 74.617188 148.578125 76.535156 148.578125 78.457031 C 148.589844 80.628906 148.726562 82.796875 148.980469 84.953125 C 126.847656 88.929688 110.242188 106.8125 110.242188 128.402344 C 110.242188 152.929688 131.671875 172.679688 158.292969 172.679688 L 329.757812 172.679688 C 354.277344 172.679688 374.015625 154.324219 374.015625 131.523438 C 374.015625 108.867188 354.519531 90.609375 330.214844 90.378906 C 330.023438 88.863281 329.761719 87.355469 329.433594 85.859375 C 329.105469 84.363281 328.710938 82.886719 328.246094 81.425781 C 327.785156 79.964844 327.257812 78.53125 326.667969 77.117188 C 326.074219 75.707031 325.421875 74.324219 324.703125 72.972656 C 323.988281 71.617188 323.210938 70.300781 322.375 69.015625 C 321.539062 67.734375 320.648438 66.492188 319.699219 65.289062 C 318.753906 64.085938 317.753906 62.929688 316.699219 61.820312 C 315.648438 60.707031 314.546875 59.644531 313.398438 58.632812 C 312.25 57.621094 311.058594 56.660156 309.824219 55.757812 C 308.589844 54.851562 307.316406 54.003906 306.003906 53.214844 C 304.695312 52.425781 303.347656 51.699219 301.972656 51.03125 C 300.59375 50.359375 299.191406 49.757812 297.757812 49.214844 C 296.328125 48.675781 294.875 48.199219 293.398438 47.789062 C 291.925781 47.378906 290.433594 47.039062 288.929688 46.761719 C 287.421875 46.488281 285.90625 46.28125 284.382812 46.140625 C 282.859375 46.003906 281.332031 45.933594 279.800781 45.933594 C 272.492188 45.945312 265.507812 47.464844 258.855469 50.488281 C 257.601562 48.175781 256.199219 45.957031 254.648438 43.832031 C 253.09375 41.707031 251.410156 39.695312 249.585938 37.796875 C 247.765625 35.898438 245.824219 34.132812 243.765625 32.496094 C 241.703125 30.859375 239.546875 29.367188 237.285156 28.019531 C 235.023438 26.671875 232.683594 25.484375 230.265625 24.453125 C 227.84375 23.421875 225.367188 22.554688 222.832031 21.859375 C 220.296875 21.160156 217.722656 20.632812 215.117188 20.28125 C 212.511719 19.929688 209.890625 19.753906 207.261719 19.753906 Z M 207.261719 19.753906 " fill-opacity="1" fill-rule="nonzero"/></g><path fill="#c6e0f7" d="M 143.464844 41.84375 C 141.542969 41.84375 139.625 41.9375 137.710938 42.128906 C 135.800781 42.316406 133.902344 42.597656 132.015625 42.972656 C 130.132812 43.347656 128.269531 43.8125 126.429688 44.371094 C 124.589844 44.929688 122.78125 45.578125 121.007812 46.3125 C 119.230469 47.050781 117.496094 47.871094 115.800781 48.777344 C 114.105469 49.683594 112.460938 50.671875 110.863281 51.738281 C 109.265625 52.804688 107.722656 53.949219 106.238281 55.171875 C 104.75 56.390625 103.328125 57.679688 101.96875 59.039062 C 100.609375 60.398438 99.320312 61.820312 98.101562 63.308594 C 96.882812 64.792969 95.738281 66.335938 94.671875 67.933594 C 93.605469 69.535156 92.617188 71.179688 91.710938 72.875 C 90.804688 74.570312 89.984375 76.308594 89.25 78.082031 C 88.511719 79.859375 87.867188 81.667969 87.308594 83.507812 C 86.75 85.347656 86.285156 87.210938 85.910156 89.097656 C 85.535156 90.980469 85.253906 92.882812 85.0625 94.792969 C 84.875 96.707031 84.78125 98.625 84.78125 100.546875 C 84.792969 102.722656 84.929688 104.886719 85.183594 107.046875 C 63.050781 111.023438 46.445312 128.902344 46.445312 150.492188 C 46.445312 175.023438 67.875 194.769531 94.496094 194.769531 L 265.960938 194.769531 C 290.480469 194.769531 310.21875 176.414062 310.21875 153.613281 C 310.21875 130.957031 290.722656 112.699219 266.417969 112.472656 C 266.226562 110.953125 265.964844 109.445312 265.636719 107.949219 C 265.308594 106.457031 264.914062 104.976562 264.449219 103.519531 C 263.988281 102.058594 263.460938 100.621094 262.871094 99.210938 C 262.277344 97.796875 261.625 96.414062 260.90625 95.0625 C 260.191406 93.710938 259.414062 92.390625 258.578125 91.109375 C 257.742188 89.824219 256.851562 88.582031 255.902344 87.382812 C 254.957031 86.179688 253.957031 85.023438 252.902344 83.910156 C 251.851562 82.796875 250.75 81.738281 249.601562 80.722656 C 248.453125 79.710938 247.261719 78.753906 246.027344 77.847656 C 244.792969 76.945312 243.519531 76.097656 242.207031 75.308594 C 240.898438 74.519531 239.550781 73.789062 238.175781 73.121094 C 236.796875 72.453125 235.394531 71.847656 233.960938 71.308594 C 232.53125 70.765625 231.078125 70.289062 229.601562 69.878906 C 228.125 69.472656 226.636719 69.128906 225.132812 68.855469 C 223.625 68.578125 222.109375 68.371094 220.585938 68.234375 C 219.0625 68.09375 217.535156 68.027344 216.003906 68.027344 C 208.695312 68.039062 201.710938 69.554688 195.058594 72.578125 C 193.804688 70.265625 192.402344 68.046875 190.851562 65.921875 C 189.296875 63.796875 187.613281 61.785156 185.789062 59.886719 C 183.96875 57.988281 182.027344 56.222656 179.96875 54.585938 C 177.90625 52.949219 175.75 51.457031 173.488281 50.109375 C 171.226562 48.765625 168.886719 47.574219 166.46875 46.542969 C 164.046875 45.511719 161.570312 44.648438 159.035156 43.949219 C 156.5 43.25 153.925781 42.726562 151.320312 42.375 C 148.714844 42.019531 146.09375 41.84375 143.464844 41.84375 Z M 143.464844 41.84375 " fill-opacity="1" fill-rule="nonzero"/><path fill="#3981bf" d="M 127.257812 81.621094 C 111.976562 81.621094 99.453125 94.019531 99.453125 109.234375 C 99.453125 109.539062 99.480469 109.835938 99.539062 110.132812 C 99.601562 110.429688 99.6875 110.71875 99.800781 110.996094 C 99.917969 111.277344 100.058594 111.542969 100.226562 111.792969 C 100.394531 112.042969 100.585938 112.277344 100.800781 112.488281 C 101.011719 112.703125 101.246094 112.894531 101.496094 113.0625 C 101.75 113.230469 102.011719 113.371094 102.292969 113.488281 C 102.570312 113.601562 102.859375 113.691406 103.15625 113.75 C 103.453125 113.808594 103.75 113.839844 104.054688 113.839844 C 104.355469 113.839844 104.65625 113.808594 104.949219 113.75 C 105.246094 113.691406 105.535156 113.601562 105.8125 113.488281 C 106.09375 113.371094 106.359375 113.230469 106.609375 113.0625 C 106.859375 112.894531 107.09375 112.703125 107.304688 112.488281 C 107.519531 112.277344 107.710938 112.042969 107.878906 111.792969 C 108.046875 111.542969 108.1875 111.277344 108.304688 110.996094 C 108.417969 110.71875 108.507812 110.429688 108.566406 110.132812 C 108.625 109.835938 108.652344 109.539062 108.652344 109.234375 C 108.652344 99.035156 116.90625 90.824219 127.257812 90.824219 C 137.605469 90.824219 145.859375 99.035156 145.859375 109.234375 C 145.859375 119.4375 137.605469 127.644531 127.257812 127.644531 L 5.925781 127.644531 C 5.625 127.644531 5.324219 127.675781 5.027344 127.734375 C 4.730469 127.792969 4.445312 127.878906 4.164062 127.996094 C 3.886719 128.109375 3.621094 128.253906 3.371094 128.421875 C 3.117188 128.589844 2.886719 128.78125 2.671875 128.992188 C 2.457031 129.207031 2.269531 129.4375 2.101562 129.691406 C 1.933594 129.941406 1.789062 130.207031 1.675781 130.484375 C 1.558594 130.765625 1.472656 131.054688 1.414062 131.351562 C 1.355469 131.644531 1.324219 131.945312 1.324219 132.246094 C 1.324219 132.550781 1.355469 132.847656 1.414062 133.144531 C 1.472656 133.441406 1.558594 133.730469 1.675781 134.007812 C 1.789062 134.289062 1.933594 134.554688 2.101562 134.804688 C 2.269531 135.054688 2.457031 135.289062 2.671875 135.5 C 2.886719 135.714844 3.117188 135.90625 3.371094 136.074219 C 3.621094 136.242188 3.886719 136.382812 4.164062 136.5 C 4.445312 136.613281 4.730469 136.703125 5.027344 136.761719 C 5.324219 136.820312 5.625 136.851562 5.925781 136.851562 L 127.257812 136.851562 C 142.535156 136.851562 155.058594 124.453125 155.058594 109.234375 C 155.058594 94.019531 142.535156 81.621094 127.257812 81.621094 Z M 127.257812 81.621094 " fill-opacity="1" fill-rule="nonzero"/><path fill="#3981bf" d="M 183.722656 108.621094 C 170.699219 108.621094 159.835938 118.859375 159.835938 131.632812 C 159.835938 131.933594 159.867188 132.234375 159.925781 132.53125 C 159.984375 132.824219 160.070312 133.113281 160.1875 133.394531 C 160.304688 133.671875 160.445312 133.9375 160.613281 134.1875 C 160.78125 134.441406 160.972656 134.671875 161.183594 134.886719 C 161.398438 135.097656 161.628906 135.289062 161.882812 135.457031 C 162.132812 135.625 162.398438 135.769531 162.675781 135.882812 C 162.957031 136 163.242188 136.085938 163.539062 136.144531 C 163.835938 136.203125 164.136719 136.234375 164.4375 136.234375 C 164.738281 136.234375 165.039062 136.203125 165.335938 136.144531 C 165.632812 136.085938 165.917969 136 166.199219 135.882812 C 166.476562 135.769531 166.742188 135.625 166.992188 135.457031 C 167.246094 135.289062 167.476562 135.097656 167.691406 134.886719 C 167.90625 134.671875 168.09375 134.441406 168.261719 134.1875 C 168.429688 133.9375 168.574219 133.671875 168.6875 133.394531 C 168.804688 133.113281 168.890625 132.824219 168.949219 132.53125 C 169.007812 132.234375 169.039062 131.933594 169.039062 131.632812 C 169.039062 124.070312 175.445312 117.824219 183.722656 117.824219 C 192 117.824219 198.410156 124.070312 198.410156 131.632812 C 198.410156 139.191406 192 145.4375 183.722656 145.4375 L 30.464844 145.4375 C 30.160156 145.4375 29.863281 145.46875 29.566406 145.527344 C 29.269531 145.585938 28.984375 145.671875 28.703125 145.789062 C 28.425781 145.90625 28.160156 146.046875 27.90625 146.214844 C 27.65625 146.382812 27.425781 146.574219 27.210938 146.785156 C 26.996094 147 26.804688 147.234375 26.640625 147.484375 C 26.472656 147.734375 26.328125 148 26.214844 148.28125 C 26.097656 148.558594 26.011719 148.847656 25.953125 149.144531 C 25.894531 149.441406 25.863281 149.738281 25.863281 150.039062 C 25.863281 150.34375 25.894531 150.640625 25.953125 150.9375 C 26.011719 151.234375 26.097656 151.523438 26.214844 151.800781 C 26.328125 152.082031 26.472656 152.347656 26.640625 152.597656 C 26.804688 152.847656 26.996094 153.082031 27.210938 153.296875 C 27.425781 153.507812 27.65625 153.699219 27.90625 153.867188 C 28.160156 154.035156 28.425781 154.175781 28.703125 154.292969 C 28.984375 154.410156 29.269531 154.496094 29.566406 154.554688 C 29.863281 154.613281 30.160156 154.644531 30.464844 154.644531 L 183.722656 154.644531 C 196.746094 154.644531 207.609375 144.40625 207.609375 131.632812 C 207.609375 118.859375 196.746094 108.621094 183.722656 108.621094 Z M 183.722656 108.621094 " fill-opacity="1" fill-rule="nonzero"/><g clip-path="url(#d0c5b196c4)"><path fill="#3981bf" d="M 19.417969 163.238281 C 19.117188 163.238281 18.820312 163.265625 18.523438 163.324219 C 18.226562 163.382812 17.9375 163.472656 17.660156 163.585938 C 17.378906 163.703125 17.113281 163.84375 16.863281 164.011719 C 16.613281 164.179688 16.378906 164.371094 16.167969 164.585938 C 15.953125 164.796875 15.761719 165.03125 15.59375 165.28125 C 15.425781 165.535156 15.285156 165.796875 15.167969 166.078125 C 15.054688 166.355469 14.964844 166.644531 14.90625 166.941406 C 14.847656 167.238281 14.820312 167.535156 14.820312 167.839844 C 14.820312 168.140625 14.847656 168.441406 14.90625 168.738281 C 14.964844 169.035156 15.054688 169.320312 15.167969 169.601562 C 15.285156 169.878906 15.425781 170.144531 15.59375 170.394531 C 15.761719 170.648438 15.953125 170.878906 16.167969 171.09375 C 16.378906 171.308594 16.613281 171.496094 16.863281 171.664062 C 17.113281 171.832031 17.378906 171.976562 17.660156 172.089844 C 17.9375 172.207031 18.226562 172.292969 18.523438 172.351562 C 18.820312 172.410156 19.117188 172.441406 19.417969 172.441406 L 147.125 172.441406 C 156.820312 172.441406 164.496094 180.023438 164.496094 189.398438 C 164.496094 198.769531 156.820312 206.355469 147.125 206.355469 C 137.429688 206.355469 129.753906 198.769531 129.753906 189.398438 C 129.753906 189.09375 129.726562 188.796875 129.667969 188.5 C 129.609375 188.203125 129.519531 187.914062 129.40625 187.636719 C 129.289062 187.355469 129.148438 187.089844 128.980469 186.839844 C 128.8125 186.589844 128.621094 186.355469 128.410156 186.140625 C 128.195312 185.929688 127.960938 185.738281 127.710938 185.570312 C 127.460938 185.402344 127.195312 185.261719 126.914062 185.144531 C 126.636719 185.027344 126.347656 184.941406 126.050781 184.882812 C 125.757812 184.824219 125.457031 184.792969 125.15625 184.792969 C 124.851562 184.792969 124.554688 184.824219 124.257812 184.882812 C 123.960938 184.941406 123.671875 185.027344 123.394531 185.144531 C 123.117188 185.261719 122.851562 185.402344 122.597656 185.570312 C 122.347656 185.738281 122.117188 185.929688 121.902344 186.140625 C 121.6875 186.355469 121.496094 186.589844 121.328125 186.839844 C 121.160156 187.089844 121.019531 187.355469 120.90625 187.636719 C 120.789062 187.914062 120.703125 188.203125 120.644531 188.5 C 120.582031 188.796875 120.554688 189.09375 120.554688 189.398438 C 120.554688 203.839844 132.550781 215.5625 147.125 215.5625 C 161.699219 215.5625 173.699219 203.839844 173.699219 189.398438 C 173.699219 174.953125 161.699219 163.238281 147.125 163.238281 Z M 19.417969 163.238281 " fill-opacity="1" fill-rule="nonzero"/></g></svg>