<svg xmlns="http://www.w3.org/2000/svg" xmlns:xlink="http://www.w3.org/1999/xlink" width="500" zoomAndPan="magnify" viewBox="0 0 375 374.999991" height="500" preserveAspectRatio="xMidYMid meet" version="1.0"><defs><clipPath id="df26fc6a09"><path d="M 143.753906 129.335938 L 286.253906 129.335938 L 286.253906 375 L 143.753906 375 Z M 143.753906 129.335938 " clip-rule="nonzero"/></clipPath><clipPath id="869ab58012"><path d="M 77 1 L 367.40625 1 L 367.40625 170 L 77 170 Z M 77 1 " clip-rule="nonzero"/></clipPath><clipPath id="585f91473b"><path d="M 7.40625 25 L 298 25 L 298 194 L 7.40625 194 Z M 7.40625 25 " clip-rule="nonzero"/></clipPath></defs><g clip-path="url(#df26fc6a09)"><path fill="#fbc646" d="M 185.980469 129.34375 L 277.453125 129.34375 L 238.746094 201.554688 L 286.246094 201.554688 L 171.316406 375.332031 L 201.808594 247.34375 L 143.757812 247.34375 L 185.980469 129.34375 " fill-opacity="1" fill-rule="nonzero"/></g><g clip-path="url(#869ab58012)"><path fill="#86a3bf" d="M 184.15625 1.050781 C 183.101562 1.050781 182.046875 1.078125 180.992188 1.128906 C 179.9375 1.179688 178.886719 1.257812 177.835938 1.359375 C 176.785156 1.464844 175.738281 1.59375 174.691406 1.75 C 173.648438 1.902344 172.609375 2.085938 171.574219 2.289062 C 170.539062 2.496094 169.511719 2.726562 168.484375 2.984375 C 167.460938 3.242188 166.445312 3.523438 165.4375 3.828125 C 164.425781 4.136719 163.425781 4.464844 162.429688 4.820312 C 161.4375 5.179688 160.453125 5.558594 159.476562 5.960938 C 158.503906 6.367188 157.539062 6.792969 156.582031 7.246094 C 155.628906 7.695312 154.6875 8.171875 153.757812 8.667969 C 152.824219 9.167969 151.90625 9.6875 151.003906 10.230469 C 150.097656 10.773438 149.207031 11.335938 148.328125 11.925781 C 147.449219 12.511719 146.589844 13.117188 145.742188 13.746094 C 144.894531 14.375 144.0625 15.027344 143.246094 15.695312 C 142.429688 16.367188 141.628906 17.054688 140.847656 17.765625 C 140.066406 18.472656 139.300781 19.203125 138.554688 19.949219 C 137.808594 20.695312 137.082031 21.457031 136.375 22.242188 C 135.664062 23.023438 134.976562 23.824219 134.304688 24.640625 C 133.636719 25.457031 132.988281 26.289062 132.359375 27.136719 C 131.730469 27.984375 131.121094 28.847656 130.535156 29.722656 C 129.949219 30.601562 129.386719 31.496094 128.84375 32.398438 C 128.300781 33.304688 127.78125 34.222656 127.28125 35.15625 C 126.785156 36.085938 126.3125 37.027344 125.859375 37.984375 C 125.410156 38.9375 124.980469 39.902344 124.578125 40.878906 C 124.171875 41.855469 123.792969 42.839844 123.4375 43.832031 C 123.082031 44.828125 122.75 45.828125 122.445312 46.839844 C 122.140625 47.851562 121.859375 48.867188 121.601562 49.890625 C 121.34375 50.917969 121.113281 51.945312 120.90625 52.980469 C 120.703125 54.015625 120.519531 55.058594 120.367188 56.101562 C 120.210938 57.144531 120.082031 58.195312 119.980469 59.246094 C 119.875 60.296875 119.796875 61.347656 119.746094 62.402344 C 119.695312 63.457031 119.667969 64.511719 119.667969 65.570312 C 119.683594 67.957031 119.828125 70.335938 120.109375 72.710938 C 95.789062 77.078125 77.539062 96.730469 77.539062 120.460938 C 77.539062 147.417969 101.089844 169.121094 130.347656 169.121094 L 318.765625 169.121094 C 345.710938 169.121094 367.402344 148.949219 367.402344 123.890625 C 367.402344 98.988281 345.976562 78.921875 319.269531 78.671875 C 319.054688 77.003906 318.769531 75.347656 318.410156 73.703125 C 318.046875 72.058594 317.613281 70.4375 317.105469 68.832031 C 316.597656 67.226562 316.019531 65.648438 315.367188 64.097656 C 314.71875 62.546875 314 61.027344 313.210938 59.539062 C 312.425781 58.050781 311.570312 56.605469 310.652344 55.195312 C 309.734375 53.785156 308.753906 52.417969 307.714844 51.097656 C 306.671875 49.777344 305.574219 48.503906 304.417969 47.28125 C 303.261719 46.058594 302.050781 44.894531 300.789062 43.78125 C 299.527344 42.667969 298.21875 41.613281 296.859375 40.621094 C 295.503906 39.625 294.105469 38.695312 292.664062 37.828125 C 291.222656 36.960938 289.746094 36.160156 288.234375 35.425781 C 286.71875 34.691406 285.175781 34.027344 283.601562 33.429688 C 282.027344 32.835938 280.433594 32.3125 278.8125 31.863281 C 277.191406 31.414062 275.554688 31.035156 273.898438 30.734375 C 272.242188 30.433594 270.578125 30.207031 268.902344 30.054688 C 267.230469 29.902344 265.550781 29.824219 263.867188 29.824219 C 255.835938 29.835938 248.164062 31.503906 240.851562 34.832031 C 239.472656 32.289062 237.933594 29.847656 236.226562 27.511719 C 234.523438 25.179688 232.667969 22.96875 230.667969 20.882812 C 228.664062 18.796875 226.53125 16.851562 224.269531 15.054688 C 222.003906 13.253906 219.632812 11.617188 217.148438 10.136719 C 214.664062 8.65625 212.09375 7.347656 209.433594 6.214844 C 206.773438 5.082031 204.050781 4.132812 201.265625 3.363281 C 198.476562 2.597656 195.652344 2.019531 192.789062 1.632812 C 189.921875 1.242188 187.046875 1.050781 184.15625 1.050781 Z M 184.15625 1.050781 " fill-opacity="1" fill-rule="nonzero"/></g><g clip-path="url(#585f91473b)"><path fill="#c6e0f7" d="M 114.050781 25.328125 C 112.992188 25.328125 111.9375 25.355469 110.886719 25.40625 C 109.832031 25.460938 108.777344 25.535156 107.726562 25.640625 C 106.679688 25.742188 105.628906 25.875 104.585938 26.027344 C 103.542969 26.183594 102.503906 26.363281 101.46875 26.570312 C 100.433594 26.777344 99.402344 27.007812 98.378906 27.261719 C 97.355469 27.519531 96.339844 27.800781 95.328125 28.109375 C 94.320312 28.414062 93.316406 28.746094 92.324219 29.101562 C 91.332031 29.457031 90.347656 29.835938 89.371094 30.242188 C 88.394531 30.644531 87.429688 31.074219 86.476562 31.523438 C 85.523438 31.976562 84.582031 32.449219 83.648438 32.949219 C 82.71875 33.445312 81.800781 33.964844 80.894531 34.507812 C 79.992188 35.050781 79.101562 35.617188 78.222656 36.203125 C 77.34375 36.789062 76.480469 37.398438 75.632812 38.027344 C 74.785156 38.65625 73.953125 39.304688 73.140625 39.976562 C 72.324219 40.644531 71.523438 41.335938 70.742188 42.042969 C 69.960938 42.753906 69.195312 43.480469 68.449219 44.226562 C 67.703125 44.972656 66.976562 45.738281 66.265625 46.519531 C 65.558594 47.304688 64.871094 48.101562 64.199219 48.917969 C 63.53125 49.734375 62.882812 50.566406 62.253906 51.414062 C 61.625 52.261719 61.015625 53.125 60.429688 54.003906 C 59.84375 54.882812 59.28125 55.773438 58.738281 56.679688 C 58.195312 57.585938 57.675781 58.503906 57.175781 59.433594 C 56.679688 60.367188 56.207031 61.308594 55.753906 62.261719 C 55.300781 63.21875 54.875 64.183594 54.472656 65.15625 C 54.066406 66.132812 53.6875 67.117188 53.332031 68.113281 C 52.976562 69.105469 52.644531 70.109375 52.339844 71.121094 C 52.03125 72.128906 51.75 73.148438 51.496094 74.171875 C 51.238281 75.195312 51.007812 76.226562 50.800781 77.261719 C 50.59375 78.296875 50.414062 79.335938 50.261719 80.382812 C 50.105469 81.425781 49.976562 82.472656 49.871094 83.523438 C 49.769531 84.574219 49.691406 85.628906 49.640625 86.683594 C 49.589844 87.738281 49.5625 88.792969 49.5625 89.847656 C 49.578125 92.238281 49.722656 94.617188 50.003906 96.988281 C 25.679688 101.359375 7.433594 121.011719 7.433594 144.738281 C 7.433594 171.699219 30.984375 193.398438 60.238281 193.398438 L 248.660156 193.398438 C 275.605469 193.398438 297.296875 173.226562 297.296875 148.167969 C 297.296875 123.269531 275.871094 103.203125 249.160156 102.953125 C 248.949219 101.28125 248.664062 99.625 248.304688 97.984375 C 247.941406 96.339844 247.507812 94.714844 247 93.109375 C 246.492188 91.507812 245.914062 89.929688 245.261719 88.375 C 244.613281 86.824219 243.894531 85.304688 243.105469 83.820312 C 242.320312 82.332031 241.464844 80.882812 240.546875 79.472656 C 239.628906 78.0625 238.648438 76.699219 237.609375 75.375 C 236.566406 74.054688 235.46875 72.785156 234.3125 71.5625 C 233.15625 70.339844 231.945312 69.171875 230.683594 68.058594 C 229.421875 66.949219 228.113281 65.894531 226.753906 64.898438 C 225.398438 63.90625 224 62.972656 222.558594 62.105469 C 221.117188 61.238281 219.640625 60.4375 218.125 59.703125 C 216.613281 58.96875 215.070312 58.304688 213.496094 57.710938 C 211.921875 57.117188 210.324219 56.59375 208.703125 56.144531 C 207.085938 55.691406 205.445312 55.316406 203.792969 55.015625 C 202.136719 54.710938 200.472656 54.484375 198.796875 54.332031 C 197.121094 54.179688 195.445312 54.105469 193.761719 54.105469 C 185.730469 54.117188 178.058594 55.785156 170.742188 59.109375 C 169.367188 56.566406 167.824219 54.128906 166.121094 51.792969 C 164.414062 49.457031 162.5625 47.246094 160.558594 45.160156 C 158.558594 43.074219 156.425781 41.132812 154.160156 39.332031 C 151.898438 37.535156 149.527344 35.894531 147.042969 34.414062 C 144.558594 32.933594 141.988281 31.628906 139.328125 30.496094 C 136.667969 29.359375 133.945312 28.410156 131.160156 27.644531 C 128.371094 26.875 125.546875 26.296875 122.683594 25.910156 C 119.816406 25.523438 116.941406 25.328125 114.050781 25.328125 Z M 114.050781 25.328125 " fill-opacity="1" fill-rule="nonzero"/></g><path fill="#3981bf" d="M 82.925781 162.789062 C 78.027344 168.316406 64.765625 179.390625 60.765625 194.46875 C 60.542969 195.304688 60.402344 196.160156 60.34375 197.023438 C 60.289062 197.890625 60.316406 198.753906 60.429688 199.613281 C 60.542969 200.472656 60.738281 201.3125 61.015625 202.136719 C 61.296875 202.957031 61.652344 203.742188 62.085938 204.496094 C 62.519531 205.246094 63.023438 205.949219 63.59375 206.601562 C 64.164062 207.253906 64.796875 207.84375 65.484375 208.371094 C 66.171875 208.898438 66.90625 209.355469 67.683594 209.738281 C 68.460938 210.125 69.269531 210.425781 70.105469 210.652344 C 70.941406 210.875 71.792969 211.015625 72.660156 211.074219 C 73.523438 211.128906 74.386719 211.101562 75.246094 210.988281 C 76.105469 210.875 76.949219 210.679688 77.769531 210.402344 C 78.589844 210.121094 79.375 209.765625 80.128906 209.332031 C 80.878906 208.898438 81.578125 208.394531 82.230469 207.824219 C 82.882812 207.25 83.472656 206.621094 84 205.933594 C 84.53125 205.242188 84.984375 204.511719 85.367188 203.734375 C 85.753906 202.953125 86.054688 202.144531 86.28125 201.308594 C 86.308594 201.199219 86.339844 201.089844 86.367188 200.976562 C 90.464844 185.144531 84.394531 169.976562 82.925781 162.789062 Z M 82.925781 162.789062 " fill-opacity="1" fill-rule="nonzero"/><path fill="#3981bf" d="M 143.300781 162.789062 C 138.402344 168.316406 125.144531 179.390625 121.144531 194.46875 C 120.917969 195.304688 120.777344 196.160156 120.722656 197.023438 C 120.664062 197.890625 120.691406 198.753906 120.804688 199.613281 C 120.917969 200.472656 121.117188 201.3125 121.394531 202.136719 C 121.671875 202.957031 122.027344 203.742188 122.460938 204.496094 C 122.894531 205.246094 123.398438 205.949219 123.96875 206.601562 C 124.542969 207.253906 125.171875 207.84375 125.859375 208.371094 C 126.546875 208.898438 127.28125 209.355469 128.058594 209.738281 C 128.835938 210.125 129.644531 210.425781 130.480469 210.652344 C 131.320312 210.875 132.171875 211.015625 133.035156 211.074219 C 133.902344 211.128906 134.765625 211.101562 135.625 210.988281 C 136.484375 210.875 137.324219 210.679688 138.144531 210.402344 C 138.96875 210.121094 139.753906 209.765625 140.503906 209.332031 C 141.253906 208.898438 141.957031 208.394531 142.609375 207.824219 C 143.261719 207.25 143.851562 206.621094 144.378906 205.933594 C 144.90625 205.242188 145.363281 204.511719 145.746094 203.734375 C 146.128906 202.953125 146.433594 202.144531 146.65625 201.308594 C 146.6875 201.199219 146.714844 201.089844 146.742188 200.976562 C 150.84375 185.144531 144.769531 169.976562 143.300781 162.789062 Z M 143.300781 162.789062 " fill-opacity="1" fill-rule="nonzero"/><path fill="#3981bf" d="M 203.777344 164.402344 C 198.878906 169.929688 185.621094 181.003906 181.617188 196.082031 C 181.394531 196.917969 181.253906 197.773438 181.199219 198.636719 C 181.140625 199.503906 181.167969 200.367188 181.28125 201.226562 C 181.394531 202.085938 181.589844 202.925781 181.871094 203.75 C 182.148438 204.570312 182.503906 205.355469 182.9375 206.109375 C 183.371094 206.859375 183.875 207.5625 184.445312 208.214844 C 185.019531 208.867188 185.648438 209.457031 186.335938 209.984375 C 187.023438 210.511719 187.757812 210.96875 188.535156 211.351562 C 189.3125 211.738281 190.121094 212.039062 190.957031 212.265625 C 191.796875 212.488281 192.648438 212.628906 193.511719 212.6875 C 194.378906 212.742188 195.242188 212.714844 196.101562 212.601562 C 196.960938 212.488281 197.800781 212.292969 198.621094 212.015625 C 199.441406 211.734375 200.230469 211.378906 200.980469 210.945312 C 201.730469 210.511719 202.433594 210.007812 203.085938 209.4375 C 203.738281 208.863281 204.328125 208.234375 204.855469 207.546875 C 205.382812 206.855469 205.839844 206.125 206.222656 205.347656 C 206.605469 204.566406 206.910156 203.757812 207.132812 202.921875 C 207.164062 202.8125 207.191406 202.703125 207.21875 202.589844 C 211.320312 186.757812 205.246094 171.589844 203.777344 164.402344 Z M 203.777344 164.402344 " fill-opacity="1" fill-rule="nonzero"/><path fill="#3981bf" d="M 113.160156 217.800781 C 108.261719 223.324219 95.003906 234.402344 91.003906 249.480469 C 90.78125 250.316406 90.640625 251.167969 90.582031 252.035156 C 90.527344 252.902344 90.554688 253.765625 90.667969 254.625 C 90.78125 255.484375 90.976562 256.324219 91.253906 257.148438 C 91.535156 257.96875 91.890625 258.753906 92.324219 259.507812 C 92.757812 260.257812 93.261719 260.960938 93.832031 261.613281 C 94.402344 262.265625 95.035156 262.855469 95.722656 263.382812 C 96.410156 263.910156 97.140625 264.367188 97.921875 264.75 C 98.699219 265.132812 99.503906 265.4375 100.34375 265.664062 C 101.179688 265.886719 102.03125 266.027344 102.898438 266.085938 C 103.761719 266.140625 104.625 266.113281 105.484375 266 C 106.34375 265.886719 107.1875 265.691406 108.007812 265.410156 C 108.828125 265.132812 109.613281 264.777344 110.367188 264.34375 C 111.117188 263.910156 111.816406 263.40625 112.46875 262.832031 C 113.121094 262.261719 113.710938 261.632812 114.238281 260.941406 C 114.769531 260.253906 115.222656 259.523438 115.605469 258.742188 C 115.992188 257.964844 116.292969 257.15625 116.519531 256.320312 C 116.546875 256.210938 116.578125 256.097656 116.601562 255.988281 C 120.703125 240.152344 114.632812 224.984375 113.160156 217.800781 Z M 113.160156 217.800781 " fill-opacity="1" fill-rule="nonzero"/><path fill="#3981bf" d="M 173.539062 217.800781 C 168.640625 223.324219 155.382812 234.402344 151.382812 249.480469 C 151.15625 250.316406 151.015625 251.167969 150.960938 252.035156 C 150.902344 252.902344 150.929688 253.765625 151.042969 254.625 C 151.15625 255.484375 151.351562 256.324219 151.632812 257.148438 C 151.910156 257.96875 152.265625 258.753906 152.699219 259.507812 C 153.132812 260.257812 153.636719 260.960938 154.207031 261.613281 C 154.78125 262.265625 155.410156 262.855469 156.097656 263.382812 C 156.785156 263.910156 157.519531 264.367188 158.296875 264.75 C 159.074219 265.132812 159.882812 265.4375 160.71875 265.664062 C 161.558594 265.886719 162.410156 266.027344 163.273438 266.085938 C 164.140625 266.140625 165.003906 266.113281 165.863281 266 C 166.722656 265.886719 167.5625 265.691406 168.382812 265.410156 C 169.207031 265.132812 169.992188 264.777344 170.742188 264.34375 C 171.492188 263.910156 172.195312 263.40625 172.847656 262.832031 C 173.5 262.261719 174.089844 261.632812 174.617188 260.941406 C 175.144531 260.253906 175.601562 259.523438 175.984375 258.742188 C 176.367188 257.964844 176.671875 257.15625 176.894531 256.320312 C 176.925781 256.210938 176.953125 256.097656 176.980469 255.988281 C 181.082031 240.152344 175.007812 224.984375 173.539062 217.800781 Z M 173.539062 217.800781 " fill-opacity="1" fill-rule="nonzero"/></svg>