<svg xmlns="http://www.w3.org/2000/svg" xmlns:xlink="http://www.w3.org/1999/xlink" width="500" zoomAndPan="magnify" viewBox="0 0 375 374.999991" height="500" preserveAspectRatio="xMidYMid meet" version="1.0"><defs><clipPath id="437da24abf"><path d="M 218 56.25 L 375 56.25 L 375 216 L 218 216 Z M 218 56.25 " clip-rule="nonzero"/></clipPath><clipPath id="4e868be32a"><path d="M 0 124 L 337 124 L 337 318.75 L 0 318.75 Z M 0 124 " clip-rule="nonzero"/></clipPath></defs><g clip-path="url(#437da24abf)"><path fill="#f5df00" d="M 297.820312 56.320312 C 296.519531 56.320312 295.21875 56.351562 293.917969 56.414062 C 292.617188 56.476562 291.320312 56.574219 290.023438 56.703125 C 288.726562 56.828125 287.4375 56.988281 286.148438 57.179688 C 284.859375 57.371094 283.578125 57.59375 282.300781 57.847656 C 281.023438 58.101562 279.753906 58.386719 278.492188 58.703125 C 277.230469 59.019531 275.976562 59.367188 274.730469 59.742188 C 273.484375 60.121094 272.246094 60.53125 271.023438 60.96875 C 269.796875 61.40625 268.582031 61.875 267.378906 62.375 C 266.175781 62.871094 264.988281 63.398438 263.808594 63.957031 C 262.632812 64.511719 261.46875 65.097656 260.324219 65.710938 C 259.175781 66.324219 258.042969 66.964844 256.925781 67.636719 C 255.808594 68.304688 254.710938 69 253.625 69.726562 C 252.542969 70.449219 251.480469 71.199219 250.433594 71.972656 C 249.390625 72.75 248.363281 73.550781 247.355469 74.375 C 246.351562 75.199219 245.363281 76.050781 244.398438 76.925781 C 243.433594 77.800781 242.492188 78.695312 241.570312 79.617188 C 240.652344 80.539062 239.753906 81.480469 238.878906 82.445312 C 238.003906 83.410156 237.15625 84.394531 236.328125 85.402344 C 235.503906 86.40625 234.703125 87.433594 233.925781 88.480469 C 233.152344 89.527344 232.402344 90.589844 231.679688 91.671875 C 230.957031 92.753906 230.261719 93.855469 229.589844 94.96875 C 228.921875 96.085938 228.28125 97.21875 227.667969 98.367188 C 227.050781 99.515625 226.46875 100.679688 225.910156 101.855469 C 225.355469 103.03125 224.828125 104.222656 224.328125 105.425781 C 223.832031 106.628906 223.363281 107.84375 222.921875 109.066406 C 222.484375 110.292969 222.078125 111.527344 221.699219 112.773438 C 221.320312 114.019531 220.972656 115.273438 220.65625 116.539062 C 220.339844 117.800781 220.054688 119.070312 219.800781 120.347656 C 219.546875 121.625 219.324219 122.90625 219.132812 124.195312 C 218.941406 125.480469 218.785156 126.773438 218.65625 128.070312 C 218.527344 129.363281 218.433594 130.664062 218.371094 131.964844 C 218.304688 133.261719 218.273438 134.566406 218.273438 135.867188 C 218.273438 137.167969 218.304688 138.46875 218.371094 139.769531 C 218.433594 141.070312 218.527344 142.367188 218.65625 143.664062 C 218.785156 144.960938 218.945312 146.25 219.132812 147.539062 C 219.324219 148.828125 219.546875 150.109375 219.800781 151.386719 C 220.054688 152.664062 220.339844 153.933594 220.65625 155.195312 C 220.972656 156.457031 221.320312 157.710938 221.699219 158.957031 C 222.078125 160.203125 222.484375 161.4375 222.921875 162.664062 C 223.363281 163.890625 223.832031 165.105469 224.328125 166.308594 C 224.828125 167.511719 225.355469 168.699219 225.910156 169.878906 C 226.46875 171.054688 227.050781 172.214844 227.667969 173.363281 C 228.28125 174.511719 228.921875 175.644531 229.589844 176.761719 C 230.261719 177.878906 230.957031 178.976562 231.679688 180.058594 C 232.402344 181.144531 233.152344 182.207031 233.929688 183.253906 C 234.703125 184.296875 235.503906 185.324219 236.328125 186.332031 C 237.15625 187.335938 238.003906 188.324219 238.878906 189.285156 C 239.753906 190.25 240.652344 191.195312 241.574219 192.113281 C 242.492188 193.035156 243.433594 193.933594 244.398438 194.808594 C 245.363281 195.679688 246.351562 196.53125 247.355469 197.355469 C 248.363281 198.183594 249.390625 198.984375 250.433594 199.757812 C 251.480469 200.535156 252.542969 201.285156 253.625 202.007812 C 254.710938 202.730469 255.808594 203.425781 256.925781 204.097656 C 258.042969 204.765625 259.175781 205.40625 260.324219 206.019531 C 261.46875 206.632812 262.632812 207.21875 263.808594 207.777344 C 264.988281 208.332031 266.175781 208.859375 267.378906 209.359375 C 268.582031 209.855469 269.796875 210.324219 271.023438 210.761719 C 272.246094 211.203125 273.484375 211.609375 274.730469 211.988281 C 275.976562 212.367188 277.230469 212.714844 278.492188 213.03125 C 279.753906 213.347656 281.023438 213.632812 282.300781 213.886719 C 283.578125 214.140625 284.859375 214.363281 286.148438 214.550781 C 287.4375 214.742188 288.726562 214.902344 290.023438 215.03125 C 291.320312 215.15625 292.617188 215.253906 293.917969 215.316406 C 295.21875 215.382812 296.519531 215.414062 297.820312 215.414062 C 299.984375 215.410156 302.144531 215.320312 304.300781 215.144531 C 306.453125 214.964844 308.601562 214.703125 310.734375 214.347656 C 312.867188 213.996094 314.984375 213.558594 317.082031 213.03125 C 319.183594 212.507812 321.253906 211.894531 323.304688 211.203125 C 325.351562 210.507812 327.371094 209.730469 329.355469 208.871094 C 331.339844 208.011719 333.289062 207.074219 335.195312 206.054688 C 337.105469 205.039062 338.96875 203.945312 340.789062 202.773438 C 342.609375 201.601562 344.375 200.359375 346.09375 199.046875 C 347.8125 197.734375 349.476562 196.351562 351.082031 194.902344 C 352.683594 193.449219 354.230469 191.9375 355.710938 190.363281 C 357.191406 188.785156 358.609375 187.152344 359.957031 185.460938 C 361.304688 183.769531 362.582031 182.027344 363.789062 180.230469 C 364.996094 178.433594 366.128906 176.59375 367.183594 174.707031 C 368.238281 172.816406 369.21875 170.890625 370.117188 168.921875 C 371.015625 166.953125 371.832031 164.953125 372.570312 162.917969 C 373.304688 160.886719 373.957031 158.824219 374.523438 156.738281 C 371.824219 157.09375 369.109375 157.28125 366.386719 157.292969 C 365.332031 157.292969 364.28125 157.265625 363.230469 157.214844 C 362.179688 157.164062 361.132812 157.085938 360.085938 156.984375 C 359.039062 156.878906 357.996094 156.75 356.953125 156.597656 C 355.914062 156.441406 354.875 156.261719 353.84375 156.058594 C 352.8125 155.851562 351.789062 155.621094 350.765625 155.367188 C 349.746094 155.109375 348.734375 154.832031 347.726562 154.523438 C 346.71875 154.21875 345.71875 153.890625 344.730469 153.535156 C 343.738281 153.179688 342.757812 152.800781 341.785156 152.398438 C 340.816406 151.996094 339.851562 151.570312 338.902344 151.121094 C 337.953125 150.671875 337.011719 150.199219 336.085938 149.703125 C 335.15625 149.207031 334.242188 148.6875 333.339844 148.148438 C 332.4375 147.605469 331.546875 147.042969 330.671875 146.460938 C 329.796875 145.875 328.9375 145.269531 328.09375 144.644531 C 327.25 144.015625 326.421875 143.371094 325.605469 142.703125 C 324.792969 142.035156 323.996094 141.347656 323.21875 140.640625 C 322.4375 139.933594 321.675781 139.210938 320.933594 138.464844 C 320.1875 137.722656 319.464844 136.960938 318.757812 136.179688 C 318.050781 135.402344 317.363281 134.605469 316.695312 133.792969 C 316.027344 132.980469 315.382812 132.148438 314.753906 131.304688 C 314.128906 130.460938 313.523438 129.601562 312.9375 128.726562 C 312.355469 127.851562 311.792969 126.960938 311.25 126.058594 C 310.710938 125.15625 310.191406 124.242188 309.695312 123.316406 C 309.199219 122.386719 308.726562 121.449219 308.277344 120.496094 C 307.828125 119.546875 307.402344 118.582031 307 117.613281 C 306.597656 116.640625 306.21875 115.660156 305.863281 114.667969 C 305.507812 113.679688 305.179688 112.679688 304.875 111.671875 C 304.566406 110.664062 304.289062 109.652344 304.03125 108.632812 C 303.777344 107.613281 303.546875 106.585938 303.339844 105.554688 C 303.136719 104.523438 302.957031 103.484375 302.800781 102.445312 C 302.648438 101.40625 302.519531 100.359375 302.414062 99.3125 C 302.3125 98.265625 302.234375 97.21875 302.183594 96.167969 C 302.132812 95.117188 302.105469 94.066406 302.105469 93.011719 C 302.109375 86.742188 303.015625 80.601562 304.816406 74.59375 C 306.621094 68.589844 309.246094 62.964844 312.695312 57.726562 C 307.78125 56.789062 302.824219 56.320312 297.820312 56.320312 Z M 297.820312 56.320312 " fill-opacity="1" fill-rule="nonzero"/></g><g clip-path="url(#4e868be32a)"><path fill="#c6e0f7" d="M 124.183594 124.074219 C 122.960938 124.074219 121.738281 124.105469 120.515625 124.164062 C 119.292969 124.222656 118.074219 124.3125 116.859375 124.433594 C 115.640625 124.554688 114.425781 124.703125 113.21875 124.882812 C 112.007812 125.0625 110.800781 125.269531 109.601562 125.511719 C 108.402344 125.75 107.210938 126.015625 106.023438 126.3125 C 104.835938 126.609375 103.660156 126.9375 102.488281 127.292969 C 101.316406 127.648438 100.15625 128.03125 99.003906 128.441406 C 97.855469 128.855469 96.710938 129.296875 95.582031 129.761719 C 94.453125 130.230469 93.335938 130.726562 92.230469 131.25 C 91.125 131.773438 90.03125 132.324219 88.953125 132.898438 C 87.875 133.476562 86.808594 134.078125 85.761719 134.707031 C 84.710938 135.335938 83.679688 135.992188 82.660156 136.667969 C 81.644531 137.347656 80.644531 138.054688 79.664062 138.78125 C 78.679688 139.511719 77.714844 140.261719 76.769531 141.039062 C 75.824219 141.816406 74.898438 142.613281 73.992188 143.433594 C 73.085938 144.257812 72.199219 145.097656 71.335938 145.964844 C 70.472656 146.828125 69.628906 147.714844 68.808594 148.621094 C 67.984375 149.527344 67.1875 150.453125 66.410156 151.398438 C 65.636719 152.34375 64.882812 153.308594 64.152344 154.289062 C 63.425781 155.273438 62.722656 156.273438 62.042969 157.289062 C 61.363281 158.308594 60.707031 159.339844 60.078125 160.390625 C 59.449219 161.4375 58.847656 162.5 58.269531 163.582031 C 57.695312 164.660156 57.144531 165.75 56.621094 166.855469 C 56.097656 167.960938 55.601562 169.082031 55.136719 170.210938 C 54.667969 171.339844 54.226562 172.480469 53.816406 173.632812 C 53.402344 174.785156 53.019531 175.945312 52.664062 177.117188 C 52.308594 178.285156 51.984375 179.464844 51.6875 180.652344 C 51.390625 181.839844 51.121094 183.03125 50.882812 184.230469 C 50.644531 185.429688 50.433594 186.636719 50.253906 187.84375 C 50.074219 189.054688 49.925781 190.269531 49.804688 191.484375 C 49.6875 192.703125 49.597656 193.921875 49.535156 195.144531 C 49.476562 196.367188 49.445312 197.585938 49.445312 198.8125 C 49.464844 201.578125 49.632812 204.335938 49.957031 207.082031 C 21.769531 212.144531 0.621094 234.910156 0.621094 262.398438 C 0.621094 293.625 27.917969 318.765625 61.820312 318.765625 L 280.191406 318.765625 C 311.417969 318.765625 336.558594 295.398438 336.558594 266.371094 C 336.558594 237.527344 311.730469 214.28125 280.773438 213.992188 C 280.527344 212.058594 280.195312 210.136719 279.777344 208.234375 C 279.359375 206.332031 278.855469 204.449219 278.269531 202.589844 C 277.679688 200.734375 277.007812 198.90625 276.253906 197.105469 C 275.5 195.308594 274.667969 193.550781 273.753906 191.828125 C 272.84375 190.105469 271.855469 188.425781 270.789062 186.792969 C 269.726562 185.160156 268.589844 183.578125 267.382812 182.046875 C 266.175781 180.515625 264.902344 179.042969 263.5625 177.628906 C 262.222656 176.214844 260.820312 174.859375 259.359375 173.570312 C 257.894531 172.285156 256.378906 171.0625 254.804688 169.910156 C 253.230469 168.757812 251.609375 167.679688 249.941406 166.675781 C 248.269531 165.671875 246.558594 164.742188 244.804688 163.890625 C 243.050781 163.042969 241.261719 162.273438 239.4375 161.582031 C 237.613281 160.894531 235.761719 160.289062 233.886719 159.765625 C 232.007812 159.246094 230.109375 158.808594 228.191406 158.460938 C 226.273438 158.109375 224.34375 157.847656 222.402344 157.671875 C 220.460938 157.496094 218.515625 157.40625 216.566406 157.40625 C 211.964844 157.414062 207.417969 157.90625 202.917969 158.882812 C 198.421875 159.859375 194.078125 161.300781 189.890625 163.203125 C 188.292969 160.257812 186.507812 157.433594 184.53125 154.726562 C 182.554688 152.023438 180.40625 149.460938 178.085938 147.046875 C 175.765625 144.628906 173.296875 142.378906 170.671875 140.296875 C 168.050781 138.210938 165.300781 136.3125 162.421875 134.597656 C 159.542969 132.882812 156.5625 131.371094 153.480469 130.058594 C 150.398438 128.742188 147.242188 127.640625 144.011719 126.753906 C 140.78125 125.863281 137.507812 125.195312 134.1875 124.746094 C 130.867188 124.296875 127.535156 124.074219 124.183594 124.074219 Z M 124.183594 124.074219 " fill-opacity="1" fill-rule="nonzero"/></g></svg>