<svg xmlns="http://www.w3.org/2000/svg" xmlns:xlink="http://www.w3.org/1999/xlink" width="500" zoomAndPan="magnify" viewBox="0 0 375 374.999991" height="500" preserveAspectRatio="xMidYMid meet" version="1.0"><defs><clipPath id="cbd886cd5a"><path d="M 250 53.183594 L 267 53.183594 L 267 92 L 250 92 Z M 250 53.183594 " clip-rule="nonzero"/></clipPath><clipPath id="b6150e9602"><path d="M 0 146 L 304 146 L 304 321.683594 L 0 321.683594 Z M 0 146 " clip-rule="nonzero"/></clipPath></defs><path fill="#ffcc00" d="M 317.742188 169.210938 C 317.742188 171.148438 317.644531 173.078125 317.457031 175.003906 C 317.265625 176.929688 316.984375 178.839844 316.605469 180.738281 C 316.226562 182.636719 315.757812 184.511719 315.195312 186.363281 C 314.632812 188.214844 313.980469 190.035156 313.242188 191.820312 C 312.5 193.609375 311.671875 195.355469 310.761719 197.0625 C 309.847656 198.769531 308.855469 200.425781 307.777344 202.035156 C 306.703125 203.644531 305.550781 205.195312 304.324219 206.691406 C 303.09375 208.1875 301.796875 209.621094 300.429688 210.988281 C 299.058594 212.355469 297.625 213.65625 296.128906 214.882812 C 294.632812 216.109375 293.082031 217.261719 291.46875 218.335938 C 289.859375 219.410156 288.203125 220.40625 286.496094 221.316406 C 284.789062 222.230469 283.039062 223.054688 281.25 223.796875 C 279.460938 224.535156 277.640625 225.1875 275.789062 225.75 C 273.9375 226.3125 272.0625 226.78125 270.164062 227.15625 C 268.265625 227.535156 266.351562 227.820312 264.425781 228.007812 C 262.496094 228.199219 260.566406 228.292969 258.628906 228.292969 C 256.695312 228.292969 254.761719 228.199219 252.835938 228.007812 C 250.910156 227.820312 248.996094 227.535156 247.097656 227.15625 C 245.199219 226.78125 243.324219 226.3125 241.472656 225.75 C 239.621094 225.1875 237.800781 224.535156 236.011719 223.796875 C 234.222656 223.054688 232.472656 222.230469 230.765625 221.316406 C 229.058594 220.40625 227.402344 219.410156 225.789062 218.335938 C 224.179688 217.261719 222.628906 216.109375 221.132812 214.882812 C 219.636719 213.65625 218.203125 212.355469 216.832031 210.988281 C 215.464844 209.621094 214.167969 208.1875 212.9375 206.691406 C 211.710938 205.195312 210.558594 203.644531 209.484375 202.035156 C 208.40625 200.425781 207.414062 198.769531 206.5 197.0625 C 205.585938 195.355469 204.761719 193.609375 204.019531 191.820312 C 203.28125 190.035156 202.628906 188.214844 202.066406 186.363281 C 201.503906 184.511719 201.035156 182.636719 200.65625 180.738281 C 200.277344 178.839844 199.996094 176.929688 199.804688 175.003906 C 199.617188 173.078125 199.519531 171.148438 199.519531 169.210938 C 199.519531 167.277344 199.617188 165.347656 199.804688 163.421875 C 199.996094 161.496094 200.277344 159.582031 200.65625 157.683594 C 201.035156 155.789062 201.503906 153.914062 202.066406 152.0625 C 202.628906 150.210938 203.28125 148.390625 204.019531 146.601562 C 204.761719 144.8125 205.585938 143.066406 206.5 141.359375 C 207.414062 139.652344 208.40625 137.996094 209.484375 136.386719 C 210.558594 134.777344 211.710938 133.226562 212.9375 131.730469 C 214.167969 130.234375 215.464844 128.804688 216.832031 127.433594 C 218.203125 126.066406 219.636719 124.769531 221.132812 123.539062 C 222.628906 122.3125 224.179688 121.160156 225.789062 120.085938 C 227.402344 119.011719 229.058594 118.019531 230.765625 117.105469 C 232.472656 116.195312 234.222656 115.367188 236.011719 114.628906 C 237.800781 113.886719 239.621094 113.234375 241.472656 112.675781 C 243.324219 112.113281 245.199219 111.644531 247.097656 111.265625 C 248.996094 110.886719 250.910156 110.605469 252.835938 110.414062 C 254.761719 110.226562 256.695312 110.128906 258.628906 110.128906 C 260.566406 110.128906 262.496094 110.226562 264.425781 110.414062 C 266.351562 110.605469 268.265625 110.886719 270.164062 111.265625 C 272.0625 111.644531 273.9375 112.113281 275.789062 112.675781 C 277.640625 113.234375 279.460938 113.886719 281.25 114.628906 C 283.039062 115.367188 284.789062 116.195312 286.496094 117.105469 C 288.203125 118.019531 289.859375 119.011719 291.46875 120.085938 C 293.082031 121.160156 294.632812 122.3125 296.128906 123.539062 C 297.625 124.769531 299.058594 126.066406 300.429688 127.433594 C 301.796875 128.804688 303.09375 130.234375 304.324219 131.730469 C 305.550781 133.226562 306.703125 134.777344 307.777344 136.386719 C 308.855469 137.996094 309.847656 139.652344 310.761719 141.359375 C 311.671875 143.066406 312.5 144.8125 313.242188 146.601562 C 313.980469 148.390625 314.632812 150.210938 315.195312 152.0625 C 315.757812 153.914062 316.226562 155.789062 316.605469 157.683594 C 316.984375 159.582031 317.265625 161.496094 317.457031 163.421875 C 317.644531 165.347656 317.742188 167.277344 317.742188 169.210938 Z M 317.742188 169.210938 " fill-opacity="1" fill-rule="nonzero"/><g clip-path="url(#cbd886cd5a)"><path fill="#ffcc00" d="M 258.628906 53.15625 C 254.339844 53.15625 250.890625 57.296875 250.890625 62.441406 L 250.890625 82.558594 C 250.890625 87.699219 254.339844 91.84375 258.628906 91.84375 C 262.917969 91.84375 266.371094 87.699219 266.371094 82.558594 L 266.371094 62.441406 C 266.371094 57.296875 262.917969 53.15625 258.628906 53.15625 Z M 258.628906 53.15625 " fill-opacity="1" fill-rule="nonzero"/></g><path fill="#ffcc00" d="M 340.734375 87.148438 C 337.703125 84.117188 332.332031 84.605469 328.691406 88.242188 L 314.460938 102.46875 C 310.820312 106.105469 310.332031 111.472656 313.367188 114.503906 C 316.398438 117.535156 321.769531 117.046875 325.40625 113.410156 L 339.640625 99.183594 C 343.277344 95.546875 343.765625 90.179688 340.734375 87.148438 Z M 340.734375 87.148438 " fill-opacity="1" fill-rule="nonzero"/><path fill="#ffcc00" d="M 374.742188 169.210938 C 374.742188 164.925781 370.597656 161.476562 365.453125 161.476562 L 345.328125 161.476562 C 340.179688 161.476562 336.039062 164.925781 336.039062 169.210938 C 336.039062 173.5 340.179688 176.949219 345.328125 176.949219 L 365.453125 176.949219 C 370.597656 176.949219 374.742188 173.5 374.742188 169.210938 Z M 374.742188 169.210938 " fill-opacity="1" fill-rule="nonzero"/><path fill="#ffcc00" d="M 340.734375 251.277344 C 343.765625 248.246094 343.277344 242.878906 339.640625 239.242188 L 325.40625 225.015625 C 321.769531 221.378906 316.398438 220.890625 313.367188 223.921875 C 310.332031 226.953125 310.820312 232.320312 314.460938 235.957031 L 328.691406 250.183594 C 332.332031 253.820312 337.703125 254.308594 340.734375 251.277344 Z M 340.734375 251.277344 " fill-opacity="1" fill-rule="nonzero"/><path fill="#ffcc00" d="M 258.628906 285.269531 C 262.917969 285.269531 266.371094 281.128906 266.371094 275.984375 L 266.371094 255.867188 C 266.371094 250.726562 262.917969 246.582031 258.628906 246.582031 C 254.339844 246.582031 250.890625 250.726562 250.890625 255.867188 L 250.890625 275.984375 C 250.890625 281.128906 254.339844 285.269531 258.628906 285.269531 Z M 258.628906 285.269531 " fill-opacity="1" fill-rule="nonzero"/><path fill="#ffcc00" d="M 176.527344 251.277344 C 179.558594 254.308594 184.929688 253.820312 188.566406 250.183594 L 202.800781 235.957031 C 206.4375 232.320312 206.925781 226.953125 203.894531 223.921875 C 200.863281 220.890625 195.492188 221.378906 191.851562 225.015625 L 177.621094 239.242188 C 173.980469 242.878906 173.492188 248.246094 176.527344 251.277344 Z M 176.527344 251.277344 " fill-opacity="1" fill-rule="nonzero"/><path fill="#ffcc00" d="M 142.519531 169.210938 C 142.519531 173.5 146.660156 176.949219 151.808594 176.949219 L 171.933594 176.949219 C 177.078125 176.949219 181.222656 173.5 181.222656 169.210938 C 181.222656 164.925781 177.078125 161.476562 171.933594 161.476562 L 151.808594 161.476562 C 146.660156 161.476562 142.519531 164.925781 142.519531 169.210938 Z M 142.519531 169.210938 " fill-opacity="1" fill-rule="nonzero"/><path fill="#ffcc00" d="M 176.527344 87.148438 C 173.492188 90.179688 173.980469 95.546875 177.621094 99.183594 L 191.851562 113.410156 C 195.492188 117.046875 200.863281 117.535156 203.894531 114.503906 C 206.925781 111.472656 206.4375 106.105469 202.800781 102.46875 L 188.570312 88.242188 C 184.929688 84.605469 179.558594 84.117188 176.527344 87.148438 Z M 176.527344 87.148438 " fill-opacity="1" fill-rule="nonzero"/><g clip-path="url(#b6150e9602)"><path fill="#c6e0f7" d="M 111.71875 146.410156 C 110.613281 146.410156 109.515625 146.4375 108.414062 146.492188 C 107.3125 146.546875 106.214844 146.628906 105.117188 146.734375 C 104.023438 146.84375 102.929688 146.976562 101.839844 147.140625 C 100.75 147.300781 99.664062 147.488281 98.582031 147.703125 C 97.503906 147.917969 96.429688 148.160156 95.359375 148.429688 C 94.289062 148.695312 93.230469 148.988281 92.175781 149.308594 C 91.121094 149.628906 90.074219 149.972656 89.039062 150.34375 C 88 150.714844 86.972656 151.113281 85.953125 151.535156 C 84.9375 151.957031 83.929688 152.402344 82.933594 152.871094 C 81.9375 153.34375 80.953125 153.839844 79.984375 154.355469 C 79.011719 154.875 78.050781 155.417969 77.109375 155.984375 C 76.164062 156.550781 75.230469 157.140625 74.316406 157.753906 C 73.398438 158.363281 72.5 158.996094 71.613281 159.652344 C 70.730469 160.308594 69.863281 160.988281 69.011719 161.6875 C 68.15625 162.382812 67.324219 163.101562 66.507812 163.84375 C 65.691406 164.582031 64.894531 165.339844 64.113281 166.121094 C 63.335938 166.898438 62.578125 167.695312 61.835938 168.511719 C 61.097656 169.328125 60.378906 170.160156 59.679688 171.011719 C 58.980469 171.863281 58.300781 172.730469 57.644531 173.617188 C 56.988281 174.5 56.355469 175.402344 55.742188 176.316406 C 55.128906 177.230469 54.542969 178.160156 53.976562 179.105469 C 53.410156 180.050781 52.867188 181.007812 52.347656 181.980469 C 51.828125 182.953125 51.332031 183.933594 50.859375 184.929688 C 50.390625 185.925781 49.945312 186.933594 49.523438 187.949219 C 49.101562 188.964844 48.703125 189.992188 48.332031 191.03125 C 47.960938 192.066406 47.617188 193.113281 47.296875 194.167969 C 46.976562 195.21875 46.683594 196.28125 46.414062 197.347656 C 46.148438 198.417969 45.90625 199.492188 45.691406 200.570312 C 45.476562 201.652344 45.289062 202.738281 45.125 203.824219 C 44.964844 204.914062 44.828125 206.007812 44.722656 207.101562 C 44.613281 208.199219 44.53125 209.296875 44.480469 210.398438 C 44.425781 211.496094 44.398438 212.597656 44.398438 213.699219 C 44.414062 216.191406 44.566406 218.671875 44.855469 221.148438 C 19.46875 225.703125 0.417969 246.199219 0.417969 270.945312 C 0.417969 299.0625 25.003906 321.695312 55.542969 321.695312 L 252.242188 321.695312 C 280.371094 321.695312 303.015625 300.65625 303.015625 274.523438 C 303.015625 248.554688 280.648438 227.625 252.765625 227.367188 C 252.542969 225.625 252.246094 223.898438 251.867188 222.183594 C 251.492188 220.46875 251.039062 218.773438 250.507812 217.101562 C 249.976562 215.429688 249.375 213.78125 248.695312 212.164062 C 248.015625 210.546875 247.265625 208.960938 246.445312 207.410156 C 245.621094 205.859375 244.730469 204.347656 243.773438 202.878906 C 242.8125 201.410156 241.789062 199.984375 240.703125 198.605469 C 239.617188 197.226562 238.46875 195.902344 237.261719 194.628906 C 236.054688 193.351562 234.792969 192.136719 233.476562 190.976562 C 232.15625 189.816406 230.789062 188.714844 229.375 187.679688 C 227.957031 186.644531 226.496094 185.671875 224.992188 184.765625 C 223.488281 183.863281 221.945312 183.027344 220.367188 182.261719 C 218.785156 181.496094 217.175781 180.800781 215.53125 180.183594 C 213.890625 179.5625 212.222656 179.015625 210.53125 178.546875 C 208.839844 178.078125 207.128906 177.683594 205.402344 177.371094 C 203.675781 177.054688 201.9375 176.816406 200.1875 176.660156 C 198.441406 176.5 196.6875 176.421875 194.929688 176.421875 C 190.785156 176.429688 186.6875 176.871094 182.636719 177.75 C 178.585938 178.628906 174.675781 179.925781 170.902344 181.640625 C 169.464844 178.988281 167.855469 176.445312 166.074219 174.011719 C 164.296875 171.574219 162.359375 169.269531 160.269531 167.09375 C 158.179688 164.917969 155.953125 162.890625 153.59375 161.015625 C 151.230469 159.140625 148.75 157.429688 146.160156 155.886719 C 143.566406 154.34375 140.882812 152.980469 138.105469 151.796875 C 135.332031 150.617188 132.488281 149.625 129.578125 148.824219 C 126.667969 148.023438 123.71875 147.421875 120.730469 147.015625 C 117.738281 146.613281 114.734375 146.410156 111.71875 146.410156 Z M 111.71875 146.410156 " fill-opacity="1" fill-rule="nonzero"/></g></svg>