<svg xmlns="http://www.w3.org/2000/svg" xmlns:xlink="http://www.w3.org/1999/xlink" width="500" zoomAndPan="magnify" viewBox="0 0 375 374.999991" height="500" preserveAspectRatio="xMidYMid meet" version="1.0"><defs><clipPath id="55632901b6"><path d="M 16 50.859375 L 211 50.859375 L 211 145 L 16 145 Z M 16 50.859375 " clip-rule="nonzero"/></clipPath><clipPath id="b2d0250982"><path d="M 107 282 L 149 282 L 149 323.859375 L 107 323.859375 Z M 107 282 " clip-rule="nonzero"/></clipPath><clipPath id="0b07777fc4"><path d="M 226 282 L 268 282 L 268 323.859375 L 226 323.859375 Z M 226 282 " clip-rule="nonzero"/></clipPath><clipPath id="63ac502b5d"><path d="M 117.320312 235.210938 L 139.820312 235.210938 L 139.820312 266.710938 L 117.320312 266.710938 Z M 117.320312 235.210938 " clip-rule="nonzero"/></clipPath><clipPath id="86675b7cdb"><path d="M 234.171875 235.210938 L 256.671875 235.210938 L 256.671875 266.710938 L 234.171875 266.710938 Z M 234.171875 235.210938 " clip-rule="nonzero"/></clipPath><clipPath id="7af4fdf115"><path d="M 178.503906 292.84375 L 196.503906 292.84375 L 196.503906 317.59375 L 178.503906 317.59375 Z M 178.503906 292.84375 " clip-rule="nonzero"/></clipPath></defs><g clip-path="url(#55632901b6)"><path fill="#c6e0f7" d="M 191.597656 144.671875 C 191.363281 144.6875 191.128906 144.695312 190.890625 144.695312 L 39.292969 144.695312 C 39.191406 144.695312 39.085938 144.695312 38.984375 144.691406 C 38.875 144.691406 38.765625 144.695312 38.664062 144.695312 C 26.496094 144.695312 16.632812 134.84375 16.632812 122.691406 C 16.632812 110.535156 26.496094 100.683594 38.664062 100.683594 C 41.320312 100.683594 43.867188 101.15625 46.226562 102.015625 C 47.792969 86.632812 60.796875 74.628906 76.605469 74.628906 C 77.125 74.628906 77.644531 74.644531 78.160156 74.671875 C 84.285156 60.65625 98.277344 50.863281 114.558594 50.863281 C 133.144531 50.863281 148.742188 63.621094 153.066406 80.84375 C 155.949219 79.945312 159.011719 79.457031 162.191406 79.457031 C 178.515625 79.457031 191.851562 92.253906 192.691406 108.355469 C 202.636719 108.46875 210.667969 116.558594 210.667969 126.523438 C 210.667969 136.558594 202.523438 144.691406 192.484375 144.691406 C 192.183594 144.695312 191.890625 144.683594 191.597656 144.671875 Z M 191.597656 144.671875 " fill-opacity="1" fill-rule="evenodd"/></g><path fill="#86a3bf" d="M 355.160156 194.394531 C 353.695312 194.8125 352.152344 195.039062 350.554688 195.039062 L 191.953125 195.039062 C 191.808594 195.039062 191.664062 195.039062 191.515625 195.035156 C 191.367188 195.035156 191.21875 195.039062 191.070312 195.039062 C 174.050781 195.039062 160.257812 181.257812 160.257812 164.261719 C 160.257812 147.261719 174.050781 133.480469 191.070312 133.480469 C 194.785156 133.480469 198.347656 134.140625 201.644531 135.347656 C 203.839844 113.832031 222.027344 97.046875 244.144531 97.046875 C 246.855469 97.046875 249.515625 97.300781 252.089844 97.785156 C 262.167969 83.761719 278.628906 74.628906 297.226562 74.628906 C 327.898438 74.628906 352.761719 99.464844 352.761719 130.101562 C 352.761719 134.996094 352.125 139.742188 350.929688 144.265625 C 364.277344 145.042969 374.863281 156.097656 374.863281 169.628906 C 374.863281 181.691406 366.445312 191.792969 355.160156 194.394531 Z M 355.160156 194.394531 " fill-opacity="1" fill-rule="evenodd"/><path fill="#a1c6e6" d="M 25.207031 214.242188 C 25.515625 214.265625 25.824219 214.273438 26.132812 214.273438 L 225.378906 214.273438 C 225.515625 214.273438 225.648438 214.273438 225.785156 214.269531 C 225.925781 214.269531 226.070312 214.273438 226.210938 214.273438 C 242.199219 214.273438 255.15625 201.324219 255.15625 185.355469 C 255.15625 169.378906 242.199219 156.429688 226.210938 156.429688 C 222.71875 156.429688 219.367188 157.050781 216.269531 158.183594 C 214.207031 137.964844 197.117188 122.191406 176.335938 122.191406 C 175.652344 122.191406 174.972656 122.210938 174.296875 122.246094 C 166.246094 103.828125 147.859375 90.957031 126.457031 90.957031 C 102.035156 90.957031 81.53125 107.71875 75.847656 130.359375 C 72.058594 129.175781 68.03125 128.539062 63.855469 128.539062 C 42.398438 128.539062 24.875 145.359375 23.769531 166.519531 C 10.699219 166.664062 0.140625 177.296875 0.140625 190.394531 C 0.140625 203.582031 10.84375 214.273438 24.042969 214.273438 C 24.433594 214.273438 24.820312 214.265625 25.207031 214.242188 Z M 25.207031 214.242188 " fill-opacity="1" fill-rule="evenodd"/><g clip-path="url(#b2d0250982)"><path fill="#3981bf" d="M 127.632812 282.910156 C 128.554688 282.910156 129.304688 283.660156 129.304688 284.578125 L 129.304688 293.957031 L 134.398438 288.867188 C 135.050781 288.214844 136.113281 288.214844 136.765625 288.867188 C 137.414062 289.515625 137.414062 290.582031 136.765625 291.226562 L 129.304688 298.683594 L 129.304688 301.714844 L 132.339844 301.714844 L 139.800781 294.261719 C 140.449219 293.613281 141.511719 293.613281 142.164062 294.261719 C 142.8125 294.910156 142.8125 295.972656 142.164062 296.621094 L 137.066406 301.714844 L 146.453125 301.714844 C 147.375 301.714844 148.128906 302.464844 148.128906 303.382812 C 148.128906 304.304688 147.375 305.054688 146.453125 305.054688 L 137.066406 305.054688 L 142.164062 310.144531 C 142.8125 310.796875 142.8125 311.859375 142.164062 312.503906 L 142.164062 312.511719 C 141.511719 313.15625 140.449219 313.15625 139.800781 312.511719 L 132.339844 305.054688 L 129.304688 305.054688 L 129.304688 308.085938 L 136.765625 315.542969 C 137.414062 316.1875 137.414062 317.25 136.765625 317.902344 C 136.113281 318.550781 135.050781 318.550781 134.398438 317.902344 L 129.304688 312.808594 L 129.304688 322.1875 C 129.304688 323.109375 128.554688 323.859375 127.632812 323.859375 C 126.714844 323.859375 125.960938 323.109375 125.960938 322.1875 L 125.960938 312.808594 L 120.863281 317.902344 C 120.214844 318.550781 119.148438 318.550781 118.5 317.902344 C 117.851562 317.25 117.851562 316.1875 118.5 315.542969 L 125.960938 308.085938 L 125.960938 305.054688 L 122.925781 305.054688 L 115.464844 312.511719 C 114.816406 313.15625 113.746094 313.15625 113.101562 312.511719 L 113.101562 312.503906 C 112.449219 311.859375 112.449219 310.796875 113.101562 310.144531 L 118.195312 305.054688 L 108.804688 305.054688 C 107.890625 305.054688 107.136719 304.304688 107.136719 303.382812 C 107.136719 302.46875 107.886719 301.714844 108.804688 301.714844 L 118.195312 301.714844 L 113.101562 296.621094 C 112.449219 295.972656 112.449219 294.910156 113.101562 294.261719 C 113.746094 293.613281 114.816406 293.613281 115.464844 294.261719 L 122.925781 301.714844 L 125.960938 301.714844 L 125.960938 298.683594 L 118.5 291.226562 C 117.851562 290.582031 117.851562 289.515625 118.5 288.867188 C 119.148438 288.214844 120.214844 288.214844 120.863281 288.867188 L 125.960938 293.957031 L 125.960938 284.578125 C 125.960938 283.660156 126.714844 282.910156 127.632812 282.910156 Z M 127.632812 282.910156 " fill-opacity="1" fill-rule="evenodd"/></g><g clip-path="url(#0b07777fc4)"><path fill="#3981bf" d="M 247.367188 282.910156 C 248.289062 282.910156 249.042969 283.660156 249.042969 284.578125 L 249.042969 293.957031 L 254.136719 288.867188 C 254.789062 288.214844 255.851562 288.214844 256.5 288.867188 C 257.152344 289.515625 257.152344 290.582031 256.5 291.226562 L 249.042969 298.683594 L 249.042969 301.714844 L 252.078125 301.714844 L 259.539062 294.261719 C 260.1875 293.613281 261.25 293.613281 261.902344 294.261719 C 262.550781 294.910156 262.550781 295.972656 261.902344 296.621094 L 256.804688 301.714844 L 266.191406 301.714844 C 267.113281 301.714844 267.867188 302.464844 267.867188 303.382812 C 267.867188 304.304688 267.113281 305.054688 266.191406 305.054688 L 256.804688 305.054688 L 261.902344 310.144531 C 262.550781 310.796875 262.550781 311.859375 261.902344 312.503906 L 261.902344 312.511719 C 261.25 313.15625 260.1875 313.15625 259.539062 312.511719 L 252.078125 305.054688 L 249.042969 305.054688 L 249.042969 308.085938 L 256.5 315.542969 C 257.152344 316.1875 257.152344 317.25 256.5 317.902344 C 255.851562 318.550781 254.789062 318.550781 254.136719 317.902344 L 249.042969 312.808594 L 249.042969 322.1875 C 249.042969 323.109375 248.289062 323.859375 247.367188 323.859375 C 246.453125 323.859375 245.699219 323.109375 245.699219 322.1875 L 245.699219 312.808594 L 240.597656 317.902344 C 239.953125 318.550781 238.886719 318.550781 238.234375 317.902344 C 237.589844 317.25 237.589844 316.1875 238.234375 315.542969 L 245.699219 308.085938 L 245.699219 305.054688 L 242.664062 305.054688 L 235.199219 312.511719 C 234.546875 313.15625 233.484375 313.15625 232.835938 312.511719 L 232.835938 312.503906 C 232.183594 311.859375 232.183594 310.796875 232.835938 310.144531 L 237.933594 305.054688 L 228.542969 305.054688 C 227.625 305.054688 226.875 304.304688 226.875 303.382812 C 226.875 302.46875 227.625 301.714844 228.542969 301.714844 L 237.933594 301.714844 L 232.835938 296.621094 C 232.183594 295.972656 232.183594 294.910156 232.835938 294.261719 C 233.484375 293.613281 234.546875 293.613281 235.199219 294.261719 L 242.664062 301.714844 L 245.699219 301.714844 L 245.699219 298.683594 L 238.234375 291.226562 C 237.589844 290.582031 237.589844 289.515625 238.234375 288.867188 C 238.886719 288.214844 239.953125 288.214844 240.597656 288.867188 L 245.699219 293.957031 L 245.699219 284.578125 C 245.699219 283.660156 246.449219 282.910156 247.367188 282.910156 Z M 247.367188 282.910156 " fill-opacity="1" fill-rule="evenodd"/></g><path fill="#3981bf" d="M 187.5 226.847656 C 188.773438 226.847656 189.816406 227.886719 189.816406 229.152344 L 189.816406 242.136719 L 196.867188 235.085938 C 197.765625 234.191406 199.238281 234.191406 200.132812 235.085938 C 201.035156 235.988281 201.035156 237.457031 200.132812 238.355469 L 189.816406 248.664062 L 189.816406 252.863281 L 194.011719 252.863281 L 204.335938 242.550781 C 205.238281 241.65625 206.710938 241.65625 207.609375 242.550781 C 208.507812 243.449219 208.507812 244.921875 207.609375 245.820312 L 200.554688 252.863281 L 213.542969 252.863281 C 214.820312 252.863281 215.859375 253.90625 215.859375 255.175781 C 215.859375 256.445312 214.820312 257.484375 213.542969 257.484375 L 200.554688 257.484375 L 207.609375 264.53125 C 208.507812 265.429688 208.507812 266.898438 207.609375 267.792969 C 206.710938 268.695312 205.238281 268.695312 204.335938 267.792969 L 194.011719 257.484375 L 189.816406 257.484375 L 189.816406 261.679688 L 200.132812 271.992188 C 201.035156 272.894531 201.035156 274.363281 200.132812 275.261719 C 199.238281 276.160156 197.765625 276.160156 196.867188 275.261719 L 189.816406 268.214844 L 189.816406 281.191406 C 189.816406 282.464844 188.773438 283.503906 187.5 283.503906 C 186.230469 283.503906 185.1875 282.464844 185.1875 281.191406 L 185.1875 268.214844 L 178.136719 275.261719 C 177.234375 276.160156 175.765625 276.160156 174.863281 275.261719 C 173.96875 274.363281 173.96875 272.894531 174.863281 271.992188 L 185.1875 261.679688 L 185.1875 257.484375 L 180.984375 257.484375 L 170.664062 267.792969 C 169.765625 268.695312 168.292969 268.695312 167.394531 267.792969 C 166.496094 266.898438 166.496094 265.429688 167.394531 264.53125 L 174.445312 257.484375 L 161.453125 257.484375 C 160.183594 257.484375 159.144531 256.445312 159.144531 255.175781 C 159.144531 253.90625 160.183594 252.863281 161.453125 252.863281 L 174.445312 252.863281 L 167.394531 245.820312 C 166.496094 244.921875 166.496094 243.449219 167.394531 242.550781 C 168.292969 241.65625 169.765625 241.65625 170.664062 242.550781 L 180.984375 252.863281 L 185.1875 252.863281 L 185.1875 248.664062 L 174.863281 238.355469 C 173.96875 237.457031 173.96875 235.988281 174.863281 235.085938 C 175.765625 234.191406 177.234375 234.191406 178.136719 235.085938 L 185.1875 242.136719 L 185.1875 229.152344 C 185.191406 227.882812 186.230469 226.847656 187.5 226.847656 Z M 187.5 226.847656 " fill-opacity="1" fill-rule="evenodd"/><path fill="#3981bf" d="M 75.007812 226.847656 C 76.277344 226.847656 77.320312 227.886719 77.320312 229.152344 L 77.320312 242.136719 L 84.371094 235.085938 C 85.273438 234.191406 86.746094 234.191406 87.644531 235.085938 C 88.542969 235.988281 88.542969 237.457031 87.644531 238.355469 L 77.320312 248.664062 L 77.320312 252.863281 L 81.523438 252.863281 L 91.84375 242.550781 C 92.746094 241.65625 94.214844 241.65625 95.117188 242.550781 C 96.011719 243.449219 96.011719 244.921875 95.117188 245.820312 L 88.0625 252.863281 L 101.054688 252.863281 C 102.328125 252.863281 103.363281 253.90625 103.363281 255.175781 C 103.363281 256.445312 102.328125 257.484375 101.054688 257.484375 L 88.0625 257.484375 L 95.117188 264.53125 C 96.011719 265.429688 96.011719 266.898438 95.117188 267.792969 C 94.214844 268.695312 92.746094 268.695312 91.84375 267.792969 L 81.523438 257.484375 L 77.320312 257.484375 L 77.320312 261.679688 L 87.644531 271.992188 C 88.542969 272.894531 88.542969 274.363281 87.644531 275.261719 C 86.746094 276.160156 85.273438 276.160156 84.371094 275.261719 L 77.320312 268.214844 L 77.320312 281.191406 C 77.320312 282.464844 76.28125 283.503906 75.007812 283.503906 C 73.738281 283.503906 72.695312 282.464844 72.695312 281.191406 L 72.695312 268.214844 L 65.644531 275.261719 C 64.742188 276.160156 63.273438 276.160156 62.375 275.261719 C 61.476562 274.363281 61.476562 272.894531 62.375 271.992188 L 72.695312 261.679688 L 72.695312 257.484375 L 68.496094 257.484375 L 58.171875 267.792969 C 57.273438 268.695312 55.800781 268.695312 54.898438 267.792969 C 54.003906 266.898438 54.003906 265.429688 54.898438 264.53125 L 61.957031 257.484375 L 48.964844 257.484375 C 47.691406 257.484375 46.652344 256.445312 46.652344 255.175781 C 46.652344 253.90625 47.691406 252.863281 48.964844 252.863281 L 61.957031 252.863281 L 54.898438 245.820312 C 54.003906 244.921875 54.003906 243.449219 54.898438 242.550781 C 55.800781 241.65625 57.273438 241.65625 58.171875 242.550781 L 68.496094 252.863281 L 72.695312 252.863281 L 72.695312 248.664062 L 62.375 238.355469 C 61.476562 237.457031 61.476562 235.988281 62.375 235.085938 C 63.273438 234.191406 64.742188 234.191406 65.644531 235.085938 L 72.695312 242.136719 L 72.695312 229.152344 C 72.695312 227.882812 73.738281 226.847656 75.007812 226.847656 Z M 75.007812 226.847656 " fill-opacity="1" fill-rule="evenodd"/><path fill="#3981bf" d="M 299.996094 226.847656 C 301.265625 226.847656 302.308594 227.886719 302.308594 229.152344 L 302.308594 242.136719 L 309.359375 235.085938 C 310.257812 234.191406 311.730469 234.191406 312.628906 235.085938 C 313.53125 235.988281 313.53125 237.457031 312.628906 238.355469 L 302.308594 248.664062 L 302.308594 252.863281 L 306.507812 252.863281 L 316.832031 242.550781 C 317.726562 241.65625 319.203125 241.65625 320.101562 242.550781 C 321 243.449219 321 244.921875 320.101562 245.820312 L 313.050781 252.863281 L 326.039062 252.863281 C 327.3125 252.863281 328.351562 253.90625 328.351562 255.175781 C 328.351562 256.445312 327.3125 257.484375 326.039062 257.484375 L 313.050781 257.484375 L 320.101562 264.53125 C 321 265.429688 321 266.898438 320.101562 267.792969 C 319.203125 268.695312 317.726562 268.695312 316.832031 267.792969 L 306.507812 257.484375 L 302.308594 257.484375 L 302.308594 261.679688 L 312.628906 271.992188 C 313.53125 272.894531 313.53125 274.363281 312.628906 275.261719 C 311.730469 276.160156 310.257812 276.160156 309.359375 275.261719 L 302.308594 268.214844 L 302.308594 281.191406 C 302.308594 282.464844 301.265625 283.503906 299.996094 283.503906 C 298.722656 283.503906 297.683594 282.464844 297.683594 281.191406 L 297.683594 268.214844 L 290.632812 275.261719 C 289.730469 276.160156 288.261719 276.160156 287.359375 275.261719 C 286.460938 274.363281 286.460938 272.894531 287.359375 271.992188 L 297.683594 261.679688 L 297.683594 257.484375 L 293.480469 257.484375 L 283.160156 267.792969 C 282.257812 268.695312 280.789062 268.695312 279.886719 267.792969 C 278.988281 266.898438 278.988281 265.429688 279.886719 264.53125 L 286.9375 257.484375 L 273.949219 257.484375 C 272.679688 257.484375 271.636719 256.445312 271.636719 255.175781 C 271.636719 253.90625 272.675781 252.863281 273.949219 252.863281 L 286.9375 252.863281 L 279.886719 245.820312 C 278.988281 244.921875 278.988281 243.449219 279.886719 242.550781 C 280.789062 241.65625 282.257812 241.65625 283.160156 242.550781 L 293.480469 252.863281 L 297.683594 252.863281 L 297.683594 248.664062 L 287.359375 238.355469 C 286.460938 237.457031 286.460938 235.988281 287.359375 235.085938 C 288.261719 234.191406 289.730469 234.191406 290.632812 235.085938 L 297.683594 242.136719 L 297.683594 229.152344 C 297.683594 227.882812 298.722656 226.847656 299.996094 226.847656 Z M 299.996094 226.847656 " fill-opacity="1" fill-rule="evenodd"/><path fill="#3981bf" d="M 127.632812 261.828125 C 131.300781 261.828125 134.296875 258.839844 134.296875 255.171875 C 134.296875 251.503906 131.300781 248.515625 127.632812 248.515625 C 123.964844 248.515625 120.96875 251.503906 120.96875 255.171875 C 120.96875 258.839844 123.964844 261.828125 127.632812 261.828125 Z M 127.632812 261.828125 " fill-opacity="1" fill-rule="evenodd"/><path fill="#3981bf" d="M 247.367188 261.828125 C 251.039062 261.828125 254.035156 258.839844 254.035156 255.171875 C 254.035156 251.503906 251.039062 248.515625 247.367188 248.515625 C 243.703125 248.515625 240.707031 251.503906 240.707031 255.171875 C 240.707031 258.839844 243.703125 261.828125 247.367188 261.828125 Z M 247.367188 261.828125 " fill-opacity="1" fill-rule="evenodd"/><path fill="#3981bf" d="M 187.5 310.042969 C 191.167969 310.042969 194.164062 307.050781 194.164062 303.382812 C 194.164062 299.71875 191.167969 296.726562 187.5 296.726562 C 183.832031 296.726562 180.839844 299.71875 180.839844 303.382812 C 180.839844 307.050781 183.832031 310.042969 187.5 310.042969 Z M 187.5 310.042969 " fill-opacity="1" fill-rule="evenodd"/><g clip-path="url(#63ac502b5d)"><path fill="#3981bf" d="M 139.808594 255.355469 C 139.808594 261.632812 134.773438 266.722656 128.5625 266.722656 C 122.351562 266.722656 117.3125 261.632812 117.3125 255.355469 C 117.3125 249.078125 128.5625 235.21875 128.5625 235.21875 C 128.5625 235.21875 139.808594 249.078125 139.808594 255.355469 " fill-opacity="1" fill-rule="nonzero"/></g><g clip-path="url(#86675b7cdb)"><path fill="#3981bf" d="M 256.660156 255.355469 C 256.660156 261.632812 251.625 266.722656 245.414062 266.722656 C 239.199219 266.722656 234.164062 261.632812 234.164062 255.355469 C 234.164062 249.078125 245.414062 235.21875 245.414062 235.21875 C 245.414062 235.21875 256.660156 249.078125 256.660156 255.355469 " fill-opacity="1" fill-rule="nonzero"/></g><g clip-path="url(#7af4fdf115)"><path fill="#3981bf" d="M 196.496094 308.671875 C 196.496094 313.605469 192.46875 317.601562 187.496094 317.601562 C 182.527344 317.601562 178.496094 313.605469 178.496094 308.671875 C 178.496094 303.742188 187.496094 292.851562 187.496094 292.851562 C 187.496094 292.851562 196.496094 303.742188 196.496094 308.671875 " fill-opacity="1" fill-rule="nonzero"/></g></svg>