<svg xmlns="http://www.w3.org/2000/svg" xmlns:xlink="http://www.w3.org/1999/xlink" width="500" zoomAndPan="magnify" viewBox="0 0 375 374.999991" height="500" preserveAspectRatio="xMidYMid meet" version="1.0"><defs><clipPath id="5d52a20f68"><path d="M 110 89.660156 L 375 89.660156 L 375 243 L 110 243 Z M 110 89.660156 " clip-rule="nonzero"/></clipPath><clipPath id="fe42c2b591"><path d="M 14 233 L 174 233 L 174 285.410156 L 14 285.410156 Z M 14 233 " clip-rule="nonzero"/></clipPath></defs><g clip-path="url(#5d52a20f68)"><path fill="#86a3bf" d="M 207.261719 89.761719 C 205.339844 89.761719 203.421875 89.855469 201.507812 90.046875 C 199.597656 90.234375 197.699219 90.515625 195.8125 90.890625 C 193.929688 91.265625 192.066406 91.734375 190.226562 92.289062 C 188.386719 92.847656 186.578125 93.496094 184.804688 94.230469 C 183.027344 94.96875 181.292969 95.789062 179.597656 96.695312 C 177.902344 97.601562 176.257812 98.589844 174.660156 99.65625 C 173.0625 100.726562 171.519531 101.867188 170.035156 103.089844 C 168.546875 104.308594 167.125 105.597656 165.765625 106.957031 C 164.40625 108.316406 163.117188 109.738281 161.898438 111.226562 C 160.679688 112.710938 159.535156 114.253906 158.46875 115.851562 C 157.402344 117.453125 156.414062 119.097656 155.507812 120.792969 C 154.601562 122.488281 153.78125 124.226562 153.046875 126.003906 C 152.308594 127.777344 151.664062 129.585938 151.105469 131.425781 C 150.546875 133.265625 150.082031 135.128906 149.707031 137.015625 C 149.332031 138.898438 149.050781 140.800781 148.859375 142.710938 C 148.671875 144.625 148.578125 146.542969 148.578125 148.464844 C 148.589844 150.640625 148.726562 152.804688 148.980469 154.964844 C 126.847656 158.941406 110.242188 176.824219 110.242188 198.414062 C 110.242188 222.941406 131.671875 242.6875 158.292969 242.6875 L 329.757812 242.6875 C 354.277344 242.6875 374.015625 224.332031 374.015625 201.53125 C 374.015625 178.875 354.519531 160.617188 330.214844 160.390625 C 330.023438 158.871094 329.761719 157.363281 329.433594 155.867188 C 329.105469 154.375 328.710938 152.894531 328.246094 151.4375 C 327.785156 149.976562 327.257812 148.539062 326.667969 147.128906 C 326.074219 145.714844 325.421875 144.332031 324.703125 142.980469 C 323.988281 141.628906 323.210938 140.308594 322.375 139.027344 C 321.539062 137.746094 320.648438 136.5 319.699219 135.300781 C 318.753906 134.097656 317.753906 132.941406 316.699219 131.828125 C 315.648438 130.714844 314.546875 129.65625 313.398438 128.640625 C 312.25 127.628906 311.058594 126.671875 309.824219 125.765625 C 308.589844 124.863281 307.316406 124.015625 306.003906 123.226562 C 304.695312 122.4375 303.347656 121.707031 301.972656 121.039062 C 300.59375 120.371094 299.191406 119.765625 297.757812 119.226562 C 296.328125 118.683594 294.875 118.207031 293.398438 117.800781 C 291.925781 117.390625 290.433594 117.046875 288.929688 116.773438 C 287.421875 116.496094 285.90625 116.289062 284.382812 116.152344 C 282.859375 116.015625 281.332031 115.945312 279.800781 115.945312 C 272.492188 115.957031 265.507812 117.472656 258.855469 120.5 C 257.601562 118.183594 256.199219 115.964844 254.648438 113.839844 C 253.09375 111.714844 251.410156 109.703125 249.585938 107.804688 C 247.765625 105.910156 245.824219 104.140625 243.765625 102.503906 C 241.703125 100.867188 239.546875 99.375 237.285156 98.027344 C 235.023438 96.683594 232.683594 95.492188 230.265625 94.460938 C 227.84375 93.429688 225.367188 92.566406 222.832031 91.867188 C 220.296875 91.167969 217.722656 90.644531 215.117188 90.292969 C 212.511719 89.9375 209.890625 89.761719 207.261719 89.761719 Z M 207.261719 89.761719 " fill-opacity="1" fill-rule="nonzero"/></g><path fill="#c6e0f7" d="M 143.464844 111.855469 C 141.542969 111.855469 139.625 111.949219 137.710938 112.136719 C 135.800781 112.324219 133.902344 112.605469 132.015625 112.980469 C 130.132812 113.359375 128.269531 113.824219 126.429688 114.382812 C 124.589844 114.941406 122.78125 115.585938 121.007812 116.324219 C 119.230469 117.058594 117.496094 117.878906 115.800781 118.785156 C 114.105469 119.691406 112.460938 120.679688 110.863281 121.75 C 109.265625 122.816406 107.722656 123.960938 106.238281 125.179688 C 104.75 126.398438 103.328125 127.6875 101.96875 129.046875 C 100.609375 130.40625 99.320312 131.832031 98.101562 133.316406 C 96.882812 134.804688 95.738281 136.347656 94.671875 137.945312 C 93.605469 139.542969 92.617188 141.191406 91.710938 142.886719 C 90.804688 144.582031 89.984375 146.316406 89.25 148.09375 C 88.511719 149.871094 87.867188 151.679688 87.308594 153.519531 C 86.75 155.355469 86.285156 157.21875 85.910156 159.105469 C 85.535156 160.992188 85.253906 162.890625 85.0625 164.804688 C 84.875 166.71875 84.78125 168.636719 84.78125 170.558594 C 84.792969 172.730469 84.929688 174.898438 85.183594 177.054688 C 63.050781 181.03125 46.445312 198.914062 46.445312 220.503906 C 46.445312 245.03125 67.875 264.777344 94.496094 264.777344 L 265.960938 264.777344 C 290.480469 264.777344 310.21875 246.421875 310.21875 223.625 C 310.21875 200.96875 290.722656 182.710938 266.417969 182.480469 C 266.226562 180.964844 265.964844 179.457031 265.636719 177.960938 C 265.308594 176.464844 264.914062 174.988281 264.449219 173.527344 C 263.988281 172.066406 263.460938 170.632812 262.871094 169.21875 C 262.277344 167.808594 261.625 166.425781 260.90625 165.074219 C 260.191406 163.71875 259.414062 162.402344 258.578125 161.117188 C 257.742188 159.835938 256.851562 158.59375 255.902344 157.390625 C 254.957031 156.1875 253.957031 155.03125 252.902344 153.921875 C 251.851562 152.808594 250.75 151.746094 249.601562 150.734375 C 248.453125 149.722656 247.261719 148.761719 246.027344 147.859375 C 244.792969 146.953125 243.519531 146.105469 242.207031 145.316406 C 240.898438 144.527344 239.550781 143.796875 238.175781 143.128906 C 236.796875 142.460938 235.394531 141.859375 233.960938 141.316406 C 232.53125 140.777344 231.078125 140.300781 229.601562 139.890625 C 228.125 139.480469 226.636719 139.136719 225.132812 138.863281 C 223.625 138.589844 222.109375 138.382812 220.585938 138.242188 C 219.0625 138.105469 217.535156 138.035156 216.003906 138.035156 C 208.695312 138.046875 201.710938 139.566406 195.058594 142.589844 C 193.804688 140.277344 192.402344 138.058594 190.851562 135.933594 C 189.296875 133.808594 187.613281 131.796875 185.789062 129.898438 C 183.96875 128 182.027344 126.234375 179.96875 124.59375 C 177.90625 122.957031 175.75 121.46875 173.488281 120.121094 C 171.226562 118.773438 168.886719 117.585938 166.46875 116.554688 C 164.046875 115.523438 161.570312 114.65625 159.035156 113.957031 C 156.5 113.261719 153.925781 112.734375 151.320312 112.382812 C 148.714844 112.03125 146.09375 111.855469 143.464844 111.855469 Z M 143.464844 111.855469 " fill-opacity="1" fill-rule="nonzero"/><path fill="#3981bf" d="M 127.257812 151.632812 C 111.976562 151.632812 99.453125 164.027344 99.453125 179.246094 C 99.453125 179.546875 99.480469 179.847656 99.539062 180.144531 C 99.601562 180.441406 99.6875 180.726562 99.800781 181.007812 C 99.917969 181.285156 100.058594 181.550781 100.226562 181.800781 C 100.394531 182.054688 100.585938 182.285156 100.800781 182.5 C 101.011719 182.714844 101.246094 182.902344 101.496094 183.070312 C 101.75 183.238281 102.011719 183.382812 102.292969 183.496094 C 102.570312 183.613281 102.859375 183.699219 103.15625 183.757812 C 103.453125 183.816406 103.75 183.847656 104.054688 183.847656 C 104.355469 183.847656 104.65625 183.816406 104.949219 183.757812 C 105.246094 183.699219 105.535156 183.613281 105.8125 183.496094 C 106.09375 183.382812 106.359375 183.238281 106.609375 183.070312 C 106.859375 182.902344 107.09375 182.714844 107.304688 182.5 C 107.519531 182.285156 107.710938 182.054688 107.878906 181.800781 C 108.046875 181.550781 108.1875 181.285156 108.304688 181.007812 C 108.417969 180.726562 108.507812 180.441406 108.566406 180.144531 C 108.625 179.847656 108.652344 179.546875 108.652344 179.246094 C 108.652344 169.046875 116.90625 160.835938 127.257812 160.835938 C 137.605469 160.835938 145.859375 169.046875 145.859375 179.246094 C 145.859375 189.445312 137.605469 197.65625 127.257812 197.65625 L 5.925781 197.65625 C 5.625 197.65625 5.324219 197.683594 5.027344 197.742188 C 4.730469 197.800781 4.445312 197.890625 4.164062 198.003906 C 3.886719 198.121094 3.621094 198.261719 3.371094 198.429688 C 3.117188 198.597656 2.886719 198.789062 2.671875 199.003906 C 2.457031 199.214844 2.269531 199.449219 2.101562 199.699219 C 1.933594 199.953125 1.789062 200.21875 1.675781 200.496094 C 1.558594 200.773438 1.472656 201.0625 1.414062 201.359375 C 1.355469 201.65625 1.324219 201.953125 1.324219 202.257812 C 1.324219 202.558594 1.355469 202.859375 1.414062 203.15625 C 1.472656 203.453125 1.558594 203.738281 1.675781 204.019531 C 1.789062 204.296875 1.933594 204.5625 2.101562 204.8125 C 2.269531 205.066406 2.457031 205.296875 2.671875 205.511719 C 2.886719 205.726562 3.117188 205.917969 3.371094 206.082031 C 3.621094 206.25 3.886719 206.394531 4.164062 206.507812 C 4.445312 206.625 4.730469 206.710938 5.027344 206.769531 C 5.324219 206.832031 5.625 206.859375 5.925781 206.859375 L 127.257812 206.859375 C 142.535156 206.859375 155.058594 194.464844 155.058594 179.246094 C 155.058594 164.027344 142.535156 151.632812 127.257812 151.632812 Z M 127.257812 151.632812 " fill-opacity="1" fill-rule="nonzero"/><path fill="#3981bf" d="M 183.722656 178.628906 C 170.699219 178.628906 159.835938 188.867188 159.835938 201.640625 C 159.835938 201.945312 159.867188 202.242188 159.925781 202.539062 C 159.984375 202.835938 160.070312 203.125 160.1875 203.402344 C 160.304688 203.683594 160.445312 203.945312 160.613281 204.199219 C 160.78125 204.449219 160.972656 204.683594 161.183594 204.894531 C 161.398438 205.109375 161.628906 205.300781 161.882812 205.46875 C 162.132812 205.636719 162.398438 205.777344 162.675781 205.894531 C 162.957031 206.007812 163.242188 206.097656 163.539062 206.15625 C 163.835938 206.214844 164.136719 206.242188 164.4375 206.242188 C 164.738281 206.242188 165.039062 206.214844 165.335938 206.15625 C 165.632812 206.097656 165.917969 206.007812 166.199219 205.894531 C 166.476562 205.777344 166.742188 205.636719 166.992188 205.46875 C 167.246094 205.300781 167.476562 205.109375 167.691406 204.894531 C 167.90625 204.683594 168.09375 204.449219 168.261719 204.199219 C 168.429688 203.945312 168.574219 203.679688 168.6875 203.402344 C 168.804688 203.125 168.890625 202.835938 168.949219 202.539062 C 169.007812 202.242188 169.039062 201.945312 169.039062 201.640625 C 169.039062 194.082031 175.445312 187.835938 183.722656 187.835938 C 192 187.835938 198.410156 194.082031 198.410156 201.640625 C 198.410156 209.203125 192 215.449219 183.722656 215.449219 L 30.464844 215.449219 C 30.160156 215.449219 29.863281 215.476562 29.566406 215.535156 C 29.269531 215.597656 28.984375 215.683594 28.703125 215.796875 C 28.425781 215.914062 28.160156 216.054688 27.90625 216.222656 C 27.65625 216.390625 27.425781 216.582031 27.210938 216.796875 C 26.996094 217.011719 26.804688 217.242188 26.640625 217.492188 C 26.472656 217.746094 26.328125 218.011719 26.214844 218.289062 C 26.097656 218.570312 26.011719 218.855469 25.953125 219.152344 C 25.894531 219.449219 25.863281 219.75 25.863281 220.050781 C 25.863281 220.351562 25.894531 220.652344 25.953125 220.949219 C 26.011719 221.246094 26.097656 221.53125 26.214844 221.8125 C 26.328125 222.089844 26.472656 222.355469 26.640625 222.609375 C 26.804688 222.859375 26.996094 223.089844 27.210938 223.304688 C 27.425781 223.519531 27.65625 223.710938 27.90625 223.878906 C 28.160156 224.046875 28.425781 224.1875 28.703125 224.300781 C 28.984375 224.417969 29.269531 224.503906 29.566406 224.566406 C 29.863281 224.625 30.160156 224.652344 30.464844 224.652344 L 183.722656 224.652344 C 196.746094 224.652344 207.609375 214.414062 207.609375 201.640625 C 207.609375 188.867188 196.746094 178.628906 183.722656 178.628906 Z M 183.722656 178.628906 " fill-opacity="1" fill-rule="nonzero"/><g clip-path="url(#fe42c2b591)"><path fill="#3981bf" d="M 19.417969 233.246094 C 19.117188 233.246094 18.820312 233.277344 18.523438 233.335938 C 18.226562 233.394531 17.9375 233.480469 17.660156 233.597656 C 17.378906 233.710938 17.113281 233.855469 16.863281 234.023438 C 16.613281 234.191406 16.378906 234.378906 16.167969 234.59375 C 15.953125 234.808594 15.761719 235.039062 15.59375 235.292969 C 15.425781 235.542969 15.285156 235.808594 15.167969 236.085938 C 15.054688 236.367188 14.964844 236.65625 14.90625 236.949219 C 14.847656 237.246094 14.820312 237.546875 14.820312 237.847656 C 14.820312 238.152344 14.847656 238.449219 14.90625 238.746094 C 14.964844 239.042969 15.054688 239.332031 15.167969 239.609375 C 15.285156 239.890625 15.425781 240.15625 15.59375 240.40625 C 15.761719 240.65625 15.953125 240.890625 16.167969 241.101562 C 16.378906 241.316406 16.613281 241.507812 16.863281 241.675781 C 17.113281 241.84375 17.378906 241.984375 17.660156 242.101562 C 17.9375 242.214844 18.226562 242.304688 18.523438 242.363281 C 18.820312 242.421875 19.117188 242.449219 19.417969 242.449219 L 147.125 242.449219 C 156.820312 242.449219 164.496094 250.035156 164.496094 259.40625 C 164.496094 268.777344 156.820312 276.367188 147.125 276.367188 C 137.429688 276.367188 129.753906 268.777344 129.753906 259.40625 C 129.753906 259.105469 129.726562 258.804688 129.667969 258.507812 C 129.609375 258.210938 129.519531 257.925781 129.40625 257.644531 C 129.289062 257.367188 129.148438 257.101562 128.980469 256.847656 C 128.8125 256.597656 128.621094 256.367188 128.410156 256.152344 C 128.195312 255.9375 127.960938 255.746094 127.710938 255.578125 C 127.460938 255.410156 127.195312 255.269531 126.914062 255.15625 C 126.636719 255.039062 126.347656 254.953125 126.050781 254.894531 C 125.757812 254.832031 125.457031 254.804688 125.15625 254.804688 C 124.851562 254.804688 124.554688 254.832031 124.257812 254.894531 C 123.960938 254.953125 123.671875 255.039062 123.394531 255.15625 C 123.117188 255.269531 122.851562 255.410156 122.597656 255.578125 C 122.347656 255.746094 122.117188 255.9375 121.902344 256.152344 C 121.6875 256.367188 121.496094 256.597656 121.328125 256.851562 C 121.160156 257.101562 121.019531 257.367188 120.90625 257.644531 C 120.789062 257.925781 120.703125 258.210938 120.644531 258.507812 C 120.582031 258.804688 120.554688 259.105469 120.554688 259.40625 C 120.554688 273.851562 132.550781 285.570312 147.125 285.570312 C 161.699219 285.570312 173.699219 273.851562 173.699219 259.40625 C 173.699219 244.960938 161.699219 233.246094 147.125 233.246094 Z M 19.417969 233.246094 " fill-opacity="1" fill-rule="nonzero"/></g></svg>