<svg xmlns="http://www.w3.org/2000/svg" xmlns:xlink="http://www.w3.org/1999/xlink" width="500" zoomAndPan="magnify" viewBox="0 0 375 374.999991" height="500" preserveAspectRatio="xMidYMid meet" version="1.0"><defs><clipPath id="17469e1d7e"><path d="M 15 255 L 191 255 L 191 312.953125 L 15 312.953125 Z M 15 255 " clip-rule="nonzero"/></clipPath></defs><path fill="#f5df00" d="M 308.421875 62.046875 C 307.292969 62.046875 306.160156 62.074219 305.03125 62.128906 C 303.902344 62.183594 302.773438 62.265625 301.644531 62.378906 C 300.519531 62.488281 299.398438 62.625 298.277344 62.792969 C 297.160156 62.957031 296.042969 63.152344 294.933594 63.371094 C 293.824219 63.59375 292.71875 63.839844 291.621094 64.113281 C 290.523438 64.390625 289.433594 64.691406 288.351562 65.019531 C 287.269531 65.347656 286.195312 65.699219 285.128906 66.082031 C 284.0625 66.460938 283.007812 66.871094 281.960938 67.300781 C 280.917969 67.734375 279.882812 68.191406 278.859375 68.675781 C 277.835938 69.160156 276.824219 69.667969 275.828125 70.199219 C 274.828125 70.730469 273.84375 71.289062 272.875 71.871094 C 271.902344 72.449219 270.949219 73.054688 270.007812 73.683594 C 269.066406 74.3125 268.140625 74.960938 267.234375 75.632812 C 266.324219 76.308594 265.433594 77.003906 264.558594 77.71875 C 263.683594 78.4375 262.824219 79.175781 261.988281 79.933594 C 261.148438 80.691406 260.328125 81.472656 259.527344 82.269531 C 258.730469 83.070312 257.949219 83.886719 257.1875 84.726562 C 256.429688 85.5625 255.691406 86.417969 254.972656 87.292969 C 254.253906 88.164062 253.558594 89.054688 252.882812 89.964844 C 252.210938 90.871094 251.558594 91.796875 250.929688 92.734375 C 250.300781 93.675781 249.695312 94.628906 249.113281 95.597656 C 248.53125 96.566406 247.972656 97.550781 247.441406 98.546875 C 246.90625 99.542969 246.398438 100.554688 245.914062 101.574219 C 245.429688 102.597656 244.972656 103.628906 244.539062 104.675781 C 244.105469 105.71875 243.699219 106.773438 243.316406 107.835938 C 242.9375 108.898438 242.582031 109.972656 242.253906 111.054688 C 241.925781 112.136719 241.625 113.226562 241.347656 114.320312 C 241.074219 115.417969 240.824219 116.519531 240.605469 117.628906 C 240.382812 118.738281 240.191406 119.851562 240.023438 120.96875 C 239.859375 122.085938 239.71875 123.207031 239.609375 124.332031 C 239.496094 125.457031 239.414062 126.582031 239.359375 127.710938 C 239.304688 128.839844 239.277344 129.96875 239.277344 131.101562 C 239.277344 132.230469 239.304688 133.359375 239.359375 134.488281 C 239.414062 135.617188 239.496094 136.742188 239.609375 137.867188 C 239.71875 138.992188 239.859375 140.113281 240.023438 141.234375 C 240.191406 142.351562 240.382812 143.464844 240.605469 144.570312 C 240.824219 145.679688 241.074219 146.78125 241.347656 147.878906 C 241.625 148.976562 241.925781 150.0625 242.253906 151.144531 C 242.582031 152.226562 242.9375 153.300781 243.316406 154.363281 C 243.699219 155.429688 244.105469 156.480469 244.539062 157.527344 C 244.972656 158.570312 245.429688 159.601562 245.914062 160.625 C 246.398438 161.644531 246.90625 162.65625 247.441406 163.652344 C 247.972656 164.648438 248.53125 165.632812 249.113281 166.601562 C 249.695312 167.570312 250.300781 168.523438 250.929688 169.464844 C 251.558594 170.40625 252.210938 171.328125 252.882812 172.234375 C 253.558594 173.144531 254.253906 174.035156 254.972656 174.90625 C 255.691406 175.78125 256.429688 176.636719 257.1875 177.472656 C 257.949219 178.3125 258.730469 179.128906 259.527344 179.929688 C 260.328125 180.726562 261.148438 181.507812 261.988281 182.265625 C 262.824219 183.023438 263.683594 183.761719 264.558594 184.480469 C 265.433594 185.195312 266.324219 185.890625 267.234375 186.566406 C 268.140625 187.238281 269.066406 187.890625 270.007812 188.515625 C 270.949219 189.144531 271.902344 189.75 272.875 190.332031 C 273.84375 190.910156 274.828125 191.46875 275.828125 192 C 276.824219 192.535156 277.835938 193.042969 278.859375 193.523438 C 279.882812 194.007812 280.917969 194.464844 281.960938 194.898438 C 283.007812 195.332031 284.0625 195.738281 285.128906 196.117188 C 286.195312 196.5 287.269531 196.851562 288.351562 197.179688 C 289.433594 197.507812 290.523438 197.808594 291.621094 198.085938 C 292.71875 198.359375 293.824219 198.605469 294.933594 198.828125 C 296.042969 199.046875 297.15625 199.242188 298.277344 199.40625 C 299.398438 199.574219 300.519531 199.710938 301.644531 199.820312 C 302.773438 199.933594 303.902344 200.015625 305.03125 200.070312 C 306.160156 200.125 307.292969 200.15625 308.421875 200.15625 C 310.304688 200.152344 312.179688 200.074219 314.054688 199.921875 C 315.929688 199.765625 317.792969 199.535156 319.648438 199.230469 C 321.503906 198.925781 323.34375 198.542969 325.167969 198.085938 C 326.992188 197.628906 328.792969 197.101562 330.574219 196.5 C 332.355469 195.894531 334.109375 195.222656 335.835938 194.476562 C 337.5625 193.730469 339.253906 192.914062 340.914062 192.03125 C 342.574219 191.148438 344.191406 190.199219 345.773438 189.183594 C 347.355469 188.167969 348.894531 187.085938 350.386719 185.945312 C 351.878906 184.804688 353.324219 183.605469 354.71875 182.347656 C 356.117188 181.089844 357.457031 179.773438 358.746094 178.40625 C 360.035156 177.039062 361.265625 175.621094 362.4375 174.152344 C 363.609375 172.683594 364.71875 171.171875 365.769531 169.613281 C 366.816406 168.054688 367.800781 166.457031 368.71875 164.816406 C 369.636719 163.175781 370.488281 161.503906 371.269531 159.796875 C 372.050781 158.089844 372.761719 156.351562 373.398438 154.585938 C 374.039062 152.820312 374.605469 151.03125 375.097656 149.21875 C 372.75 149.527344 370.394531 149.6875 368.023438 149.699219 C 366.195312 149.699219 364.371094 149.609375 362.546875 149.433594 C 360.726562 149.253906 358.917969 148.984375 357.125 148.628906 C 355.328125 148.273438 353.554688 147.828125 351.804688 147.296875 C 350.054688 146.765625 348.332031 146.152344 346.640625 145.453125 C 344.953125 144.753906 343.300781 143.972656 341.683594 143.113281 C 340.070312 142.25 338.503906 141.3125 336.980469 140.296875 C 335.460938 139.28125 333.992188 138.195312 332.578125 137.035156 C 331.164062 135.875 329.808594 134.648438 328.515625 133.355469 C 327.21875 132.066406 325.992188 130.710938 324.832031 129.300781 C 323.671875 127.886719 322.582031 126.421875 321.566406 124.902344 C 320.546875 123.382812 319.609375 121.816406 318.746094 120.203125 C 317.882812 118.59375 317.101562 116.941406 316.402344 115.253906 C 315.703125 113.566406 315.085938 111.847656 314.554688 110.097656 C 314.023438 108.347656 313.578125 106.578125 313.222656 104.785156 C 312.863281 102.992188 312.597656 101.1875 312.417969 99.367188 C 312.238281 97.550781 312.148438 95.726562 312.148438 93.898438 C 312.152344 88.457031 312.9375 83.125 314.507812 77.910156 C 316.074219 72.695312 318.355469 67.816406 321.351562 63.269531 C 317.082031 62.453125 312.773438 62.046875 308.421875 62.046875 Z M 308.421875 62.046875 " fill-opacity="1" fill-rule="nonzero"/><path fill="#c6e0f7" d="M 157.488281 120.863281 C 156.421875 120.863281 155.359375 120.890625 154.300781 120.941406 C 153.238281 120.992188 152.175781 121.070312 151.117188 121.175781 C 150.0625 121.28125 149.003906 121.410156 147.953125 121.566406 C 146.902344 121.722656 145.855469 121.902344 144.8125 122.109375 C 143.769531 122.316406 142.730469 122.550781 141.699219 122.808594 C 140.667969 123.066406 139.644531 123.347656 138.628906 123.65625 C 137.609375 123.964844 136.601562 124.296875 135.601562 124.65625 C 134.597656 125.015625 133.605469 125.394531 132.625 125.800781 C 131.644531 126.207031 130.671875 126.636719 129.710938 127.09375 C 128.75 127.546875 127.800781 128.023438 126.863281 128.523438 C 125.925781 129.023438 125 129.546875 124.085938 130.09375 C 123.175781 130.640625 122.277344 131.207031 121.394531 131.796875 C 120.507812 132.386719 119.640625 133 118.785156 133.632812 C 117.933594 134.265625 117.09375 134.917969 116.273438 135.589844 C 115.449219 136.265625 114.644531 136.957031 113.859375 137.671875 C 113.070312 138.382812 112.300781 139.117188 111.546875 139.867188 C 110.796875 140.617188 110.0625 141.386719 109.347656 142.171875 C 108.636719 142.960938 107.941406 143.761719 107.265625 144.582031 C 106.59375 145.40625 105.9375 146.242188 105.304688 147.09375 C 104.671875 147.945312 104.058594 148.816406 103.46875 149.699219 C 102.878906 150.582031 102.308594 151.476562 101.761719 152.386719 C 101.214844 153.296875 100.691406 154.222656 100.191406 155.160156 C 99.691406 156.09375 99.210938 157.042969 98.757812 158.003906 C 98.304688 158.960938 97.871094 159.933594 97.464844 160.914062 C 97.058594 161.894531 96.675781 162.886719 96.316406 163.886719 C 95.960938 164.886719 95.625 165.894531 95.316406 166.910156 C 95.007812 167.925781 94.726562 168.949219 94.46875 169.976562 C 94.207031 171.007812 93.976562 172.042969 93.769531 173.085938 C 93.5625 174.125 93.378906 175.171875 93.222656 176.222656 C 93.066406 177.273438 92.9375 178.324219 92.832031 179.382812 C 92.730469 180.4375 92.652344 181.496094 92.597656 182.558594 C 92.546875 183.617188 92.519531 184.679688 92.519531 185.742188 C 92.535156 188.144531 92.683594 190.539062 92.964844 192.921875 C 68.460938 197.316406 50.078125 217.082031 50.078125 240.941406 C 50.078125 268.050781 73.804688 289.875 103.277344 289.875 L 293.097656 289.875 C 320.246094 289.875 342.097656 269.585938 342.097656 244.390625 C 342.097656 219.351562 320.515625 199.171875 293.605469 198.917969 C 293.390625 197.242188 293.105469 195.574219 292.738281 193.921875 C 292.375 192.269531 291.9375 190.636719 291.425781 189.023438 C 290.914062 187.410156 290.332031 185.824219 289.675781 184.261719 C 289.023438 182.703125 288.296875 181.175781 287.503906 179.679688 C 286.710938 178.183594 285.851562 176.726562 284.925781 175.308594 C 284 173.890625 283.015625 172.519531 281.964844 171.191406 C 280.914062 169.859375 279.808594 168.582031 278.644531 167.355469 C 277.476562 166.125 276.261719 164.953125 274.988281 163.832031 C 273.71875 162.714844 272.398438 161.652344 271.03125 160.65625 C 269.664062 159.65625 268.253906 158.71875 266.804688 157.847656 C 265.351562 156.972656 263.863281 156.167969 262.339844 155.429688 C 260.8125 154.691406 259.257812 154.023438 257.671875 153.425781 C 256.089844 152.828125 254.480469 152.300781 252.847656 151.847656 C 251.214844 151.394531 249.566406 151.015625 247.898438 150.714844 C 246.230469 150.410156 244.554688 150.179688 242.867188 150.027344 C 241.179688 149.875 239.488281 149.800781 237.792969 149.800781 C 229.699219 149.8125 221.972656 151.488281 214.601562 154.832031 C 213.214844 152.273438 211.664062 149.820312 209.945312 147.472656 C 208.226562 145.125 206.359375 142.902344 204.34375 140.804688 C 202.328125 138.707031 200.179688 136.753906 197.898438 134.945312 C 195.617188 133.136719 193.226562 131.488281 190.726562 130 C 188.222656 128.511719 185.632812 127.195312 182.953125 126.058594 C 180.273438 124.917969 177.53125 123.960938 174.722656 123.1875 C 171.917969 122.417969 169.070312 121.835938 166.183594 121.449219 C 163.296875 121.058594 160.398438 120.863281 157.488281 120.863281 Z M 157.488281 120.863281 " fill-opacity="1" fill-rule="nonzero"/><path fill="#3981bf" d="M 139.542969 164.824219 C 122.625 164.824219 108.761719 178.523438 108.761719 195.34375 C 108.761719 195.675781 108.792969 196.007812 108.859375 196.335938 C 108.925781 196.664062 109.023438 196.980469 109.148438 197.289062 C 109.277344 197.597656 109.433594 197.890625 109.621094 198.167969 C 109.804688 198.445312 110.015625 198.703125 110.253906 198.941406 C 110.488281 199.175781 110.746094 199.386719 111.027344 199.570312 C 111.304688 199.757812 111.597656 199.914062 111.90625 200.042969 C 112.214844 200.167969 112.535156 200.265625 112.863281 200.332031 C 113.191406 200.398438 113.519531 200.429688 113.855469 200.429688 C 114.191406 200.429688 114.519531 200.398438 114.847656 200.332031 C 115.175781 200.265625 115.496094 200.167969 115.804688 200.042969 C 116.113281 199.914062 116.40625 199.757812 116.683594 199.570312 C 116.964844 199.386719 117.21875 199.175781 117.457031 198.941406 C 117.691406 198.703125 117.90625 198.445312 118.089844 198.167969 C 118.277344 197.890625 118.433594 197.597656 118.5625 197.289062 C 118.6875 196.980469 118.785156 196.664062 118.851562 196.335938 C 118.914062 196.007812 118.949219 195.675781 118.949219 195.34375 C 118.949219 184.070312 128.085938 174.996094 139.542969 174.996094 C 151 174.996094 160.136719 184.070312 160.136719 195.34375 C 160.136719 206.617188 151 215.6875 139.542969 215.6875 L 5.21875 215.6875 C 4.886719 215.6875 4.554688 215.722656 4.226562 215.785156 C 3.898438 215.851562 3.578125 215.949219 3.269531 216.074219 C 2.960938 216.203125 2.667969 216.359375 2.390625 216.546875 C 2.113281 216.730469 1.855469 216.941406 1.617188 217.179688 C 1.382812 217.414062 1.171875 217.671875 0.984375 217.949219 C 0.800781 218.226562 0.640625 218.519531 0.515625 218.828125 C 0.386719 219.136719 0.289062 219.457031 0.226562 219.78125 C 0.160156 220.109375 0.125 220.441406 0.125 220.773438 C 0.125 221.109375 0.160156 221.441406 0.226562 221.765625 C 0.289062 222.09375 0.386719 222.414062 0.515625 222.722656 C 0.640625 223.03125 0.800781 223.324219 0.984375 223.601562 C 1.171875 223.878906 1.382812 224.136719 1.617188 224.371094 C 1.855469 224.609375 2.113281 224.820312 2.390625 225.003906 C 2.667969 225.191406 2.960938 225.347656 3.269531 225.472656 C 3.578125 225.601562 3.898438 225.699219 4.226562 225.765625 C 4.554688 225.828125 4.886719 225.863281 5.21875 225.863281 L 139.542969 225.863281 C 156.457031 225.863281 170.324219 212.160156 170.324219 195.34375 C 170.324219 178.523438 156.457031 164.824219 139.542969 164.824219 Z M 139.542969 164.824219 " fill-opacity="1" fill-rule="nonzero"/><path fill="#3981bf" d="M 202.058594 194.660156 C 187.640625 194.660156 175.613281 205.976562 175.613281 220.09375 C 175.613281 220.429688 175.644531 220.757812 175.710938 221.085938 C 175.773438 221.414062 175.871094 221.730469 176 222.039062 C 176.128906 222.347656 176.285156 222.644531 176.46875 222.921875 C 176.65625 223.199219 176.867188 223.453125 177.105469 223.691406 C 177.339844 223.925781 177.597656 224.136719 177.875 224.324219 C 178.152344 224.507812 178.449219 224.664062 178.757812 224.792969 C 179.066406 224.921875 179.382812 225.019531 179.710938 225.082031 C 180.039062 225.148438 180.371094 225.179688 180.707031 225.179688 C 181.039062 225.179688 181.371094 225.148438 181.699219 225.082031 C 182.027344 225.019531 182.347656 224.921875 182.65625 224.792969 C 182.964844 224.664062 183.257812 224.507812 183.535156 224.324219 C 183.8125 224.136719 184.070312 223.925781 184.308594 223.691406 C 184.542969 223.453125 184.753906 223.199219 184.941406 222.921875 C 185.125 222.644531 185.285156 222.347656 185.410156 222.039062 C 185.539062 221.730469 185.636719 221.414062 185.699219 221.085938 C 185.765625 220.757812 185.800781 220.429688 185.800781 220.09375 C 185.800781 211.738281 192.890625 204.835938 202.058594 204.835938 C 211.222656 204.835938 218.3125 211.738281 218.3125 220.09375 C 218.3125 228.449219 211.222656 235.355469 202.058594 235.355469 L 32.386719 235.355469 C 32.050781 235.355469 31.722656 235.386719 31.394531 235.453125 C 31.066406 235.515625 30.746094 235.613281 30.4375 235.742188 C 30.128906 235.867188 29.835938 236.027344 29.558594 236.210938 C 29.277344 236.398438 29.019531 236.609375 28.785156 236.84375 C 28.546875 237.078125 28.335938 237.335938 28.152344 237.613281 C 27.964844 237.890625 27.808594 238.183594 27.679688 238.492188 C 27.554688 238.800781 27.457031 239.121094 27.390625 239.449219 C 27.324219 239.777344 27.292969 240.105469 27.292969 240.441406 C 27.292969 240.773438 27.324219 241.105469 27.390625 241.433594 C 27.457031 241.761719 27.554688 242.078125 27.679688 242.386719 C 27.808594 242.695312 27.964844 242.988281 28.152344 243.265625 C 28.335938 243.542969 28.546875 243.800781 28.785156 244.035156 C 29.019531 244.273438 29.277344 244.484375 29.558594 244.667969 C 29.835938 244.855469 30.128906 245.011719 30.4375 245.140625 C 30.746094 245.265625 31.066406 245.363281 31.394531 245.429688 C 31.722656 245.496094 32.050781 245.527344 32.386719 245.527344 L 202.058594 245.527344 C 216.472656 245.527344 228.5 234.210938 228.5 220.09375 C 228.5 205.976562 216.472656 194.660156 202.058594 194.660156 Z M 202.058594 194.660156 " fill-opacity="1" fill-rule="nonzero"/><g clip-path="url(#17469e1d7e)"><path fill="#3981bf" d="M 20.160156 255.023438 C 19.824219 255.023438 19.492188 255.054688 19.164062 255.121094 C 18.835938 255.1875 18.519531 255.285156 18.210938 255.410156 C 17.902344 255.539062 17.609375 255.695312 17.328125 255.882812 C 17.050781 256.066406 16.792969 256.277344 16.558594 256.515625 C 16.320312 256.75 16.109375 257.007812 15.925781 257.285156 C 15.738281 257.5625 15.582031 257.855469 15.453125 258.164062 C 15.324219 258.472656 15.230469 258.789062 15.164062 259.117188 C 15.097656 259.445312 15.066406 259.777344 15.066406 260.109375 C 15.066406 260.445312 15.097656 260.773438 15.164062 261.101562 C 15.230469 261.429688 15.324219 261.75 15.453125 262.058594 C 15.582031 262.367188 15.738281 262.660156 15.925781 262.9375 C 16.109375 263.214844 16.320312 263.472656 16.558594 263.707031 C 16.792969 263.941406 17.050781 264.152344 17.328125 264.339844 C 17.609375 264.523438 17.902344 264.683594 18.210938 264.808594 C 18.519531 264.9375 18.835938 265.035156 19.164062 265.097656 C 19.492188 265.164062 19.824219 265.195312 20.160156 265.195312 L 161.539062 265.195312 C 172.273438 265.195312 180.769531 273.578125 180.769531 283.9375 C 180.769531 294.292969 172.273438 302.679688 161.539062 302.679688 C 150.804688 302.679688 142.308594 294.292969 142.308594 283.9375 C 142.308594 283.601562 142.277344 283.269531 142.210938 282.945312 C 142.148438 282.617188 142.050781 282.296875 141.921875 281.988281 C 141.792969 281.679688 141.636719 281.386719 141.453125 281.109375 C 141.265625 280.832031 141.054688 280.574219 140.816406 280.339844 C 140.582031 280.101562 140.324219 279.890625 140.046875 279.707031 C 139.769531 279.519531 139.472656 279.363281 139.164062 279.238281 C 138.855469 279.109375 138.539062 279.011719 138.210938 278.945312 C 137.882812 278.882812 137.550781 278.847656 137.214844 278.847656 C 136.882812 278.847656 136.550781 278.882812 136.222656 278.945312 C 135.894531 279.011719 135.578125 279.109375 135.265625 279.238281 C 134.957031 279.363281 134.664062 279.519531 134.386719 279.707031 C 134.109375 279.890625 133.851562 280.101562 133.613281 280.339844 C 133.378906 280.574219 133.167969 280.832031 132.980469 281.109375 C 132.796875 281.386719 132.640625 281.679688 132.511719 281.988281 C 132.382812 282.296875 132.285156 282.617188 132.222656 282.945312 C 132.15625 283.269531 132.125 283.601562 132.125 283.9375 C 132.125 299.898438 145.40625 312.851562 161.539062 312.851562 C 177.675781 312.851562 190.957031 299.898438 190.957031 283.9375 C 190.957031 267.972656 177.675781 255.023438 161.539062 255.023438 Z M 20.160156 255.023438 " fill-opacity="1" fill-rule="nonzero"/></g></svg>