<svg xmlns="http://www.w3.org/2000/svg" xmlns:xlink="http://www.w3.org/1999/xlink" width="500" zoomAndPan="magnify" viewBox="0 0 375 374.999991" height="500" preserveAspectRatio="xMidYMid meet" version="1.0"><defs><clipPath id="752a42788d"><path d="M 266 58.636719 L 280 58.636719 L 280 93 L 266 93 Z M 266 58.636719 " clip-rule="nonzero"/></clipPath><clipPath id="fddc1b3822"><path d="M 13 263 L 175 263 L 175 316.636719 L 13 316.636719 Z M 13 263 " clip-rule="nonzero"/></clipPath></defs><path fill="#ffcc00" d="M 324.949219 161.03125 C 324.949219 162.738281 324.867188 164.4375 324.699219 166.136719 C 324.53125 167.832031 324.28125 169.519531 323.949219 171.191406 C 323.617188 172.863281 323.203125 174.515625 322.710938 176.148438 C 322.214844 177.78125 321.640625 179.386719 320.988281 180.960938 C 320.335938 182.539062 319.609375 184.078125 318.804688 185.582031 C 318.003906 187.085938 317.128906 188.546875 316.183594 189.964844 C 315.234375 191.382812 314.222656 192.753906 313.140625 194.070312 C 312.058594 195.390625 310.917969 196.652344 309.710938 197.859375 C 308.507812 199.0625 307.246094 200.207031 305.929688 201.289062 C 304.613281 202.371094 303.246094 203.386719 301.828125 204.335938 C 300.410156 205.28125 298.953125 206.160156 297.449219 206.960938 C 295.945312 207.765625 294.410156 208.496094 292.835938 209.148438 C 291.261719 209.800781 289.65625 210.375 288.027344 210.871094 C 286.398438 211.363281 284.746094 211.777344 283.074219 212.113281 C 281.402344 212.445312 279.71875 212.695312 278.023438 212.863281 C 276.328125 213.027344 274.628906 213.113281 272.925781 213.113281 C 271.222656 213.113281 269.523438 213.027344 267.828125 212.863281 C 266.128906 212.695312 264.445312 212.445312 262.777344 212.113281 C 261.105469 211.777344 259.453125 211.363281 257.824219 210.871094 C 256.191406 210.375 254.589844 209.800781 253.015625 209.148438 C 251.441406 208.496094 249.902344 207.765625 248.402344 206.960938 C 246.898438 206.160156 245.4375 205.28125 244.023438 204.335938 C 242.605469 203.386719 241.238281 202.371094 239.921875 201.289062 C 238.605469 200.207031 237.34375 199.0625 236.140625 197.859375 C 234.933594 196.652344 233.792969 195.390625 232.710938 194.070312 C 231.628906 192.753906 230.617188 191.382812 229.667969 189.964844 C 228.722656 188.546875 227.847656 187.085938 227.042969 185.582031 C 226.242188 184.078125 225.511719 182.539062 224.859375 180.960938 C 224.210938 179.386719 223.636719 177.78125 223.140625 176.148438 C 222.648438 174.515625 222.234375 172.863281 221.902344 171.191406 C 221.570312 169.519531 221.320312 167.832031 221.152344 166.136719 C 220.984375 164.4375 220.902344 162.738281 220.902344 161.03125 C 220.902344 159.324219 220.984375 157.625 221.152344 155.925781 C 221.320312 154.230469 221.570312 152.542969 221.902344 150.871094 C 222.234375 149.199219 222.648438 147.546875 223.140625 145.914062 C 223.636719 144.28125 224.210938 142.675781 224.863281 141.101562 C 225.511719 139.523438 226.242188 137.984375 227.042969 136.480469 C 227.847656 134.976562 228.722656 133.515625 229.667969 132.097656 C 230.617188 130.679688 231.628906 129.308594 232.710938 127.992188 C 233.792969 126.671875 234.933594 125.410156 236.140625 124.203125 C 237.34375 123 238.605469 121.855469 239.921875 120.773438 C 241.238281 119.691406 242.605469 118.675781 244.023438 117.726562 C 245.4375 116.78125 246.898438 115.902344 248.402344 115.101562 C 249.902344 114.296875 251.441406 113.566406 253.015625 112.914062 C 254.589844 112.261719 256.191406 111.6875 257.824219 111.191406 C 259.453125 110.699219 261.105469 110.285156 262.777344 109.949219 C 264.445312 109.617188 266.128906 109.367188 267.824219 109.199219 C 269.523438 109.035156 271.222656 108.949219 272.925781 108.949219 C 274.628906 108.949219 276.328125 109.035156 278.023438 109.199219 C 279.71875 109.367188 281.402344 109.617188 283.074219 109.949219 C 284.746094 110.285156 286.398438 110.699219 288.027344 111.191406 C 289.65625 111.6875 291.261719 112.261719 292.835938 112.914062 C 294.410156 113.566406 295.945312 114.296875 297.449219 115.101562 C 298.953125 115.902344 300.410156 116.78125 301.828125 117.726562 C 303.246094 118.675781 304.613281 119.691406 305.929688 120.773438 C 307.246094 121.855469 308.507812 123 309.710938 124.203125 C 310.917969 125.410156 312.058594 126.671875 313.140625 127.992188 C 314.222656 129.308594 315.234375 130.679688 316.183594 132.097656 C 317.128906 133.515625 318.003906 134.976562 318.804688 136.480469 C 319.609375 137.984375 320.335938 139.523438 320.988281 141.101562 C 321.640625 142.675781 322.214844 144.28125 322.710938 145.914062 C 323.203125 147.546875 323.617188 149.199219 323.949219 150.871094 C 324.28125 152.542969 324.53125 154.230469 324.699219 155.925781 C 324.867188 157.625 324.949219 159.324219 324.949219 161.03125 Z M 324.949219 161.03125 " fill-opacity="1" fill-rule="nonzero"/><g clip-path="url(#752a42788d)"><path fill="#ffcc00" d="M 272.925781 58.726562 C 269.152344 58.726562 266.113281 62.378906 266.113281 66.914062 L 266.113281 84.644531 C 266.113281 89.179688 269.152344 92.828125 272.925781 92.828125 C 276.699219 92.828125 279.738281 89.179688 279.738281 84.644531 L 279.738281 66.914062 C 279.738281 62.378906 276.699219 58.726562 272.925781 58.726562 Z M 272.925781 58.726562 " fill-opacity="1" fill-rule="nonzero"/></g><path fill="#ffcc00" d="M 345.1875 88.691406 C 342.515625 86.019531 337.789062 86.449219 334.585938 89.65625 L 322.0625 102.195312 C 318.859375 105.402344 318.429688 110.132812 321.097656 112.804688 C 323.769531 115.476562 328.496094 115.046875 331.695312 111.839844 L 344.222656 99.300781 C 347.425781 96.097656 347.855469 91.363281 345.1875 88.691406 Z M 345.1875 88.691406 " fill-opacity="1" fill-rule="nonzero"/><path fill="#ffcc00" d="M 375.117188 161.03125 C 375.117188 157.253906 371.472656 154.210938 366.941406 154.210938 L 349.226562 154.210938 C 344.699219 154.210938 341.054688 157.253906 341.054688 161.03125 C 341.054688 164.808594 344.699219 167.851562 349.226562 167.851562 L 366.941406 167.851562 C 371.472656 167.851562 375.117188 164.808594 375.117188 161.03125 Z M 375.117188 161.03125 " fill-opacity="1" fill-rule="nonzero"/><path fill="#ffcc00" d="M 345.1875 233.371094 C 347.855469 230.699219 347.425781 225.96875 344.222656 222.761719 L 331.695312 210.222656 C 328.496094 207.015625 323.769531 206.585938 321.097656 209.257812 C 318.429688 211.929688 318.859375 216.660156 322.0625 219.867188 L 334.585938 232.40625 C 337.789062 235.613281 342.515625 236.042969 345.1875 233.371094 Z M 345.1875 233.371094 " fill-opacity="1" fill-rule="nonzero"/><path fill="#ffcc00" d="M 272.925781 263.335938 C 276.699219 263.335938 279.738281 259.683594 279.738281 255.148438 L 279.738281 237.417969 C 279.738281 232.882812 276.699219 229.234375 272.925781 229.234375 C 269.152344 229.234375 266.113281 232.882812 266.113281 237.417969 L 266.113281 255.148438 C 266.113281 259.683594 269.152344 263.335938 272.925781 263.335938 Z M 272.925781 263.335938 " fill-opacity="1" fill-rule="nonzero"/><path fill="#ffcc00" d="M 200.664062 233.371094 C 203.332031 236.042969 208.0625 235.613281 211.261719 232.40625 L 223.789062 219.867188 C 226.992188 216.660156 227.421875 211.929688 224.75 209.257812 C 222.082031 206.585938 217.355469 207.015625 214.152344 210.222656 L 201.628906 222.761719 C 198.425781 225.96875 197.996094 230.699219 200.664062 233.371094 Z M 200.664062 233.371094 " fill-opacity="1" fill-rule="nonzero"/><path fill="#ffcc00" d="M 170.734375 161.03125 C 170.734375 164.808594 174.378906 167.851562 178.910156 167.851562 L 196.621094 167.851562 C 201.152344 167.851562 204.796875 164.808594 204.796875 161.03125 C 204.796875 157.253906 201.152344 154.210938 196.621094 154.210938 L 178.910156 154.210938 C 174.378906 154.210938 170.734375 157.253906 170.734375 161.03125 Z M 170.734375 161.03125 " fill-opacity="1" fill-rule="nonzero"/><path fill="#ffcc00" d="M 200.664062 88.691406 C 197.996094 91.363281 198.425781 96.097656 201.628906 99.300781 L 214.152344 111.839844 C 217.355469 115.046875 222.082031 115.476562 224.75 112.804688 C 227.421875 110.132812 226.992188 105.402344 223.789062 102.195312 L 211.261719 89.65625 C 208.0625 86.449219 203.332031 86.019531 200.664062 88.691406 Z M 200.664062 88.691406 " fill-opacity="1" fill-rule="nonzero"/><path fill="#c6e0f7" d="M 143.625 140.933594 C 141.683594 140.933594 139.75 141.027344 137.816406 141.21875 C 135.886719 141.40625 133.96875 141.691406 132.066406 142.070312 C 130.164062 142.449219 128.285156 142.921875 126.425781 143.488281 C 124.570312 144.050781 122.746094 144.703125 120.953125 145.449219 C 119.160156 146.191406 117.40625 147.019531 115.695312 147.9375 C 113.984375 148.851562 112.320312 149.847656 110.707031 150.929688 C 109.09375 152.007812 107.539062 153.164062 106.039062 154.394531 C 104.539062 155.628906 103.101562 156.929688 101.730469 158.304688 C 100.359375 159.679688 99.058594 161.117188 97.824219 162.617188 C 96.59375 164.121094 95.441406 165.679688 94.363281 167.292969 C 93.285156 168.910156 92.289062 170.574219 91.371094 172.285156 C 90.457031 174 89.628906 175.753906 88.886719 177.546875 C 88.144531 179.34375 87.492188 181.167969 86.929688 183.027344 C 86.363281 184.886719 85.894531 186.769531 85.515625 188.675781 C 85.136719 190.578125 84.851562 192.5 84.664062 194.429688 C 84.472656 196.363281 84.375 198.300781 84.375 200.246094 C 84.390625 202.441406 84.523438 204.628906 84.78125 206.8125 C 62.433594 210.828125 45.671875 228.894531 45.671875 250.710938 C 45.671875 275.492188 67.308594 295.445312 94.1875 295.445312 L 267.300781 295.445312 C 292.058594 295.445312 311.988281 276.898438 311.988281 253.863281 C 311.988281 230.96875 292.304688 212.523438 267.761719 212.292969 C 267.570312 210.757812 267.304688 209.234375 266.972656 207.722656 C 266.644531 206.214844 266.242188 204.71875 265.777344 203.246094 C 265.3125 201.769531 264.777344 200.320312 264.179688 198.894531 C 263.582031 197.464844 262.921875 196.070312 262.199219 194.703125 C 261.476562 193.335938 260.691406 192.003906 259.847656 190.707031 C 259.003906 189.410156 258.105469 188.15625 257.148438 186.941406 C 256.191406 185.726562 255.179688 184.558594 254.117188 183.433594 C 253.054688 182.3125 251.945312 181.238281 250.785156 180.214844 C 249.625 179.191406 248.421875 178.222656 247.175781 177.308594 C 245.929688 176.394531 244.644531 175.539062 243.320312 174.742188 C 241.996094 173.945312 240.640625 173.207031 239.25 172.53125 C 237.859375 171.859375 236.441406 171.246094 234.996094 170.699219 C 233.550781 170.152344 232.082031 169.671875 230.59375 169.257812 C 229.105469 168.84375 227.597656 168.5 226.078125 168.222656 C 224.558594 167.945312 223.027344 167.734375 221.488281 167.59375 C 219.949219 167.457031 218.410156 167.386719 216.863281 167.386719 C 209.484375 167.398438 202.433594 168.929688 195.714844 171.988281 C 194.449219 169.648438 193.035156 167.40625 191.46875 165.261719 C 189.902344 163.113281 188.199219 161.082031 186.359375 159.164062 C 184.519531 157.246094 182.558594 155.460938 180.480469 153.804688 C 178.402344 152.152344 176.21875 150.644531 173.9375 149.285156 C 171.65625 147.925781 169.292969 146.722656 166.851562 145.679688 C 164.40625 144.636719 161.90625 143.765625 159.34375 143.058594 C 156.785156 142.351562 154.1875 141.820312 151.558594 141.464844 C 148.925781 141.109375 146.28125 140.933594 143.625 140.933594 Z M 143.625 140.933594 " fill-opacity="1" fill-rule="nonzero"/><path fill="#3981bf" d="M 127.261719 181.121094 C 111.832031 181.121094 99.1875 193.648438 99.1875 209.023438 C 99.1875 209.328125 99.21875 209.628906 99.277344 209.929688 C 99.335938 210.230469 99.425781 210.519531 99.542969 210.800781 C 99.660156 211.085938 99.800781 211.351562 99.972656 211.605469 C 100.140625 211.859375 100.332031 212.09375 100.550781 212.3125 C 100.765625 212.527344 101 212.71875 101.253906 212.890625 C 101.507812 213.058594 101.773438 213.203125 102.054688 213.320312 C 102.339844 213.433594 102.628906 213.523438 102.929688 213.582031 C 103.226562 213.644531 103.527344 213.671875 103.835938 213.671875 C 104.140625 213.671875 104.441406 213.644531 104.742188 213.582031 C 105.039062 213.523438 105.328125 213.433594 105.613281 213.320312 C 105.894531 213.203125 106.160156 213.058594 106.414062 212.890625 C 106.667969 212.71875 106.902344 212.527344 107.117188 212.3125 C 107.335938 212.09375 107.527344 211.859375 107.695312 211.605469 C 107.867188 211.351562 108.007812 211.085938 108.125 210.800781 C 108.242188 210.519531 108.332031 210.230469 108.390625 209.929688 C 108.449219 209.628906 108.480469 209.328125 108.480469 209.023438 C 108.480469 198.714844 116.8125 190.421875 127.261719 190.421875 C 137.710938 190.421875 146.042969 198.714844 146.042969 209.023438 C 146.042969 219.328125 137.710938 227.625 127.261719 227.625 L 4.761719 227.625 C 4.457031 227.625 4.152344 227.652344 3.855469 227.710938 C 3.554688 227.773438 3.265625 227.859375 2.984375 227.976562 C 2.703125 228.09375 2.433594 228.238281 2.179688 228.40625 C 1.925781 228.578125 1.691406 228.769531 1.476562 228.984375 C 1.261719 229.199219 1.066406 229.4375 0.898438 229.691406 C 0.730469 229.945312 0.585938 230.210938 0.46875 230.492188 C 0.351562 230.777344 0.265625 231.066406 0.203125 231.367188 C 0.144531 231.664062 0.117188 231.96875 0.117188 232.273438 C 0.117188 232.578125 0.144531 232.882812 0.203125 233.179688 C 0.265625 233.480469 0.351562 233.769531 0.46875 234.050781 C 0.585938 234.335938 0.730469 234.601562 0.898438 234.855469 C 1.066406 235.109375 1.261719 235.34375 1.476562 235.5625 C 1.691406 235.777344 1.925781 235.96875 2.179688 236.140625 C 2.433594 236.308594 2.703125 236.453125 2.984375 236.570312 C 3.265625 236.6875 3.554688 236.773438 3.855469 236.832031 C 4.152344 236.894531 4.457031 236.921875 4.761719 236.921875 L 127.261719 236.921875 C 142.6875 236.921875 155.332031 224.398438 155.332031 209.023438 C 155.332031 193.648438 142.6875 181.121094 127.261719 181.121094 Z M 127.261719 181.121094 " fill-opacity="1" fill-rule="nonzero"/><path fill="#3981bf" d="M 184.273438 208.398438 C 171.125 208.398438 160.15625 218.746094 160.15625 231.652344 C 160.15625 231.957031 160.183594 232.257812 160.246094 232.558594 C 160.304688 232.859375 160.394531 233.148438 160.507812 233.429688 C 160.625 233.710938 160.769531 233.980469 160.9375 234.234375 C 161.109375 234.488281 161.300781 234.722656 161.515625 234.9375 C 161.730469 235.15625 161.964844 235.347656 162.21875 235.515625 C 162.472656 235.6875 162.742188 235.832031 163.023438 235.945312 C 163.304688 236.0625 163.59375 236.152344 163.894531 236.210938 C 164.195312 236.269531 164.496094 236.300781 164.800781 236.300781 C 165.105469 236.300781 165.40625 236.269531 165.707031 236.210938 C 166.007812 236.152344 166.296875 236.0625 166.578125 235.945312 C 166.859375 235.832031 167.128906 235.6875 167.382812 235.515625 C 167.636719 235.347656 167.871094 235.15625 168.085938 234.9375 C 168.300781 234.722656 168.492188 234.488281 168.664062 234.234375 C 168.832031 233.980469 168.976562 233.710938 169.09375 233.429688 C 169.210938 233.148438 169.296875 232.859375 169.355469 232.558594 C 169.417969 232.257812 169.445312 231.957031 169.445312 231.652344 C 169.445312 224.011719 175.914062 217.699219 184.273438 217.699219 C 192.628906 217.699219 199.097656 224.011719 199.097656 231.652344 C 199.097656 239.289062 192.628906 245.601562 184.273438 245.601562 L 29.535156 245.601562 C 29.230469 245.601562 28.929688 245.632812 28.628906 245.691406 C 28.332031 245.75 28.039062 245.839844 27.757812 245.957031 C 27.476562 246.070312 27.207031 246.214844 26.957031 246.386719 C 26.703125 246.554688 26.46875 246.746094 26.25 246.964844 C 26.035156 247.179688 25.84375 247.414062 25.671875 247.667969 C 25.503906 247.921875 25.359375 248.191406 25.246094 248.472656 C 25.128906 248.753906 25.039062 249.042969 24.980469 249.34375 C 24.921875 249.644531 24.890625 249.945312 24.890625 250.25 C 24.890625 250.558594 24.921875 250.859375 24.980469 251.160156 C 25.039062 251.457031 25.128906 251.75 25.246094 252.03125 C 25.359375 252.3125 25.503906 252.582031 25.671875 252.835938 C 25.84375 253.089844 26.035156 253.324219 26.25 253.539062 C 26.46875 253.753906 26.703125 253.949219 26.957031 254.117188 C 27.207031 254.289062 27.476562 254.429688 27.757812 254.546875 C 28.039062 254.664062 28.332031 254.753906 28.628906 254.8125 C 28.929688 254.871094 29.230469 254.902344 29.535156 254.902344 L 184.273438 254.902344 C 197.421875 254.902344 208.390625 244.558594 208.390625 231.652344 C 208.390625 218.746094 197.421875 208.398438 184.273438 208.398438 Z M 184.273438 208.398438 " fill-opacity="1" fill-rule="nonzero"/><g clip-path="url(#fddc1b3822)"><path fill="#3981bf" d="M 18.386719 263.582031 C 18.078125 263.582031 17.777344 263.613281 17.480469 263.671875 C 17.179688 263.734375 16.890625 263.820312 16.605469 263.9375 C 16.324219 264.054688 16.058594 264.199219 15.804688 264.367188 C 15.550781 264.539062 15.316406 264.730469 15.101562 264.945312 C 14.886719 265.160156 14.691406 265.398438 14.523438 265.652344 C 14.351562 265.90625 14.210938 266.171875 14.09375 266.453125 C 13.976562 266.738281 13.890625 267.027344 13.828125 267.328125 C 13.769531 267.625 13.738281 267.929688 13.738281 268.234375 C 13.738281 268.539062 13.769531 268.839844 13.828125 269.140625 C 13.890625 269.441406 13.976562 269.730469 14.09375 270.011719 C 14.210938 270.296875 14.351562 270.5625 14.523438 270.816406 C 14.691406 271.070312 14.886719 271.304688 15.101562 271.523438 C 15.316406 271.738281 15.550781 271.929688 15.804688 272.101562 C 16.058594 272.269531 16.324219 272.414062 16.605469 272.53125 C 16.890625 272.648438 17.179688 272.734375 17.480469 272.792969 C 17.777344 272.855469 18.078125 272.882812 18.386719 272.882812 L 147.324219 272.882812 C 157.113281 272.882812 164.859375 280.546875 164.859375 290.015625 C 164.859375 299.484375 157.113281 307.152344 147.324219 307.152344 C 137.53125 307.152344 129.785156 299.484375 129.785156 290.015625 C 129.785156 289.710938 129.753906 289.40625 129.695312 289.109375 C 129.636719 288.808594 129.546875 288.519531 129.429688 288.234375 C 129.3125 287.953125 129.171875 287.6875 129 287.433594 C 128.832031 287.179688 128.640625 286.941406 128.425781 286.726562 C 128.207031 286.511719 127.972656 286.320312 127.71875 286.148438 C 127.464844 285.980469 127.199219 285.835938 126.917969 285.71875 C 126.636719 285.601562 126.34375 285.515625 126.046875 285.453125 C 125.746094 285.394531 125.445312 285.367188 125.140625 285.367188 C 124.835938 285.367188 124.53125 285.394531 124.234375 285.453125 C 123.933594 285.515625 123.644531 285.601562 123.363281 285.71875 C 123.078125 285.835938 122.8125 285.980469 122.558594 286.148438 C 122.304688 286.320312 122.070312 286.511719 121.855469 286.726562 C 121.640625 286.941406 121.445312 287.179688 121.277344 287.433594 C 121.109375 287.6875 120.964844 287.953125 120.847656 288.234375 C 120.730469 288.519531 120.644531 288.808594 120.582031 289.109375 C 120.523438 289.40625 120.496094 289.710938 120.496094 290.015625 C 120.496094 304.609375 132.609375 316.453125 147.324219 316.453125 C 162.035156 316.453125 174.148438 304.609375 174.148438 290.015625 C 174.148438 275.421875 162.035156 263.582031 147.324219 263.582031 Z M 18.386719 263.582031 " fill-opacity="1" fill-rule="nonzero"/></g></svg>